<svg width="192" height="211" viewBox="0 0 192 211" fill="none" xmlns="http://www.w3.org/2000/svg">
<path d="M13.4109 127.8C16.3709 127.8 18.9576 128.4 21.1709 129.6C23.4109 130.773 25.1309 132.427 26.3309 134.56C27.5309 136.693 28.1309 139.133 28.1309 141.88C28.1309 144.6 27.5176 147.027 26.2909 149.16C25.0909 151.293 23.3709 152.973 21.1309 154.2C18.9176 155.4 16.3443 156 13.4109 156H2.25094V127.8H13.4109ZM12.8109 149.08C15.1043 149.08 16.9043 148.453 18.2109 147.2C19.5176 145.947 20.1709 144.173 20.1709 141.88C20.1709 139.56 19.5176 137.773 18.2109 136.52C16.9043 135.24 15.1043 134.6 12.8109 134.6H10.0909V149.08H12.8109ZM29.585 144.76C29.585 142.44 29.9983 140.413 30.825 138.68C31.6783 136.947 32.825 135.613 34.265 134.68C35.7317 133.747 37.3583 133.28 39.145 133.28C40.6917 133.28 42.025 133.587 43.145 134.2C44.265 134.813 45.1317 135.64 45.745 136.68V133.56H53.585V156H45.745V152.88C45.1317 153.92 44.2517 154.747 43.105 155.36C41.985 155.973 40.665 156.28 39.145 156.28C37.3583 156.28 35.7317 155.813 34.265 154.88C32.825 153.947 31.6783 152.613 30.825 150.88C29.9983 149.12 29.585 147.08 29.585 144.76ZM45.745 144.76C45.745 143.32 45.345 142.187 44.545 141.36C43.7717 140.533 42.8117 140.12 41.665 140.12C40.4917 140.12 39.5183 140.533 38.745 141.36C37.9717 142.16 37.585 143.293 37.585 144.76C37.585 146.2 37.9717 147.347 38.745 148.2C39.5183 149.027 40.4917 149.44 41.665 149.44C42.8117 149.44 43.7717 149.027 44.545 148.2C45.345 147.373 45.745 146.227 45.745 144.76ZM81.4125 133.56L67.1725 166.68H58.6525L64.0125 155.04L54.8125 133.56H63.5325L68.2525 146.28L72.8125 133.56H81.4125ZM100.663 141.52C102.317 141.893 103.623 142.72 104.583 144C105.57 145.253 106.063 146.693 106.063 148.32C106.063 150.72 105.237 152.6 103.583 153.96C101.93 155.32 99.6101 156 96.6234 156H82.6634V127.8H96.1834C99.0634 127.8 101.317 128.44 102.943 129.72C104.597 131 105.423 132.8 105.423 135.12C105.423 136.773 104.983 138.16 104.103 139.28C103.25 140.373 102.103 141.12 100.663 141.52ZM90.5034 139H94.4634C96.4368 139 97.4234 138.187 97.4234 136.56C97.4234 134.88 96.4368 134.04 94.4634 134.04H90.5034V139ZM95.0634 149.68C97.0368 149.68 98.0234 148.853 98.0234 147.2C98.0234 146.347 97.7568 145.693 97.2234 145.24C96.7168 144.787 95.9834 144.56 95.0234 144.56H90.5034V149.68H95.0634ZM116.539 126.4V156H108.699V126.4H116.539ZM130.644 156.28C128.404 156.28 126.391 155.813 124.604 154.88C122.844 153.947 121.457 152.613 120.444 150.88C119.431 149.147 118.924 147.107 118.924 144.76C118.924 142.44 119.431 140.413 120.444 138.68C121.484 136.947 122.884 135.613 124.644 134.68C126.431 133.747 128.444 133.28 130.684 133.28C132.924 133.28 134.924 133.747 136.684 134.68C138.471 135.613 139.871 136.947 140.884 138.68C141.924 140.413 142.444 142.44 142.444 144.76C142.444 147.08 141.924 149.12 140.884 150.88C139.871 152.613 138.471 153.947 136.684 154.88C134.897 155.813 132.884 156.28 130.644 156.28ZM130.644 149.48C131.737 149.48 132.644 149.08 133.364 148.28C134.111 147.453 134.484 146.28 134.484 144.76C134.484 143.24 134.111 142.08 133.364 141.28C132.644 140.48 131.751 140.08 130.684 140.08C129.617 140.08 128.724 140.48 128.004 141.28C127.284 142.08 126.924 143.24 126.924 144.76C126.924 146.307 127.271 147.48 127.964 148.28C128.657 149.08 129.551 149.48 130.644 149.48ZM143.554 144.76C143.554 142.44 144.034 140.413 144.994 138.68C145.954 136.947 147.287 135.613 148.994 134.68C150.727 133.747 152.7 133.28 154.914 133.28C157.767 133.28 160.167 134.067 162.114 135.64C164.06 137.187 165.314 139.36 165.874 142.16H157.554C157.074 140.693 156.14 139.96 154.754 139.96C153.767 139.96 152.98 140.373 152.394 141.2C151.834 142 151.554 143.187 151.554 144.76C151.554 146.333 151.834 147.533 152.394 148.36C152.98 149.187 153.767 149.6 154.754 149.6C156.167 149.6 157.1 148.867 157.554 147.4H165.874C165.314 150.173 164.06 152.347 162.114 153.92C160.167 155.493 157.767 156.28 154.914 156.28C152.7 156.28 150.727 155.813 148.994 154.88C147.287 153.947 145.954 152.613 144.994 150.88C144.034 149.147 143.554 147.107 143.554 144.76ZM182.371 156L176.171 146.8V156H168.331V126.4H176.171V142.36L182.371 133.56H191.771L182.931 144.84L191.931 156H182.371Z" fill="#323232"/>
<path d="M24.7542 191.517H21.9138V189.684H24.7542V191.517ZM22.4918 199.585H20.248V183.611H22.4918V199.585ZM12.6154 195.079H10.3779V185.146H12.6154V195.079ZM11.7639 193.829C12.9904 193.834 14.217 193.782 15.4435 193.674C16.6741 193.562 17.9152 193.382 19.1665 193.133L19.4027 195.004C18.1513 195.253 16.8937 195.429 15.6299 195.532C14.3703 195.632 13.0816 195.68 11.7639 195.675H10.3779V193.829H11.7639ZM32.8657 192.63H25.1834V184.948H32.8657V192.63ZM27.4024 190.865H30.653V186.731H27.4024V190.865ZM37.403 195.296H35.153V183.624H37.403V195.296ZM39.5536 190.081H36.7566V188.229H39.5536V190.081ZM37.9749 199.343H27.0232V197.534H37.9749V199.343ZM29.2608 198.441H27.0232V194.14H29.2608V198.441ZM44.719 184.686C45.5601 184.686 46.3163 184.854 46.9876 185.19C47.663 185.521 48.1934 185.988 48.5788 186.588C48.9641 187.185 49.1589 187.86 49.163 188.615C49.1589 189.373 48.9641 190.048 48.5788 190.641C48.1976 191.233 47.6692 191.7 46.9938 192.039C46.3184 192.375 45.5601 192.543 44.719 192.543C43.8902 192.543 43.1361 192.375 42.4565 192.039C41.7811 191.7 41.2487 191.233 40.8592 190.641C40.4738 190.044 40.2811 189.369 40.2811 188.615C40.2811 187.865 40.4738 187.191 40.8592 186.595C41.2487 185.994 41.7811 185.526 42.4565 185.19C43.1361 184.854 43.8902 184.686 44.719 184.686ZM44.719 186.626C44.2963 186.626 43.9192 186.704 43.5877 186.862C43.2563 187.019 42.9931 187.249 42.7984 187.552C42.6036 187.854 42.5063 188.209 42.5063 188.615C42.5063 189.025 42.6036 189.381 42.7984 189.684C42.9931 189.982 43.2563 190.21 43.5877 190.367C43.9192 190.525 44.2963 190.604 44.719 190.604C45.1499 190.604 45.5353 190.525 45.875 190.367C46.219 190.21 46.4862 189.982 46.6768 189.684C46.8716 189.381 46.971 189.025 46.9752 188.615C46.971 188.209 46.8716 187.854 46.6768 187.552C46.4862 187.249 46.219 187.019 45.875 186.862C45.5353 186.704 45.1499 186.626 44.719 186.626ZM52.9855 199.66H50.7542V183.611H52.9855V199.66ZM39.6161 194.563C40.8177 194.563 41.9634 194.552 43.0532 194.532C44.1471 194.511 45.2866 194.463 46.4717 194.389C47.661 194.31 48.786 194.196 49.8467 194.047L50.0145 195.663C48.9206 195.874 47.7853 196.034 46.6085 196.142C45.4358 196.245 44.3295 196.311 43.2894 196.34C42.2535 196.369 41.114 196.384 39.8709 196.384L39.6161 194.563ZM62.5055 186.477C62.5013 187.409 62.3666 188.3 62.1014 189.149C61.8404 189.994 61.4322 190.751 60.877 191.418C60.3217 192.085 59.6277 192.593 58.7948 192.941L57.589 191.206C58.3059 190.896 58.9005 190.488 59.3729 189.982C59.8452 189.472 60.1912 188.919 60.4108 188.323C60.6304 187.722 60.7423 187.106 60.7465 186.477V184.593H62.5055V186.477ZM62.9281 186.477C62.924 187.073 63.0296 187.645 63.2451 188.192C63.4606 188.735 63.7921 189.226 64.2396 189.665C64.6912 190.104 65.2589 190.454 65.9426 190.715L64.7492 192.431C63.9371 192.124 63.2637 191.671 62.7292 191.07C62.1988 190.465 61.8052 189.773 61.5483 188.994C61.2914 188.211 61.165 187.372 61.1691 186.477V184.593H62.9281V186.477ZM71.5552 193.419H69.4295V183.636H71.5552V193.419ZM70.02 189.36H67.4343V187.539H70.02V189.36ZM68.0869 192.916H66.0048V183.916H68.0869V192.916ZM66.0856 193.637C67.2085 193.637 68.1864 193.757 69.0193 193.997C69.8563 194.233 70.5006 194.577 70.9523 195.029C71.4039 195.477 71.6318 196.007 71.636 196.62C71.6318 197.238 71.4019 197.772 70.9461 198.224C70.4944 198.675 69.8501 199.021 69.013 199.262C68.1802 199.502 67.2043 199.62 66.0856 199.616C64.9626 199.62 63.9847 199.502 63.1519 199.262C62.319 199.021 61.6767 198.675 61.2251 198.224C60.7734 197.772 60.5496 197.238 60.5538 196.62C60.5496 196.007 60.7734 195.477 61.2251 195.029C61.6767 194.577 62.319 194.233 63.1519 193.997C63.9847 193.757 64.9626 193.637 66.0856 193.637ZM66.0856 195.315C65.3853 195.315 64.7886 195.365 64.2955 195.464C63.8066 195.559 63.4336 195.706 63.1767 195.905C62.9198 196.1 62.7914 196.338 62.7914 196.62C62.7914 196.906 62.9177 197.146 63.1705 197.341C63.4274 197.536 63.8003 197.683 64.2893 197.782C64.7824 197.878 65.3811 197.925 66.0856 197.925C66.7858 197.925 67.3805 197.878 67.8694 197.782C68.3584 197.683 68.7313 197.536 68.9882 197.341C69.2492 197.146 69.3798 196.906 69.3798 196.62C69.3798 196.338 69.2492 196.1 68.9882 195.905C68.7313 195.706 68.3563 195.559 67.8632 195.464C67.3742 195.365 66.7817 195.315 66.0856 195.315ZM78.1563 186.346C78.1522 187.427 77.9823 188.43 77.6467 189.354C77.3152 190.274 76.8096 191.076 76.1301 191.76C75.4547 192.443 74.6218 192.953 73.6315 193.289L72.3821 191.517C73.2606 191.248 73.992 190.848 74.5762 190.318C75.1646 189.783 75.5955 189.178 75.869 188.503C76.1467 187.823 76.2875 187.104 76.2917 186.346V184.599H78.1563V186.346ZM78.5479 186.365C78.5438 187.069 78.6784 187.74 78.9519 188.378C79.2254 189.012 79.6418 189.578 80.2012 190.075C80.7606 190.573 81.4588 190.956 82.2958 191.225L81.1149 192.99C80.1494 192.667 79.3393 192.18 78.6846 191.53C78.0341 190.875 77.5472 190.108 77.224 189.23C76.9008 188.347 76.7392 187.392 76.7392 186.365V184.599H78.5479V186.365ZM85.3414 195.346H83.0914V183.624H85.3414V195.346ZM87.492 190.137H84.695V188.254H87.492V190.137ZM85.9257 199.343H74.9554V197.534H85.9257V199.343ZM77.2426 198.497H74.9554V194.19H77.2426V198.497ZM93.1048 185.898C93.1007 187.001 92.9308 188.02 92.5952 188.956C92.2595 189.893 91.7478 190.707 91.0599 191.399C90.3762 192.091 89.5309 192.609 88.524 192.953L87.3307 191.163C88.2174 190.877 88.9529 190.465 89.5372 189.926C90.1256 189.387 90.5586 188.776 90.8362 188.093C91.118 187.409 91.2609 186.677 91.2651 185.898V184.45H93.1048V185.898ZM93.5275 185.793C93.5233 186.539 93.6497 187.233 93.9066 187.875C94.1677 188.517 94.5717 189.087 95.1186 189.584C95.6698 190.077 96.3617 190.452 97.1946 190.709L96.0012 192.462C95.0358 192.131 94.2361 191.642 93.6021 190.995C92.9681 190.349 92.4978 189.588 92.1912 188.714C91.8845 187.84 91.7312 186.866 91.7312 185.793V184.45H93.5275V185.793ZM100.967 192.997H98.7298V183.611H100.967V192.997ZM95.4978 193.407C96.6332 193.407 97.6152 193.531 98.4439 193.78C99.2727 194.024 99.9066 194.381 100.346 194.849C100.789 195.313 101.011 195.87 101.011 196.521C101.011 197.171 100.789 197.731 100.346 198.199C99.9066 198.667 99.2727 199.021 98.4439 199.262C97.6152 199.502 96.6332 199.62 95.4978 199.616C94.3624 199.62 93.3825 199.502 92.5579 199.262C91.7374 199.021 91.1055 198.667 90.6622 198.199C90.2188 197.731 89.9992 197.171 90.0033 196.521C89.9992 195.87 90.2188 195.313 90.6622 194.849C91.1055 194.381 91.7395 194.024 92.5641 193.78C93.3887 193.531 94.3666 193.407 95.4978 193.407ZM95.4978 195.147C94.7851 195.147 94.1863 195.199 93.7015 195.302C93.2167 195.406 92.85 195.559 92.6014 195.762C92.3569 195.965 92.2347 196.218 92.2347 196.521C92.2347 196.815 92.359 197.064 92.6076 197.267C92.8604 197.465 93.2271 197.617 93.7077 197.72C94.1925 197.824 94.7892 197.874 95.4978 197.869C96.2064 197.874 96.8051 197.824 97.2941 197.72C97.783 197.617 98.1518 197.465 98.4004 197.267C98.6532 197.064 98.7816 196.815 98.7858 196.521C98.7816 196.218 98.6532 195.965 98.4004 195.762C98.1518 195.559 97.783 195.406 97.2941 195.302C96.8093 195.199 96.2105 195.147 95.4978 195.147ZM99.0344 188.385H95.7278V186.551H99.0344V188.385ZM109.822 185.003H116.249V183.885H118.468V189.267H107.616V183.885H109.822V185.003ZM116.249 187.589V186.626H109.822V187.589H116.249ZM120.345 191.89H105.751V190.144H120.345V191.89ZM118.561 196.869H109.648V198.36H107.448V195.315H116.349V194.47H107.436V192.829H118.561V196.869ZM118.978 199.51H107.448V197.82H118.978V199.51ZM134.069 193.469H131.832V183.636H134.069V193.469ZM132.285 189.131H129.246V187.334H132.285V189.131ZM134.069 199.635H131.832V195.968H123.043V194.215H134.069V199.635ZM122.906 191.113C123.971 191.113 124.845 191.105 125.529 191.088C126.217 191.068 126.894 191.03 127.562 190.977C128.233 190.923 128.91 190.836 129.594 190.715L129.756 192.549C129.026 192.661 128.299 192.746 127.574 192.804C126.853 192.862 126.113 192.901 125.355 192.922C124.601 192.939 123.652 192.947 122.508 192.947H121.209V191.113H122.508H122.906ZM128.438 189.51H123.428V192.419H121.209V187.813H126.25V186.34H121.184V184.55H128.438V189.51ZM147.008 192.63H139.325V184.948H147.008V192.63ZM141.544 190.865H144.795V186.731H141.544V190.865ZM151.545 195.296H149.295V183.624H151.545V195.296ZM153.695 190.081H150.898V188.229H153.695V190.081ZM152.117 199.343H141.165V197.534H152.117V199.343ZM143.403 198.441H141.165V194.14H143.403V198.441ZM168.308 191.629H153.689V189.87H168.308V191.629ZM166.568 188.981H155.511V187.216H166.568V188.981ZM166.444 185.724H157.748V188.72H155.511V183.947H166.444V185.724ZM166.5 196.744H157.587V198.18H155.386V195.147H164.287V194.258H155.374V192.561H166.5V196.744ZM166.916 199.479H155.386V197.745H166.916V199.479ZM181.964 199.622H179.695V183.611H181.964V199.622ZM177.172 185.296C177.168 187.011 176.936 188.569 176.476 189.97C176.016 191.366 175.239 192.648 174.145 193.817C173.055 194.985 171.588 196.005 169.744 196.875L168.576 195.091C170.109 194.362 171.342 193.544 172.274 192.636C173.211 191.729 173.89 190.709 174.313 189.578C174.735 188.443 174.949 187.144 174.953 185.681V185.296H177.172ZM175.985 187.055H169.434V185.296H175.985V187.055Z" fill="#323232"/>
<rect x="52.3667" y="0.366667" width="87.2667" height="87.2667" rx="14.3" fill="#F4F5F7"/>
<rect x="52.3667" y="0.366667" width="87.2667" height="87.2667" rx="14.3" stroke="#F1F1F1" stroke-width="0.733333"/>
<path d="M91.3216 30.9375C92.4341 30.9375 93.3359 31.8393 93.3359 32.9518L93.3359 35.3203L84.7422 35.3203L84.7422 32.9518C84.7422 31.8393 85.644 30.9375 86.7565 30.9375L91.3216 30.9375Z" fill="#323232"/>
<path d="M105.244 30.9375C106.356 30.9375 107.258 31.8393 107.258 32.9518L107.258 35.3203L98.6641 35.3203L98.6641 32.9518C98.6641 31.8393 99.5659 30.9375 100.678 30.9375L105.244 30.9375Z" fill="#323232"/>
<path d="M75.2031 41.9487C75.2031 38.2405 78.2092 35.2344 81.9174 35.2344H110.083C113.791 35.2344 116.797 38.2405 116.797 41.9487V59.2857C116.797 62.9939 113.791 66 110.083 66H81.9174C78.2092 66 75.2031 62.9939 75.2031 59.2857V41.9487Z" fill="#323232"/>
<path d="M106.055 0H121.609V13.6211C121.609 17.9164 118.127 21.3984 113.832 21.3984V21.3984C109.537 21.3984 106.055 17.9164 106.055 13.6211V0Z" fill="#323232"/>
</svg>
