<svg width="192" height="195" viewBox="0 0 192 195" fill="none" xmlns="http://www.w3.org/2000/svg">
<path d="M13.4109 111.8C16.3709 111.8 18.9576 112.4 21.1709 113.6C23.4109 114.773 25.1309 116.427 26.3309 118.56C27.5309 120.693 28.1309 123.133 28.1309 125.88C28.1309 128.6 27.5176 131.027 26.2909 133.16C25.0909 135.293 23.3709 136.973 21.1309 138.2C18.9176 139.4 16.3443 140 13.4109 140H2.25094V111.8H13.4109ZM12.8109 133.08C15.1043 133.08 16.9043 132.453 18.2109 131.2C19.5176 129.947 20.1709 128.173 20.1709 125.88C20.1709 123.56 19.5176 121.773 18.2109 120.52C16.9043 119.24 15.1043 118.6 12.8109 118.6H10.0909V133.08H12.8109ZM29.585 128.76C29.585 126.44 29.9983 124.413 30.825 122.68C31.6783 120.947 32.825 119.613 34.265 118.68C35.7317 117.747 37.3583 117.28 39.145 117.28C40.6917 117.28 42.025 117.587 43.145 118.2C44.265 118.813 45.1317 119.64 45.745 120.68V117.56H53.585V140H45.745V136.88C45.1317 137.92 44.2517 138.747 43.105 139.36C41.985 139.973 40.665 140.28 39.145 140.28C37.3583 140.28 35.7317 139.813 34.265 138.88C32.825 137.947 31.6783 136.613 30.825 134.88C29.9983 133.12 29.585 131.08 29.585 128.76ZM45.745 128.76C45.745 127.32 45.345 126.187 44.545 125.36C43.7717 124.533 42.8117 124.12 41.665 124.12C40.4917 124.12 39.5183 124.533 38.745 125.36C37.9717 126.16 37.585 127.293 37.585 128.76C37.585 130.2 37.9717 131.347 38.745 132.2C39.5183 133.027 40.4917 133.44 41.665 133.44C42.8117 133.44 43.7717 133.027 44.545 132.2C45.345 131.373 45.745 130.227 45.745 128.76ZM81.4125 117.56L67.1725 150.68H58.6525L64.0125 139.04L54.8125 117.56H63.5325L68.2525 130.28L72.8125 117.56H81.4125ZM100.663 125.52C102.317 125.893 103.623 126.72 104.583 128C105.57 129.253 106.063 130.693 106.063 132.32C106.063 134.72 105.237 136.6 103.583 137.96C101.93 139.32 99.6101 140 96.6234 140H82.6634V111.8H96.1834C99.0634 111.8 101.317 112.44 102.943 113.72C104.597 115 105.423 116.8 105.423 119.12C105.423 120.773 104.983 122.16 104.103 123.28C103.25 124.373 102.103 125.12 100.663 125.52ZM90.5034 123H94.4634C96.4368 123 97.4234 122.187 97.4234 120.56C97.4234 118.88 96.4368 118.04 94.4634 118.04H90.5034V123ZM95.0634 133.68C97.0368 133.68 98.0234 132.853 98.0234 131.2C98.0234 130.347 97.7568 129.693 97.2234 129.24C96.7168 128.787 95.9834 128.56 95.0234 128.56H90.5034V133.68H95.0634ZM116.539 110.4V140H108.699V110.4H116.539ZM130.644 140.28C128.404 140.28 126.391 139.813 124.604 138.88C122.844 137.947 121.457 136.613 120.444 134.88C119.431 133.147 118.924 131.107 118.924 128.76C118.924 126.44 119.431 124.413 120.444 122.68C121.484 120.947 122.884 119.613 124.644 118.68C126.431 117.747 128.444 117.28 130.684 117.28C132.924 117.28 134.924 117.747 136.684 118.68C138.471 119.613 139.871 120.947 140.884 122.68C141.924 124.413 142.444 126.44 142.444 128.76C142.444 131.08 141.924 133.12 140.884 134.88C139.871 136.613 138.471 137.947 136.684 138.88C134.897 139.813 132.884 140.28 130.644 140.28ZM130.644 133.48C131.737 133.48 132.644 133.08 133.364 132.28C134.111 131.453 134.484 130.28 134.484 128.76C134.484 127.24 134.111 126.08 133.364 125.28C132.644 124.48 131.751 124.08 130.684 124.08C129.617 124.08 128.724 124.48 128.004 125.28C127.284 126.08 126.924 127.24 126.924 128.76C126.924 130.307 127.271 131.48 127.964 132.28C128.657 133.08 129.551 133.48 130.644 133.48ZM143.554 128.76C143.554 126.44 144.034 124.413 144.994 122.68C145.954 120.947 147.287 119.613 148.994 118.68C150.727 117.747 152.7 117.28 154.914 117.28C157.767 117.28 160.167 118.067 162.114 119.64C164.06 121.187 165.314 123.36 165.874 126.16H157.554C157.074 124.693 156.14 123.96 154.754 123.96C153.767 123.96 152.98 124.373 152.394 125.2C151.834 126 151.554 127.187 151.554 128.76C151.554 130.333 151.834 131.533 152.394 132.36C152.98 133.187 153.767 133.6 154.754 133.6C156.167 133.6 157.1 132.867 157.554 131.4H165.874C165.314 134.173 164.06 136.347 162.114 137.92C160.167 139.493 157.767 140.28 154.914 140.28C152.7 140.28 150.727 139.813 148.994 138.88C147.287 137.947 145.954 136.613 144.994 134.88C144.034 133.147 143.554 131.107 143.554 128.76ZM182.371 140L176.171 130.8V140H168.331V110.4H176.171V126.36L182.371 117.56H191.771L182.931 128.84L191.931 140H182.371Z" fill="#323232"/>
<path d="M24.7542 175.517H21.9138V173.684H24.7542V175.517ZM22.4918 183.585H20.248V167.611H22.4918V183.585ZM12.6154 179.079H10.3779V169.146H12.6154V179.079ZM11.7639 177.829C12.9904 177.834 14.217 177.782 15.4435 177.674C16.6741 177.562 17.9152 177.382 19.1665 177.133L19.4027 179.004C18.1513 179.253 16.8937 179.429 15.6299 179.532C14.3703 179.632 13.0816 179.68 11.7639 179.675H10.3779V177.829H11.7639ZM32.8657 176.63H25.1834V168.948H32.8657V176.63ZM27.4024 174.865H30.653V170.731H27.4024V174.865ZM37.403 179.296H35.153V167.624H37.403V179.296ZM39.5536 174.081H36.7566V172.229H39.5536V174.081ZM37.9749 183.343H27.0232V181.534H37.9749V183.343ZM29.2608 182.441H27.0232V178.14H29.2608V182.441ZM44.719 168.686C45.5601 168.686 46.3163 168.854 46.9876 169.19C47.663 169.521 48.1934 169.988 48.5788 170.588C48.9641 171.185 49.1589 171.86 49.163 172.615C49.1589 173.373 48.9641 174.048 48.5788 174.641C48.1976 175.233 47.6692 175.7 46.9938 176.039C46.3184 176.375 45.5601 176.543 44.719 176.543C43.8902 176.543 43.1361 176.375 42.4565 176.039C41.7811 175.7 41.2487 175.233 40.8592 174.641C40.4738 174.044 40.2811 173.369 40.2811 172.615C40.2811 171.865 40.4738 171.191 40.8592 170.595C41.2487 169.994 41.7811 169.526 42.4565 169.19C43.1361 168.854 43.8902 168.686 44.719 168.686ZM44.719 170.626C44.2963 170.626 43.9192 170.704 43.5877 170.862C43.2563 171.019 42.9931 171.249 42.7984 171.552C42.6036 171.854 42.5063 172.209 42.5063 172.615C42.5063 173.025 42.6036 173.381 42.7984 173.684C42.9931 173.982 43.2563 174.21 43.5877 174.367C43.9192 174.525 44.2963 174.604 44.719 174.604C45.1499 174.604 45.5353 174.525 45.875 174.367C46.219 174.21 46.4862 173.982 46.6768 173.684C46.8716 173.381 46.971 173.025 46.9752 172.615C46.971 172.209 46.8716 171.854 46.6768 171.552C46.4862 171.249 46.219 171.019 45.875 170.862C45.5353 170.704 45.1499 170.626 44.719 170.626ZM52.9855 183.66H50.7542V167.611H52.9855V183.66ZM39.6161 178.563C40.8177 178.563 41.9634 178.552 43.0532 178.532C44.1471 178.511 45.2866 178.463 46.4717 178.389C47.661 178.31 48.786 178.196 49.8467 178.047L50.0145 179.663C48.9206 179.874 47.7853 180.034 46.6085 180.142C45.4358 180.245 44.3295 180.311 43.2894 180.34C42.2535 180.369 41.114 180.384 39.8709 180.384L39.6161 178.563ZM62.5055 170.477C62.5013 171.409 62.3666 172.3 62.1014 173.149C61.8404 173.994 61.4322 174.751 60.877 175.418C60.3217 176.085 59.6277 176.593 58.7948 176.941L57.589 175.206C58.3059 174.896 58.9005 174.488 59.3729 173.982C59.8452 173.472 60.1912 172.919 60.4108 172.323C60.6304 171.722 60.7423 171.106 60.7465 170.477V168.593H62.5055V170.477ZM62.9281 170.477C62.924 171.073 63.0296 171.645 63.2451 172.192C63.4606 172.735 63.7921 173.226 64.2396 173.665C64.6912 174.104 65.2589 174.454 65.9426 174.715L64.7492 176.431C63.9371 176.124 63.2637 175.671 62.7292 175.07C62.1988 174.465 61.8052 173.773 61.5483 172.994C61.2914 172.211 61.165 171.372 61.1691 170.477V168.593H62.9281V170.477ZM71.5552 177.419H69.4295V167.636H71.5552V177.419ZM70.02 173.36H67.4343V171.539H70.02V173.36ZM68.0869 176.916H66.0048V167.916H68.0869V176.916ZM66.0856 177.637C67.2085 177.637 68.1864 177.757 69.0193 177.997C69.8563 178.233 70.5006 178.577 70.9523 179.029C71.4039 179.477 71.6318 180.007 71.636 180.62C71.6318 181.238 71.4019 181.772 70.9461 182.224C70.4944 182.675 69.8501 183.021 69.013 183.262C68.1802 183.502 67.2043 183.62 66.0856 183.616C64.9626 183.62 63.9847 183.502 63.1519 183.262C62.319 183.021 61.6767 182.675 61.2251 182.224C60.7734 181.772 60.5496 181.238 60.5538 180.62C60.5496 180.007 60.7734 179.477 61.2251 179.029C61.6767 178.577 62.319 178.233 63.1519 177.997C63.9847 177.757 64.9626 177.637 66.0856 177.637ZM66.0856 179.315C65.3853 179.315 64.7886 179.365 64.2955 179.464C63.8066 179.559 63.4336 179.706 63.1767 179.905C62.9198 180.1 62.7914 180.338 62.7914 180.62C62.7914 180.906 62.9177 181.146 63.1705 181.341C63.4274 181.536 63.8003 181.683 64.2893 181.782C64.7824 181.878 65.3811 181.925 66.0856 181.925C66.7858 181.925 67.3805 181.878 67.8694 181.782C68.3584 181.683 68.7313 181.536 68.9882 181.341C69.2492 181.146 69.3798 180.906 69.3798 180.62C69.3798 180.338 69.2492 180.1 68.9882 179.905C68.7313 179.706 68.3563 179.559 67.8632 179.464C67.3742 179.365 66.7817 179.315 66.0856 179.315ZM78.1563 170.346C78.1522 171.427 77.9823 172.43 77.6467 173.354C77.3152 174.274 76.8096 175.076 76.1301 175.76C75.4547 176.443 74.6218 176.953 73.6315 177.289L72.3821 175.517C73.2606 175.248 73.992 174.848 74.5762 174.318C75.1646 173.783 75.5955 173.178 75.869 172.503C76.1467 171.823 76.2875 171.104 76.2917 170.346V168.599H78.1563V170.346ZM78.5479 170.365C78.5438 171.069 78.6784 171.74 78.9519 172.378C79.2254 173.012 79.6418 173.578 80.2012 174.075C80.7606 174.573 81.4588 174.956 82.2958 175.225L81.1149 176.99C80.1494 176.667 79.3393 176.18 78.6846 175.53C78.0341 174.875 77.5472 174.108 77.224 173.23C76.9008 172.347 76.7392 171.392 76.7392 170.365V168.599H78.5479V170.365ZM85.3414 179.346H83.0914V167.624H85.3414V179.346ZM87.492 174.137H84.695V172.254H87.492V174.137ZM85.9257 183.343H74.9554V181.534H85.9257V183.343ZM77.2426 182.497H74.9554V178.19H77.2426V182.497ZM93.1048 169.898C93.1007 171.001 92.9308 172.02 92.5952 172.956C92.2595 173.893 91.7478 174.707 91.0599 175.399C90.3762 176.091 89.5309 176.609 88.524 176.953L87.3307 175.163C88.2174 174.877 88.9529 174.465 89.5372 173.926C90.1256 173.387 90.5586 172.776 90.8362 172.093C91.118 171.409 91.2609 170.677 91.2651 169.898V168.45H93.1048V169.898ZM93.5275 169.793C93.5233 170.539 93.6497 171.233 93.9066 171.875C94.1677 172.517 94.5717 173.087 95.1186 173.584C95.6698 174.077 96.3617 174.452 97.1946 174.709L96.0012 176.462C95.0358 176.131 94.2361 175.642 93.6021 174.995C92.9681 174.349 92.4978 173.588 92.1912 172.714C91.8845 171.84 91.7312 170.866 91.7312 169.793V168.45H93.5275V169.793ZM100.967 176.997H98.7298V167.611H100.967V176.997ZM95.4978 177.407C96.6332 177.407 97.6152 177.531 98.4439 177.78C99.2727 178.024 99.9066 178.381 100.346 178.849C100.789 179.313 101.011 179.87 101.011 180.521C101.011 181.171 100.789 181.731 100.346 182.199C99.9066 182.667 99.2727 183.021 98.4439 183.262C97.6152 183.502 96.6332 183.62 95.4978 183.616C94.3624 183.62 93.3825 183.502 92.5579 183.262C91.7374 183.021 91.1055 182.667 90.6622 182.199C90.2188 181.731 89.9992 181.171 90.0033 180.521C89.9992 179.87 90.2188 179.313 90.6622 178.849C91.1055 178.381 91.7395 178.024 92.5641 177.78C93.3887 177.531 94.3666 177.407 95.4978 177.407ZM95.4978 179.147C94.7851 179.147 94.1863 179.199 93.7015 179.302C93.2167 179.406 92.85 179.559 92.6014 179.762C92.3569 179.965 92.2347 180.218 92.2347 180.521C92.2347 180.815 92.359 181.064 92.6076 181.267C92.8604 181.465 93.2271 181.617 93.7077 181.72C94.1925 181.824 94.7892 181.874 95.4978 181.869C96.2064 181.874 96.8051 181.824 97.2941 181.72C97.783 181.617 98.1518 181.465 98.4004 181.267C98.6532 181.064 98.7816 180.815 98.7858 180.521C98.7816 180.218 98.6532 179.965 98.4004 179.762C98.1518 179.559 97.783 179.406 97.2941 179.302C96.8093 179.199 96.2105 179.147 95.4978 179.147ZM99.0344 172.385H95.7278V170.551H99.0344V172.385ZM109.822 169.003H116.249V167.885H118.468V173.267H107.616V167.885H109.822V169.003ZM116.249 171.589V170.626H109.822V171.589H116.249ZM120.345 175.89H105.751V174.144H120.345V175.89ZM118.561 180.869H109.648V182.36H107.448V179.315H116.349V178.47H107.436V176.829H118.561V180.869ZM118.978 183.51H107.448V181.82H118.978V183.51ZM134.069 177.469H131.832V167.636H134.069V177.469ZM132.285 173.131H129.246V171.334H132.285V173.131ZM134.069 183.635H131.832V179.968H123.043V178.215H134.069V183.635ZM122.906 175.113C123.971 175.113 124.845 175.105 125.529 175.088C126.217 175.068 126.894 175.03 127.562 174.977C128.233 174.923 128.91 174.836 129.594 174.715L129.756 176.549C129.026 176.661 128.299 176.746 127.574 176.804C126.853 176.862 126.113 176.901 125.355 176.922C124.601 176.939 123.652 176.947 122.508 176.947H121.209V175.113H122.508H122.906ZM128.438 173.51H123.428V176.419H121.209V171.813H126.25V170.34H121.184V168.55H128.438V173.51ZM147.008 176.63H139.325V168.948H147.008V176.63ZM141.544 174.865H144.795V170.731H141.544V174.865ZM151.545 179.296H149.295V167.624H151.545V179.296ZM153.695 174.081H150.898V172.229H153.695V174.081ZM152.117 183.343H141.165V181.534H152.117V183.343ZM143.403 182.441H141.165V178.14H143.403V182.441ZM168.308 175.629H153.689V173.87H168.308V175.629ZM166.568 172.981H155.511V171.216H166.568V172.981ZM166.444 169.724H157.748V172.72H155.511V167.947H166.444V169.724ZM166.5 180.744H157.587V182.18H155.386V179.147H164.287V178.258H155.374V176.561H166.5V180.744ZM166.916 183.479H155.386V181.745H166.916V183.479ZM181.964 183.622H179.695V167.611H181.964V183.622ZM177.172 169.296C177.168 171.011 176.936 172.569 176.476 173.97C176.016 175.366 175.239 176.648 174.145 177.817C173.055 178.985 171.588 180.005 169.744 180.875L168.576 179.091C170.109 178.362 171.342 177.544 172.274 176.636C173.211 175.729 173.89 174.709 174.313 173.578C174.735 172.443 174.949 171.144 174.953 169.681V169.296H177.172ZM175.985 171.055H169.434V169.296H175.985V171.055Z" fill="#323232"/>
<path d="M105.812 34.0519C108.061 34.0519 109.92 32.2152 109.538 29.9985C108.973 26.728 107.729 23.596 105.868 20.8117C103.25 16.8925 99.5277 13.838 95.173 12.0342C90.8183 10.2304 86.0265 9.75847 81.4036 10.678C76.7807 11.5976 72.5343 13.8673 69.2014 17.2003C65.8684 20.5332 63.5987 24.7796 62.6791 29.4025C61.7596 34.0254 62.2315 38.8172 64.0353 43.1719C65.8391 47.5266 68.8936 51.2486 72.8128 53.8673C75.5971 55.7278 78.7291 56.9719 81.9996 57.5364C84.2163 57.9191 86.053 56.0601 86.053 53.8105L86.053 38.125C86.053 35.8755 87.8766 34.0519 90.1261 34.0519H105.812Z" fill="#323232"/>
<rect x="96.5372" y="44.5839" width="33.196" height="33.196" rx="4.07313" fill="#323232"/>
<path d="M114.255 44.5839H122.402V52.0174C122.402 54.2669 120.578 56.0905 118.329 56.0905V56.0905C116.079 56.0905 114.255 54.2669 114.255 52.0174V44.5839Z" fill="white"/>
<path d="M85.2344 25.8474L85.2344 29.5133C85.2344 31.5378 83.5931 33.1791 81.5686 33.1791L72.6077 33.1791C70.5831 33.1791 68.9418 31.5378 68.9418 29.5133V29.5133C68.9418 27.4887 70.5831 25.8474 72.6077 25.8474L85.2344 25.8474Z" fill="white"/>
<path d="M85.2344 29.5133C85.2344 31.5379 83.5931 33.1791 81.5686 33.1791L77.9027 33.1791L77.9027 20.5524C77.9027 18.5278 79.544 16.8866 81.5686 16.8866V16.8866C83.5931 16.8866 85.2344 18.5278 85.2344 20.5524L85.2344 29.5133Z" fill="white"/>
</svg>
