<svg width="192" height="195" viewBox="0 0 192 195" fill="none" xmlns="http://www.w3.org/2000/svg">
<path d="M13.4109 111.8C16.3709 111.8 18.9576 112.4 21.1709 113.6C23.4109 114.773 25.1309 116.427 26.3309 118.56C27.5309 120.693 28.1309 123.133 28.1309 125.88C28.1309 128.6 27.5176 131.027 26.2909 133.16C25.0909 135.293 23.3709 136.973 21.1309 138.2C18.9176 139.4 16.3443 140 13.4109 140H2.25094V111.8H13.4109ZM12.8109 133.08C15.1043 133.08 16.9043 132.453 18.2109 131.2C19.5176 129.947 20.1709 128.173 20.1709 125.88C20.1709 123.56 19.5176 121.773 18.2109 120.52C16.9043 119.24 15.1043 118.6 12.8109 118.6H10.0909V133.08H12.8109ZM29.585 128.76C29.585 126.44 29.9983 124.413 30.825 122.68C31.6783 120.947 32.825 119.613 34.265 118.68C35.7317 117.747 37.3583 117.28 39.145 117.28C40.6917 117.28 42.025 117.587 43.145 118.2C44.265 118.813 45.1317 119.64 45.745 120.68V117.56H53.585V140H45.745V136.88C45.1317 137.92 44.2517 138.747 43.105 139.36C41.985 139.973 40.665 140.28 39.145 140.28C37.3583 140.28 35.7317 139.813 34.265 138.88C32.825 137.947 31.6783 136.613 30.825 134.88C29.9983 133.12 29.585 131.08 29.585 128.76ZM45.745 128.76C45.745 127.32 45.345 126.187 44.545 125.36C43.7717 124.533 42.8117 124.12 41.665 124.12C40.4917 124.12 39.5183 124.533 38.745 125.36C37.9717 126.16 37.585 127.293 37.585 128.76C37.585 130.2 37.9717 131.347 38.745 132.2C39.5183 133.027 40.4917 133.44 41.665 133.44C42.8117 133.44 43.7717 133.027 44.545 132.2C45.345 131.373 45.745 130.227 45.745 128.76ZM81.4125 117.56L67.1725 150.68H58.6525L64.0125 139.04L54.8125 117.56H63.5325L68.2525 130.28L72.8125 117.56H81.4125ZM100.663 125.52C102.317 125.893 103.623 126.72 104.583 128C105.57 129.253 106.063 130.693 106.063 132.32C106.063 134.72 105.237 136.6 103.583 137.96C101.93 139.32 99.6101 140 96.6234 140H82.6634V111.8H96.1834C99.0634 111.8 101.317 112.44 102.943 113.72C104.597 115 105.423 116.8 105.423 119.12C105.423 120.773 104.983 122.16 104.103 123.28C103.25 124.373 102.103 125.12 100.663 125.52ZM90.5034 123H94.4634C96.4368 123 97.4234 122.187 97.4234 120.56C97.4234 118.88 96.4368 118.04 94.4634 118.04H90.5034V123ZM95.0634 133.68C97.0368 133.68 98.0234 132.853 98.0234 131.2C98.0234 130.347 97.7568 129.693 97.2234 129.24C96.7168 128.787 95.9834 128.56 95.0234 128.56H90.5034V133.68H95.0634ZM116.539 110.4V140H108.699V110.4H116.539ZM130.644 140.28C128.404 140.28 126.391 139.813 124.604 138.88C122.844 137.947 121.457 136.613 120.444 134.88C119.431 133.147 118.924 131.107 118.924 128.76C118.924 126.44 119.431 124.413 120.444 122.68C121.484 120.947 122.884 119.613 124.644 118.68C126.431 117.747 128.444 117.28 130.684 117.28C132.924 117.28 134.924 117.747 136.684 118.68C138.471 119.613 139.871 120.947 140.884 122.68C141.924 124.413 142.444 126.44 142.444 128.76C142.444 131.08 141.924 133.12 140.884 134.88C139.871 136.613 138.471 137.947 136.684 138.88C134.897 139.813 132.884 140.28 130.644 140.28ZM130.644 133.48C131.737 133.48 132.644 133.08 133.364 132.28C134.111 131.453 134.484 130.28 134.484 128.76C134.484 127.24 134.111 126.08 133.364 125.28C132.644 124.48 131.751 124.08 130.684 124.08C129.617 124.08 128.724 124.48 128.004 125.28C127.284 126.08 126.924 127.24 126.924 128.76C126.924 130.307 127.271 131.48 127.964 132.28C128.657 133.08 129.551 133.48 130.644 133.48ZM143.554 128.76C143.554 126.44 144.034 124.413 144.994 122.68C145.954 120.947 147.287 119.613 148.994 118.68C150.727 117.747 152.7 117.28 154.914 117.28C157.767 117.28 160.167 118.067 162.114 119.64C164.06 121.187 165.314 123.36 165.874 126.16H157.554C157.074 124.693 156.14 123.96 154.754 123.96C153.767 123.96 152.98 124.373 152.394 125.2C151.834 126 151.554 127.187 151.554 128.76C151.554 130.333 151.834 131.533 152.394 132.36C152.98 133.187 153.767 133.6 154.754 133.6C156.167 133.6 157.1 132.867 157.554 131.4H165.874C165.314 134.173 164.06 136.347 162.114 137.92C160.167 139.493 157.767 140.28 154.914 140.28C152.7 140.28 150.727 139.813 148.994 138.88C147.287 137.947 145.954 136.613 144.994 134.88C144.034 133.147 143.554 131.107 143.554 128.76ZM182.371 140L176.171 130.8V140H168.331V110.4H176.171V126.36L182.371 117.56H191.771L182.931 128.84L191.931 140H182.371Z" fill="#323232"/>
<path d="M31.6726 175.517H28.8321V173.684H31.6726V175.517ZM29.4101 183.585H27.1664V167.611H29.4101V183.585ZM19.5338 179.079H17.2962V169.146H19.5338V179.079ZM18.6822 177.829C19.9088 177.834 21.1353 177.782 22.3618 177.674C23.5925 177.562 24.8335 177.382 26.0849 177.133L26.321 179.004C25.0697 179.253 23.8121 179.429 22.5483 179.532C21.2886 179.632 19.9999 179.68 18.6822 179.675H17.2962V177.829H18.6822ZM39.7841 176.63H32.1017V168.948H39.7841V176.63ZM34.3207 174.865H37.5714V170.731H34.3207V174.865ZM44.3214 179.296H42.0714V167.624H44.3214V179.296ZM46.4719 174.081H43.675V172.229H46.4719V174.081ZM44.8932 183.343H33.9415V181.534H44.8932V183.343ZM36.1791 182.441H33.9415V178.14H36.1791V182.441ZM51.6373 168.686C52.4784 168.686 53.2347 168.854 53.9059 169.19C54.5813 169.521 55.1117 169.988 55.4971 170.588C55.8824 171.185 56.0772 171.86 56.0813 172.615C56.0772 173.373 55.8824 174.048 55.4971 174.641C55.1159 175.233 54.5876 175.7 53.9121 176.039C53.2367 176.375 52.4784 176.543 51.6373 176.543C50.8086 176.543 50.0544 176.375 49.3749 176.039C48.6994 175.7 48.167 175.233 47.7775 174.641C47.3921 174.044 47.1994 173.369 47.1994 172.615C47.1994 171.865 47.3921 171.191 47.7775 170.595C48.167 169.994 48.6994 169.526 49.3749 169.19C50.0544 168.854 50.8086 168.686 51.6373 168.686ZM51.6373 170.626C51.2146 170.626 50.8376 170.704 50.5061 170.862C50.1746 171.019 49.9115 171.249 49.7167 171.552C49.522 171.854 49.4246 172.209 49.4246 172.615C49.4246 173.025 49.522 173.381 49.7167 173.684C49.9115 173.982 50.1746 174.21 50.5061 174.367C50.8376 174.525 51.2146 174.604 51.6373 174.604C52.0682 174.604 52.4536 174.525 52.7934 174.367C53.1373 174.21 53.4045 173.982 53.5952 173.684C53.7899 173.381 53.8894 173.025 53.8935 172.615C53.8894 172.209 53.7899 171.854 53.5952 171.552C53.4045 171.249 53.1373 171.019 52.7934 170.862C52.4536 170.704 52.0682 170.626 51.6373 170.626ZM59.9039 183.66H57.6725V167.611H59.9039V183.66ZM46.5344 178.563C47.736 178.563 48.8818 178.552 49.9715 178.532C51.0655 178.511 52.205 178.463 53.39 178.389C54.5793 178.31 55.7043 178.196 56.765 178.047L56.9329 179.663C55.8389 179.874 54.7036 180.034 53.5268 180.142C52.3541 180.245 51.2478 180.311 50.2077 180.34C49.1718 180.369 48.0323 180.384 46.7892 180.384L46.5344 178.563ZM69.4238 170.477C69.4196 171.409 69.285 172.3 69.0198 173.149C68.7587 173.994 68.3506 174.751 67.7953 175.418C67.2401 176.085 66.546 176.593 65.7131 176.941L64.5073 175.206C65.2242 174.896 65.8188 174.488 66.2912 173.982C66.7635 173.472 67.1095 172.919 67.3292 172.323C67.5488 171.722 67.6606 171.106 67.6648 170.477V168.593H69.4238V170.477ZM69.8464 170.477C69.8423 171.073 69.9479 171.645 70.1634 172.192C70.3789 172.735 70.7104 173.226 71.1579 173.665C71.6095 174.104 72.1772 174.454 72.8609 174.715L71.6676 176.431C70.8554 176.124 70.1821 175.671 69.6475 175.07C69.1171 174.465 68.7235 173.773 68.4666 172.994C68.2097 172.211 68.0833 171.372 68.0874 170.477V168.593H69.8464V170.477ZM78.4735 177.419H76.3478V167.636H78.4735V177.419ZM76.9383 173.36H74.3526V171.539H76.9383V173.36ZM75.0053 176.916H72.9231V167.916H75.0053V176.916ZM73.0039 177.637C74.1268 177.637 75.1047 177.757 75.9376 177.997C76.7746 178.233 77.4189 178.577 77.8706 179.029C78.3223 179.477 78.5502 180.007 78.5543 180.62C78.5502 181.238 78.3202 181.772 77.8644 182.224C77.4127 182.675 76.7684 183.021 75.9314 183.262C75.0985 183.502 74.1227 183.62 73.0039 183.616C71.881 183.62 70.9031 183.502 70.0702 183.262C69.2373 183.021 68.595 182.675 68.1434 182.224C67.6917 181.772 67.468 181.238 67.4721 180.62C67.468 180.007 67.6917 179.477 68.1434 179.029C68.595 178.577 69.2373 178.233 70.0702 177.997C70.9031 177.757 71.881 177.637 73.0039 177.637ZM73.0039 179.315C72.3036 179.315 71.7069 179.365 71.2138 179.464C70.7249 179.559 70.3519 179.706 70.095 179.905C69.8381 180.1 69.7097 180.338 69.7097 180.62C69.7097 180.906 69.8361 181.146 70.0888 181.341C70.3457 181.536 70.7187 181.683 71.2076 181.782C71.7007 181.878 72.2995 181.925 73.0039 181.925C73.7042 181.925 74.2988 181.878 74.7877 181.782C75.2767 181.683 75.6496 181.536 75.9065 181.341C76.1676 181.146 76.2981 180.906 76.2981 180.62C76.2981 180.338 76.1676 180.1 75.9065 179.905C75.6496 179.706 75.2746 179.559 74.7815 179.464C74.2926 179.365 73.7 179.315 73.0039 179.315ZM85.0746 170.346C85.0705 171.427 84.9006 172.43 84.565 173.354C84.2335 174.274 83.728 175.076 83.0484 175.76C82.373 176.443 81.5401 176.953 80.5498 177.289L79.3005 175.517C80.1789 175.248 80.9103 174.848 81.4945 174.318C82.0829 173.783 82.5139 173.178 82.7873 172.503C83.065 171.823 83.2059 171.104 83.21 170.346V168.599H85.0746V170.346ZM85.4662 170.365C85.4621 171.069 85.5967 171.74 85.8702 172.378C86.1437 173.012 86.5601 173.578 87.1195 174.075C87.6789 174.573 88.3771 174.956 89.2141 175.225L88.0332 176.99C87.0677 176.667 86.2577 176.18 85.603 175.53C84.9524 174.875 84.4655 174.108 84.1423 173.23C83.8191 172.347 83.6575 171.392 83.6575 170.365V168.599H85.4662V170.365ZM92.2597 179.346H90.0097V167.624H92.2597V179.346ZM94.4103 174.137H91.6133V172.254H94.4103V174.137ZM92.844 183.343H81.8737V181.534H92.844V183.343ZM84.161 182.497H81.8737V178.19H84.161V182.497ZM100.023 169.898C100.019 171.001 99.8491 172.02 99.5135 172.956C99.1779 173.893 98.6661 174.707 97.9783 175.399C97.2946 176.091 96.4493 176.609 95.4424 176.953L94.249 175.163C95.1357 174.877 95.8712 174.465 96.4555 173.926C97.0439 173.387 97.4769 172.776 97.7545 172.093C98.0363 171.409 98.1792 170.677 98.1834 169.898V168.45H100.023V169.898ZM100.446 169.793C100.442 170.539 100.568 171.233 100.825 171.875C101.086 172.517 101.49 173.087 102.037 173.584C102.588 174.077 103.28 174.452 104.113 174.709L102.92 176.462C101.954 176.131 101.154 175.642 100.52 174.995C99.8864 174.349 99.4161 173.588 99.1095 172.714C98.8029 171.84 98.6495 170.866 98.6495 169.793V168.45H100.446V169.793ZM107.886 176.997H105.648V167.611H107.886V176.997ZM102.416 177.407C103.551 177.407 104.534 177.531 105.362 177.78C106.191 178.024 106.825 178.381 107.264 178.849C107.708 179.313 107.929 179.87 107.929 180.521C107.929 181.171 107.708 181.731 107.264 182.199C106.825 182.667 106.191 183.021 105.362 183.262C104.534 183.502 103.551 183.62 102.416 183.616C101.281 183.62 100.301 183.502 99.4762 183.262C98.6558 183.021 98.0238 182.667 97.5805 182.199C97.1371 181.731 96.9175 181.171 96.9216 180.521C96.9175 179.87 97.1371 179.313 97.5805 178.849C98.0238 178.381 98.6578 178.024 99.4824 177.78C100.307 177.531 101.285 177.407 102.416 177.407ZM102.416 179.147C101.703 179.147 101.105 179.199 100.62 179.302C100.135 179.406 99.7683 179.559 99.5197 179.762C99.2752 179.965 99.153 180.218 99.153 180.521C99.153 180.815 99.2773 181.064 99.5259 181.267C99.7787 181.465 100.145 181.617 100.626 181.72C101.111 181.824 101.708 181.874 102.416 181.869C103.125 181.874 103.723 181.824 104.212 181.72C104.701 181.617 105.07 181.465 105.319 181.267C105.571 181.064 105.7 180.815 105.704 180.521C105.7 180.218 105.571 179.965 105.319 179.762C105.07 179.559 104.701 179.406 104.212 179.302C103.728 179.199 103.129 179.147 102.416 179.147ZM105.953 172.385H102.646V170.551H105.953V172.385ZM116.741 169.003H123.167V167.885H125.386V173.267H114.534V167.885H116.741V169.003ZM123.167 171.589V170.626H116.741V171.589H123.167ZM127.263 175.89H112.669V174.144H127.263V175.89ZM125.48 180.869H116.567V182.36H114.366V179.315H123.267V178.47H114.354V176.829H125.48V180.869ZM125.896 183.51H114.366V181.82H125.896V183.51ZM140.987 177.469H138.75V167.636H140.987V177.469ZM139.204 173.131H136.164V171.334H139.204V173.131ZM140.987 183.635H138.75V179.968H129.961V178.215H140.987V183.635ZM129.824 175.113C130.889 175.113 131.764 175.105 132.447 175.088C133.135 175.068 133.813 175.03 134.48 174.977C135.151 174.923 135.829 174.836 136.512 174.715L136.674 176.549C135.945 176.661 135.217 176.746 134.492 176.804C133.771 176.862 133.032 176.901 132.273 176.922C131.519 176.939 130.57 176.947 129.427 176.947H128.128V175.113H129.427H129.824ZM135.356 173.51H130.347V176.419H128.128V171.813H133.168V170.34H128.103V168.55H135.356V173.51ZM152.975 177.581C154.139 177.581 155.15 177.701 156.008 177.941C156.866 178.182 157.525 178.53 157.985 178.985C158.449 179.437 158.683 179.978 158.687 180.608C158.683 181.233 158.449 181.774 157.985 182.23C157.525 182.686 156.864 183.032 156.002 183.268C155.14 183.504 154.131 183.62 152.975 183.616C151.823 183.62 150.818 183.502 149.96 183.262C149.107 183.021 148.444 182.673 147.971 182.218C147.503 181.766 147.269 181.229 147.269 180.608C147.269 179.978 147.503 179.437 147.971 178.985C148.444 178.53 149.107 178.184 149.96 177.948C150.814 177.707 151.819 177.585 152.975 177.581ZM152.975 179.253C152.237 179.253 151.612 179.305 151.098 179.408C150.584 179.508 150.19 179.659 149.917 179.862C149.648 180.065 149.515 180.314 149.519 180.608C149.515 180.894 149.648 181.132 149.917 181.323C150.186 181.513 150.578 181.658 151.092 181.758C151.605 181.857 152.233 181.909 152.975 181.913C153.717 181.909 154.346 181.859 154.864 181.764C155.382 181.664 155.778 181.519 156.052 181.329C156.325 181.134 156.462 180.894 156.462 180.608C156.462 180.314 156.325 180.065 156.052 179.862C155.778 179.659 155.38 179.508 154.858 179.408C154.34 179.305 153.712 179.253 152.975 179.253ZM157.655 170.097H147.437V168.338H157.655V170.097ZM160.328 176.574H145.802V174.765H160.328V176.574ZM153.466 175.256H151.247V171.956H153.466V175.256ZM158.606 169.762C158.606 170.296 158.598 170.765 158.581 171.166C158.565 171.564 158.523 172.001 158.457 172.478C158.391 172.95 158.287 173.433 158.146 173.926L155.946 173.715C156.07 173.209 156.161 172.735 156.219 172.291C156.282 171.844 156.319 171.44 156.331 171.079C156.348 170.719 156.356 170.259 156.356 169.7V169.65V168.338H158.606V169.65V169.762ZM166.077 170.445C166.073 171.485 165.901 172.453 165.562 173.348C165.226 174.243 164.716 175.026 164.033 175.698C163.349 176.369 162.506 176.868 161.503 177.195L160.365 175.424C161.223 175.151 161.942 174.757 162.522 174.243C163.102 173.725 163.533 173.141 163.815 172.49C164.097 171.836 164.24 171.154 164.244 170.445V169.389H166.077V170.445ZM166.506 170.433C166.506 171.084 166.637 171.701 166.898 172.285C167.163 172.869 167.571 173.392 168.122 173.852C168.673 174.307 169.365 174.66 170.198 174.908L169.135 176.661C168.153 176.367 167.329 175.911 166.662 175.294C165.999 174.672 165.501 173.949 165.17 173.124C164.843 172.296 164.679 171.398 164.679 170.433V169.389H166.506V170.433ZM169.701 170.483H160.975V168.693H169.701V170.483ZM173.3 177.115H171.05V167.611H173.3V177.115ZM175.45 173.162H172.666V171.334H175.45V173.162ZM168.048 177.425C169.158 177.425 170.12 177.548 170.932 177.792C171.744 178.032 172.365 178.385 172.796 178.849C173.231 179.313 173.449 179.866 173.449 180.508C173.449 181.155 173.231 181.71 172.796 182.174C172.361 182.642 171.738 183.001 170.925 183.249C170.113 183.498 169.154 183.62 168.048 183.616C166.929 183.62 165.957 183.498 165.133 183.249C164.308 183.001 163.674 182.642 163.231 182.174C162.792 181.71 162.572 181.155 162.572 180.508C162.572 179.866 162.792 179.313 163.231 178.849C163.674 178.385 164.306 178.032 165.126 177.792C165.951 177.548 166.925 177.425 168.048 177.425ZM168.048 179.172C167.347 179.168 166.757 179.215 166.276 179.315C165.796 179.41 165.431 179.559 165.182 179.762C164.938 179.961 164.816 180.21 164.816 180.508C164.816 180.811 164.938 181.064 165.182 181.267C165.431 181.465 165.796 181.617 166.276 181.72C166.757 181.824 167.347 181.874 168.048 181.869C168.748 181.874 169.334 181.824 169.807 181.72C170.279 181.617 170.635 181.465 170.876 181.267C171.116 181.064 171.236 180.811 171.236 180.508C171.236 180.21 171.116 179.961 170.876 179.762C170.635 179.559 170.279 179.41 169.807 179.315C169.334 179.215 168.748 179.168 168.048 179.172Z" fill="#323232"/>
<path fill-rule="evenodd" clip-rule="evenodd" d="M112.206 22.4198C115.199 26.8997 116.797 32.1667 116.797 37.5547H103.182C103.18 37.5547 103.178 37.5547 103.176 37.5547H95.0031V23.9336C95.0031 22.429 93.7835 21.2094 92.2789 21.2094C90.7744 21.2094 89.5547 22.429 89.5547 23.9336V37.5547V40.2789V64.7969C84.1667 64.7969 78.8997 63.1992 74.4198 60.2058C69.9398 57.2123 66.4481 52.9577 64.3862 47.9798C62.3243 43.002 61.7848 37.5245 62.836 32.24C63.8871 26.9555 66.4817 22.1015 70.2916 18.2916C74.1015 14.4817 78.9555 11.8871 84.24 10.836C89.5245 9.78482 95.002 10.3243 99.9798 12.3862C104.958 14.4481 109.212 17.9398 112.206 22.4198Z" fill="url(#paint0_linear_341_3532)"/>
<rect x="94.5333" y="42.5333" width="35.2" height="35.2" rx="7.33333" fill="url(#paint1_linear_341_3532)"/>
<defs>
<linearGradient id="paint0_linear_341_3532" x1="62.3341" y1="64.7753" x2="116.789" y2="10.3208" gradientUnits="userSpaceOnUse">
<stop/>
<stop offset="1" stop-color="#5F626B"/>
</linearGradient>
<linearGradient id="paint1_linear_341_3532" x1="94.5473" y1="77.7194" x2="129.728" y2="42.5387" gradientUnits="userSpaceOnUse">
<stop/>
<stop offset="1" stop-color="#5F626B"/>
</linearGradient>
</defs>
</svg>
