<svg width="375" height="256" viewBox="0 0 375 256" fill="none" xmlns="http://www.w3.org/2000/svg">
<rect x="39" y="136" width="88" height="88" rx="12.7111" fill="#F4F5F7"/>
<path d="M51.0665 151.42H49.5353V152.986H48.1097V151.42H46.5785V150.073H48.1097V148.498H49.5353V150.073H51.0665V151.42Z" fill="#01C7FC"/>
<path d="M53.0321 152.617C53.2316 152.458 53.3225 152.385 53.3049 152.397C53.8798 151.921 54.3316 151.531 54.6601 151.226C54.9945 150.921 55.2761 150.601 55.5049 150.267C55.7337 149.933 55.8481 149.607 55.8481 149.29C55.8481 149.05 55.7924 148.862 55.6809 148.727C55.5694 148.592 55.4022 148.525 55.1793 148.525C54.9564 148.525 54.7804 148.61 54.6513 148.78C54.5281 148.944 54.4665 149.179 54.4665 149.484H53.0145C53.0262 148.985 53.1318 148.569 53.3313 148.234C53.5366 147.9 53.8036 147.653 54.1321 147.495C54.4665 147.337 54.8361 147.257 55.2409 147.257C55.939 147.257 56.4641 147.436 56.8161 147.794C57.174 148.152 57.3529 148.619 57.3529 149.193C57.3529 149.821 57.1388 150.405 56.7105 150.945C56.2822 151.479 55.7366 152.001 55.0737 152.511H57.4497V153.734H53.0321V152.617ZM57.9538 148.797V147.398H60.3914V153.822H58.825V148.797H57.9538ZM62.2744 153.893C62.0104 153.893 61.7934 153.816 61.6232 153.664C61.459 153.505 61.3768 153.312 61.3768 153.083C61.3768 152.848 61.459 152.652 61.6232 152.493C61.7934 152.335 62.0104 152.256 62.2744 152.256C62.5326 152.256 62.7438 152.335 62.908 152.493C63.0782 152.652 63.1632 152.848 63.1632 153.083C63.1632 153.312 63.0782 153.505 62.908 153.664C62.7438 153.816 62.5326 153.893 62.2744 153.893ZM63.9044 150.522C63.9044 149.513 64.098 148.718 64.4852 148.137C64.8783 147.557 65.509 147.266 66.3772 147.266C67.2455 147.266 67.8732 147.557 68.2604 148.137C68.6535 148.718 68.85 149.513 68.85 150.522C68.85 151.543 68.6535 152.344 68.2604 152.925C67.8732 153.505 67.2455 153.796 66.3772 153.796C65.509 153.796 64.8783 153.505 64.4852 152.925C64.098 152.344 63.9044 151.543 63.9044 150.522ZM67.3716 150.522C67.3716 149.93 67.3071 149.475 67.178 149.158C67.049 148.836 66.782 148.674 66.3772 148.674C65.9724 148.674 65.7055 148.836 65.5764 149.158C65.4474 149.475 65.3828 149.93 65.3828 150.522C65.3828 150.921 65.4063 151.253 65.4532 151.517C65.5002 151.775 65.594 151.986 65.7348 152.15C65.8815 152.309 66.0956 152.388 66.3772 152.388C66.6588 152.388 66.87 152.309 67.0108 152.15C67.1575 151.986 67.2543 151.775 67.3012 151.517C67.3482 151.253 67.3716 150.921 67.3716 150.522Z" fill="#323232"/>
<path d="M101.578 136H111.356V146.267C111.356 148.697 109.386 150.667 106.956 150.667H105.978C103.548 150.667 101.578 148.697 101.578 146.267V136Z" fill="#01C7FC"/>
<path d="M69.3661 207.183H68.3273V202.89H69.3661V207.183ZM70.3591 205.475H69.0734V204.634H70.3591V205.475ZM67.3056 203.38C67.3056 204.033 67.1726 204.62 66.9067 205.142C66.6426 205.663 66.2543 206.109 65.7415 206.48C65.2288 206.851 64.605 207.139 63.8704 207.344L63.4571 206.508C64.0445 206.35 64.5429 206.14 64.9523 205.88C65.3636 205.62 65.6736 205.321 65.8821 204.985C66.0926 204.646 66.1988 204.282 66.2007 203.894V203.38H67.3056ZM66.8349 204.21H63.8044V203.38H66.8349V204.21ZM66.9497 207.269C67.4491 207.269 67.8863 207.33 68.2612 207.453C68.6382 207.575 68.929 207.75 69.1337 207.978C69.3403 208.206 69.4446 208.471 69.4465 208.776C69.4446 209.082 69.3413 209.349 69.1366 209.576C68.9318 209.806 68.641 209.981 68.2641 210.102C67.8891 210.224 67.451 210.285 66.9497 210.285C66.4523 210.285 66.0151 210.224 65.6382 210.102C65.2613 209.981 64.9686 209.806 64.76 209.576C64.5515 209.349 64.4482 209.082 64.4501 208.776C64.4482 208.471 64.5515 208.206 64.76 207.978C64.9686 207.75 65.2613 207.575 65.6382 207.453C66.017 207.33 66.4542 207.269 66.9497 207.269ZM66.9497 208.075C66.6417 208.075 66.3777 208.102 66.1576 208.156C65.9376 208.207 65.7683 208.287 65.6497 208.394C65.5311 208.499 65.4727 208.626 65.4746 208.776C65.4727 208.923 65.5311 209.05 65.6497 209.157C65.7683 209.263 65.9376 209.343 66.1576 209.398C66.3777 209.454 66.6417 209.481 66.9497 209.479C67.2578 209.481 67.5218 209.454 67.7418 209.398C67.9637 209.343 68.1331 209.263 68.2498 209.157C68.3665 209.05 68.4248 208.923 68.4248 208.776C68.4248 208.626 68.3665 208.499 68.2498 208.394C68.1331 208.287 67.9637 208.207 67.7418 208.156C67.5218 208.102 67.2578 208.075 66.9497 208.075ZM72.6748 203.412C73.0498 203.412 73.3846 203.52 73.6792 203.736C73.9758 203.95 74.2063 204.257 74.3709 204.655C74.5373 205.053 74.6215 205.515 74.6234 206.041C74.6215 206.573 74.5373 207.038 74.3709 207.438C74.2063 207.836 73.9758 208.143 73.6792 208.36C73.3846 208.574 73.0498 208.681 72.6748 208.681C72.2998 208.681 71.964 208.574 71.6675 208.36C71.3728 208.143 71.1413 207.836 70.973 207.438C70.8065 207.038 70.7242 206.573 70.7261 206.041C70.7242 205.515 70.8065 205.053 70.973 204.655C71.1413 204.257 71.3728 203.95 71.6675 203.736C71.964 203.52 72.2998 203.412 72.6748 203.412ZM72.6748 204.347C72.4873 204.347 72.3218 204.413 72.1783 204.546C72.0348 204.676 71.9238 204.868 71.8454 205.122C71.7669 205.377 71.7277 205.683 71.7277 206.041C71.7277 206.402 71.7669 206.71 71.8454 206.965C71.9238 207.219 72.0338 207.412 72.1754 207.545C72.3189 207.677 72.4854 207.743 72.6748 207.743C72.8699 207.743 73.0383 207.677 73.1799 207.545C73.3234 207.412 73.4343 207.22 73.5128 206.968C73.5912 206.713 73.6304 206.404 73.6304 206.041C73.6304 205.681 73.5912 205.375 73.5128 205.122C73.4343 204.868 73.3234 204.676 73.1799 204.546C73.0364 204.413 72.868 204.347 72.6748 204.347ZM76.5146 210.282H75.4786V202.89H76.5146V210.282ZM77.6052 206.543H76.2851V205.679H77.6052V206.543ZM80.5149 204.904C80.513 205.486 80.4307 206.041 80.2681 206.569C80.1055 207.095 79.8654 207.563 79.5478 207.972C79.2321 208.38 78.8514 208.685 78.4056 208.888L77.8173 208.075C78.2114 207.899 78.5481 207.643 78.8274 207.306C79.1087 206.97 79.3201 206.594 79.4617 206.178C79.6033 205.761 79.675 205.337 79.6769 204.904V204.046H80.5149V204.904ZM80.7302 204.904C80.7302 205.319 80.8 205.722 80.9397 206.112C81.0812 206.503 81.2907 206.856 81.5682 207.171C81.8475 207.485 82.1861 207.725 82.5841 207.892L82.0273 208.704C81.5701 208.511 81.1826 208.222 80.865 207.837C80.5494 207.451 80.3112 207.007 80.1504 206.506C79.9916 206.002 79.9132 205.469 79.9151 204.904V204.046H80.7302V204.904ZM82.277 204.451H78.1071V203.604H82.277V204.451ZM84.0535 210.282H83.006V202.89H84.0535V210.282ZM89.5129 204.152C89.511 204.652 89.4325 205.115 89.2775 205.541C89.1245 205.966 88.8911 206.336 88.5773 206.652C88.2654 206.968 87.8809 207.203 87.4236 207.358L86.8468 206.54C87.2524 206.416 87.5901 206.231 87.8598 205.986C88.1315 205.739 88.3305 205.46 88.4568 205.148C88.5849 204.834 88.65 204.502 88.6519 204.152V203.346H89.5129V204.152ZM89.6937 204.161C89.6918 204.486 89.7539 204.796 89.8802 205.091C90.0065 205.384 90.1988 205.645 90.4571 205.874C90.7153 206.104 91.0377 206.281 91.4242 206.405L90.8789 207.22C90.4331 207.071 90.0591 206.846 89.7568 206.546C89.4564 206.244 89.2316 205.89 89.0824 205.484C88.9332 205.076 88.8585 204.635 88.8585 204.161V203.346H89.6937V204.161ZM92.8304 208.308H91.7915V202.895H92.8304V208.308ZM93.8234 205.903H92.532V205.033H93.8234V205.903ZM93.1002 210.153H88.0349V209.318H93.1002V210.153ZM89.091 209.763H88.0349V207.774H89.091V209.763ZM96.2826 204.58C96.2806 204.984 96.2213 205.361 96.1046 205.711C95.9879 206.061 95.8052 206.369 95.5565 206.635C95.3097 206.901 94.9988 207.105 94.6238 207.249L94.1502 206.486C94.4506 206.371 94.7013 206.216 94.9021 206.021C95.105 205.824 95.2551 205.603 95.3527 205.358C95.4503 205.111 95.5 204.852 95.5019 204.58V204.333H96.2826V204.58ZM96.4806 204.58C96.4787 204.832 96.5274 205.075 96.6269 205.306C96.7264 205.538 96.8776 205.745 97.0804 205.929C97.2851 206.112 97.5376 206.253 97.838 206.351L97.3702 207.128C96.9971 206.996 96.6872 206.803 96.4404 206.549C96.1936 206.292 96.0099 205.997 95.8894 205.662C95.7708 205.327 95.7114 204.966 95.7114 204.58V204.333H96.4806V204.58ZM97.6142 204.543H94.354V203.733H97.6142V204.543ZM96.4806 204.106H95.5019V202.967H96.4806V204.106ZM100.498 207.418H99.5169V202.901H100.498V207.418ZM99.7895 205.587H98.5957V204.755H99.7895V205.587ZM98.9257 207.395H97.9471V203.019H98.9257V207.395ZM100.498 210.282H99.4681V208.563H95.3929V207.731H100.498V210.282Z" fill="#323232"/>
<path d="M71.2667 175.95C71.2667 178.218 72.4233 179.959 73.9247 179.959C75.4262 179.959 76.594 178.218 76.594 175.95C76.594 173.694 75.4262 171.942 73.9247 171.942C72.4233 171.942 71.2667 173.694 71.2667 175.95ZM76.6606 169.342C76.6606 171.598 77.8396 173.339 79.3298 173.339C80.8424 173.339 82.0102 171.587 82.0102 169.342C82.0102 167.074 80.8424 165.333 79.3298 165.333C77.8396 165.333 76.6606 167.074 76.6606 169.342ZM83.9342 169.342C83.9342 171.587 85.0909 173.339 86.6034 173.339C88.0937 173.339 89.2726 171.598 89.2726 169.342C89.2726 167.074 88.0937 165.333 86.6034 165.333C85.0909 165.333 83.9342 167.074 83.9342 169.342ZM89.3393 175.95C89.3393 178.218 90.5071 179.959 92.0085 179.959C93.51 179.959 94.6666 178.218 94.6666 175.95C94.6666 173.694 93.51 171.942 92.0085 171.942C90.5071 171.942 89.3393 173.694 89.3393 175.95ZM74.6032 184.814C74.6032 187.128 76.1157 188.777 78.34 188.777C79.4411 188.777 80.2419 188.456 81.0092 188.182C81.632 187.953 82.2326 187.746 82.9666 187.746C83.6895 187.746 84.2901 187.953 84.924 188.182C85.6914 188.456 86.4811 188.777 87.5821 188.777C89.8176 188.777 91.3301 187.128 91.3301 184.814C91.3301 182.845 90.1846 181.848 89.0835 180.921C88.4719 180.417 87.8824 179.936 87.482 179.294C87.1484 178.779 86.8704 178.218 86.6368 177.691C85.836 175.927 85.2021 174.267 82.9666 174.267C80.7201 174.267 80.0973 175.927 79.2965 177.679C79.0518 178.218 78.7849 178.767 78.4624 179.271C78.0509 179.913 77.4503 180.417 76.8497 180.921C75.7487 181.848 74.6032 182.856 74.6032 184.814Z" fill="#323232"/>
<rect x="143" y="32" width="88" height="88" rx="12.7111" fill="#F4F5F7"/>
<path d="M155.067 47.4199H153.535V48.9863H152.11V47.4199H150.579V46.0735H152.11V44.4983H153.535V46.0735H155.067V47.4199Z" fill="#FECB3E"/>
<path d="M156.926 44.7975V43.3983H159.364V49.8223H157.798V44.7975H156.926ZM160.341 48.6167C160.54 48.4583 160.631 48.3849 160.613 48.3967C161.188 47.9215 161.64 47.5313 161.969 47.2263C162.303 46.9212 162.585 46.6015 162.813 46.2671C163.042 45.9327 163.157 45.6071 163.157 45.2903C163.157 45.0497 163.101 44.862 162.989 44.7271C162.878 44.5921 162.711 44.5247 162.488 44.5247C162.265 44.5247 162.089 44.6097 161.96 44.7799C161.837 44.9441 161.775 45.1788 161.775 45.4839H160.323C160.335 44.9852 160.44 44.5687 160.64 44.2343C160.845 43.8999 161.112 43.6535 161.441 43.4951C161.775 43.3367 162.145 43.2575 162.549 43.2575C163.248 43.2575 163.773 43.4364 164.125 43.7943C164.483 44.1521 164.661 44.6185 164.661 45.1935C164.661 45.8212 164.447 46.4049 164.019 46.9447C163.591 47.4785 163.045 48.0007 162.382 48.5111H164.758V49.7343H160.341V48.6167ZM166.274 49.8927C166.01 49.8927 165.793 49.8164 165.623 49.6639C165.459 49.5055 165.377 49.3119 165.377 49.0831C165.377 48.8484 165.459 48.6519 165.623 48.4935C165.793 48.3351 166.01 48.2559 166.274 48.2559C166.533 48.2559 166.744 48.3351 166.908 48.4935C167.078 48.6519 167.163 48.8484 167.163 49.0831C167.163 49.3119 167.078 49.5055 166.908 49.6639C166.744 49.8164 166.533 49.8927 166.274 49.8927ZM172.428 44.7095H169.682V45.9239C169.799 45.7948 169.964 45.6892 170.175 45.6071C170.386 45.5249 170.615 45.4839 170.861 45.4839C171.301 45.4839 171.665 45.5836 171.952 45.7831C172.246 45.9825 172.46 46.2407 172.595 46.5575C172.73 46.8743 172.797 47.2175 172.797 47.5871C172.797 48.2735 172.604 48.8191 172.216 49.2239C171.829 49.6228 171.284 49.8223 170.58 49.8223C170.11 49.8223 169.703 49.7431 169.356 49.5847C169.01 49.4204 168.743 49.1945 168.556 48.9071C168.368 48.6196 168.265 48.2881 168.248 47.9127H169.717C169.752 48.0945 169.837 48.2471 169.972 48.3703C170.107 48.4876 170.292 48.5463 170.527 48.5463C170.803 48.5463 171.008 48.4583 171.143 48.2823C171.278 48.1063 171.345 47.8716 171.345 47.5783C171.345 47.2908 171.275 47.0708 171.134 46.9183C170.993 46.7657 170.788 46.6895 170.518 46.6895C170.319 46.6895 170.154 46.7393 170.025 46.8391C169.896 46.9329 169.811 47.0591 169.77 47.2175H168.318V43.3895H172.428V44.7095Z" fill="#323232"/>
<path d="M205.578 32H215.356V42.2667C215.356 44.6967 213.386 46.6667 210.956 46.6667H209.978C207.548 46.6667 205.578 44.6967 205.578 42.2667V32Z" fill="#FECB3E"/>
<path d="M173.688 104.21H172.649V98.9011H173.688V104.21ZM173.883 106.153H168.737V105.318H173.883V106.153ZM169.785 105.662H168.737V103.674H169.785V105.662ZM169.638 99.3689C170.013 99.3689 170.355 99.4483 170.663 99.6071C170.973 99.7659 171.216 99.9878 171.392 100.273C171.568 100.558 171.656 100.877 171.656 101.231C171.656 101.591 171.568 101.913 171.392 102.199C171.216 102.484 170.973 102.707 170.663 102.867C170.355 103.026 170.013 103.105 169.638 103.105C169.263 103.105 168.921 103.026 168.611 102.867C168.303 102.707 168.06 102.484 167.882 102.199C167.706 101.913 167.618 101.591 167.618 101.231C167.618 100.877 167.706 100.559 167.882 100.276C168.06 99.9907 168.303 99.7687 168.611 99.6099C168.921 99.4492 169.263 99.3689 169.638 99.3689ZM169.638 100.27C169.445 100.27 169.272 100.309 169.119 100.388C168.966 100.464 168.845 100.575 168.757 100.721C168.671 100.866 168.629 101.036 168.631 101.231C168.629 101.432 168.671 101.606 168.757 101.754C168.845 101.899 168.965 102.011 169.116 102.089C169.269 102.166 169.443 102.204 169.638 102.204C169.828 102.204 169.997 102.166 170.146 102.089C170.297 102.011 170.416 101.899 170.502 101.754C170.59 101.606 170.634 101.432 170.634 101.231C170.634 101.036 170.59 100.866 170.502 100.721C170.416 100.575 170.297 100.464 170.146 100.388C169.995 100.309 169.826 100.27 169.638 100.27ZM181.436 103.369H174.68V102.543H181.436V103.369ZM178.658 104.644H177.633V103.065H178.658V104.644ZM180.572 101.94H175.521V99.2139H180.572V101.94ZM176.534 101.134H179.553V100.02H176.534V101.134ZM180.693 106.153H175.472V105.318H180.693V106.153ZM176.505 105.596H175.472V104.001H176.505V105.596ZM186.254 100.368H181.869V99.5554H186.254V100.368ZM184.064 100.606C184.418 100.608 184.732 100.665 185.006 100.778C185.281 100.891 185.495 101.051 185.649 101.257C185.803 101.464 185.881 101.701 185.881 101.969C185.881 102.237 185.803 102.473 185.649 102.678C185.495 102.883 185.281 103.042 185.006 103.157C184.732 103.272 184.418 103.329 184.064 103.329C183.708 103.329 183.392 103.272 183.114 103.157C182.837 103.042 182.62 102.883 182.463 102.678C182.308 102.471 182.231 102.235 182.231 101.969C182.231 101.703 182.308 101.467 182.463 101.26C182.62 101.052 182.837 100.891 183.114 100.778C183.392 100.665 183.708 100.608 184.064 100.606ZM184.064 101.384C183.898 101.384 183.752 101.406 183.628 101.452C183.504 101.496 183.407 101.562 183.338 101.65C183.271 101.738 183.238 101.845 183.238 101.969C183.238 102.093 183.271 102.198 183.338 102.282C183.407 102.366 183.504 102.43 183.628 102.474C183.752 102.518 183.898 102.54 184.064 102.54C184.231 102.54 184.376 102.518 184.501 102.474C184.627 102.43 184.724 102.366 184.793 102.282C184.864 102.196 184.899 102.091 184.899 101.969C184.899 101.845 184.864 101.738 184.793 101.65C184.724 101.562 184.627 101.496 184.501 101.452C184.376 101.406 184.231 101.384 184.064 101.384ZM187.732 103.527H186.693V98.8896H187.732V103.527ZM188.725 101.656H187.439V100.812H188.725V101.656ZM187.732 106.282H186.693V104.664H182.759V103.837H187.732V106.282ZM184.581 100.015H183.548V98.8552H184.581V100.015ZM197.709 103.295H190.97V102.471H197.709V103.295ZM194.853 102.744H193.814V101.272H194.853V102.744ZM196.905 106.302H195.883V104.621H191.716V103.806H196.905V106.302ZM196.983 101.814H191.785V100.982H196.983V101.814ZM196.911 100.006H192.821V101.438H191.785V99.1909H196.911V100.006ZM203.876 102.052H201.913V101.217H203.876V102.052ZM200.733 100.566C200.731 101.197 200.656 101.79 200.506 102.345C200.359 102.9 200.132 103.391 199.826 103.82C199.522 104.249 199.145 104.574 198.696 104.796L198.047 103.955C198.454 103.769 198.797 103.501 199.074 103.148C199.352 102.796 199.557 102.399 199.691 101.957C199.825 101.514 199.893 101.05 199.895 100.566V99.4607H200.733V100.566ZM200.948 100.566C200.946 101.05 201.011 101.506 201.141 101.935C201.273 102.363 201.472 102.745 201.738 103.08C202.005 103.412 202.337 103.665 202.733 103.837L202.108 104.661C201.66 104.445 201.288 104.133 200.991 103.725C200.695 103.318 200.475 102.847 200.331 102.313C200.188 101.778 200.117 101.195 200.119 100.566V99.4607H200.948V100.566ZM204.384 106.3H203.359V98.8896H204.384V106.3Z" fill="#323232"/>
<g clip-path="url(#clip0_64_3034)">
<path d="M184.293 68.3307C183.885 68.3307 183.544 67.9912 183.544 67.5861C183.544 67.1699 183.885 66.8414 184.293 66.8414H192.789C193.196 66.8414 193.537 67.1699 193.537 67.5861C193.537 67.9912 193.196 68.3307 192.789 68.3307H184.293ZM184.293 71.4406C183.885 71.4406 183.544 71.1011 183.544 70.685C183.544 70.2798 183.885 69.9513 184.293 69.9513H190.742C191.16 69.9513 191.49 70.2798 191.49 70.685C191.49 71.1011 191.16 71.4406 190.742 71.4406H184.293ZM181.09 84.8H195.342C195.827 84.8 196.223 84.4168 196.223 83.924C196.223 83.5407 195.959 83.2013 195.607 83.0808C194.22 82.5333 193.934 80.7484 195.298 79.3796C195.717 78.9635 196.223 78.4269 196.223 77.3319V64.7718C196.223 62.4941 195.089 61.3334 192.811 61.3334H181.123C178.845 61.3334 177.711 62.4832 177.711 64.7718V81.4164C177.711 83.6721 178.856 84.8 181.09 84.8ZM181.189 83.037C180.077 83.037 179.483 82.4457 179.483 81.4054C179.483 80.4199 180.187 79.7847 181.288 79.7847H192.58C192.723 79.7847 192.855 79.7738 192.965 79.7519C192.448 80.8907 192.536 82.0953 193.119 83.037H181.189ZM180.859 78.1203C180.518 78.1203 180.231 77.8356 180.231 77.4852V63.6549C180.231 63.3044 180.518 63.0307 180.859 63.0307C181.2 63.0307 181.497 63.3044 181.497 63.6549V77.4852C181.497 77.8356 181.2 78.1203 180.859 78.1203Z" fill="#323232"/>
</g>
<rect x="247" y="32" width="88" height="88" rx="12.7111" fill="#F4F5F7"/>
<path d="M259.067 47.4199H257.535V48.9863H256.11V47.4199H254.579V46.0735H256.11V44.4983H257.535V46.0735H259.067V47.4199Z" fill="#76BB40"/>
<path d="M261.138 45.2111C261.161 44.5833 261.367 44.0993 261.754 43.7591C262.141 43.4188 262.666 43.2487 263.329 43.2487C263.769 43.2487 264.144 43.3249 264.455 43.4775C264.772 43.63 265.01 43.8383 265.168 44.1023C265.332 44.3663 265.415 44.6625 265.415 44.9911C265.415 45.3783 265.318 45.6951 265.124 45.9415C264.931 46.182 264.705 46.3463 264.447 46.4343V46.4695C264.781 46.5809 265.045 46.7657 265.239 47.0239C265.432 47.282 265.529 47.6135 265.529 48.0183C265.529 48.382 265.444 48.7047 265.274 48.9863C265.109 49.262 264.866 49.4791 264.543 49.6375C264.227 49.7959 263.848 49.8751 263.408 49.8751C262.704 49.8751 262.141 49.702 261.719 49.3559C261.302 49.0097 261.082 48.4876 261.059 47.7895H262.519C262.525 48.0476 262.599 48.2529 262.739 48.4055C262.88 48.5521 263.085 48.6255 263.355 48.6255C263.584 48.6255 263.76 48.5609 263.883 48.4319C264.012 48.2969 264.077 48.1209 264.077 47.9039C264.077 47.6223 263.986 47.4199 263.804 47.2967C263.628 47.1676 263.344 47.1031 262.951 47.1031H262.669V45.8799H262.951C263.25 45.8799 263.49 45.83 263.672 45.7303C263.86 45.6247 263.954 45.4399 263.954 45.1759C263.954 44.9647 263.895 44.8004 263.778 44.6831C263.66 44.5657 263.499 44.5071 263.294 44.5071C263.071 44.5071 262.904 44.5745 262.792 44.7095C262.687 44.8444 262.625 45.0116 262.607 45.2111H261.138ZM269.59 45.1319C269.543 44.9148 269.461 44.7535 269.343 44.6479C269.226 44.5364 269.059 44.4807 268.842 44.4807C268.507 44.4807 268.267 44.6273 268.12 44.9207C267.974 45.2081 267.897 45.6657 267.891 46.2935C268.02 46.0881 268.205 45.9268 268.446 45.8095C268.692 45.6921 268.962 45.6335 269.255 45.6335C269.83 45.6335 270.291 45.8153 270.637 46.1791C270.989 46.5428 271.165 47.0503 271.165 47.7015C271.165 48.1297 271.077 48.5052 270.901 48.8279C270.731 49.1505 270.479 49.4028 270.144 49.5847C269.816 49.7665 269.426 49.8575 268.974 49.8575C268.07 49.8575 267.443 49.5759 267.091 49.0127C266.739 48.4436 266.563 47.6281 266.563 46.5663C266.563 45.4516 266.747 44.6244 267.117 44.0847C267.492 43.5391 268.091 43.2663 268.912 43.2663C269.352 43.2663 269.722 43.3543 270.021 43.5303C270.326 43.7004 270.555 43.9263 270.707 44.2079C270.866 44.4895 270.96 44.7975 270.989 45.1319H269.59ZM268.895 46.8215C268.642 46.8215 268.431 46.8977 268.261 47.0503C268.097 47.1969 268.015 47.4081 268.015 47.6839C268.015 47.9655 268.091 48.1855 268.243 48.3439C268.402 48.5023 268.625 48.5815 268.912 48.5815C269.17 48.5815 269.373 48.5052 269.519 48.3527C269.672 48.1943 269.748 47.9801 269.748 47.7103C269.748 47.4345 269.675 47.2175 269.528 47.0591C269.382 46.9007 269.17 46.8215 268.895 46.8215ZM272.87 49.8927C272.606 49.8927 272.389 49.8164 272.219 49.6639C272.054 49.5055 271.972 49.3119 271.972 49.0831C271.972 48.8484 272.054 48.6519 272.219 48.4935C272.389 48.3351 272.606 48.2559 272.87 48.2559C273.128 48.2559 273.339 48.3351 273.503 48.4935C273.673 48.6519 273.759 48.8484 273.759 49.0831C273.759 49.3119 273.673 49.5055 273.503 49.6639C273.339 49.8164 273.128 49.8927 272.87 49.8927ZM274.5 46.5223C274.5 45.5132 274.693 44.7183 275.081 44.1375C275.474 43.5567 276.104 43.2663 276.973 43.2663C277.841 43.2663 278.469 43.5567 278.856 44.1375C279.249 44.7183 279.445 45.5132 279.445 46.5223C279.445 47.5431 279.249 48.3439 278.856 48.9247C278.469 49.5055 277.841 49.7959 276.973 49.7959C276.104 49.7959 275.474 49.5055 275.081 48.9247C274.693 48.3439 274.5 47.5431 274.5 46.5223ZM277.967 46.5223C277.967 45.9297 277.902 45.4751 277.773 45.1583C277.644 44.8356 277.377 44.6743 276.973 44.6743C276.568 44.6743 276.301 44.8356 276.172 45.1583C276.043 45.4751 275.978 45.9297 275.978 46.5223C275.978 46.9212 276.002 47.2527 276.049 47.5167C276.095 47.7748 276.189 47.986 276.33 48.1503C276.477 48.3087 276.691 48.3879 276.973 48.3879C277.254 48.3879 277.465 48.3087 277.606 48.1503C277.753 47.986 277.85 47.7748 277.897 47.5167C277.943 47.2527 277.967 46.9212 277.967 46.5223Z" fill="#323232"/>
<path d="M309.578 32H319.356V42.2667C319.356 44.6967 317.386 46.6667 314.956 46.6667H313.978C311.548 46.6667 309.578 44.6967 309.578 42.2667V32Z" fill="#96D35F"/>
<path d="M278.272 100.566C278.27 101.214 278.191 101.818 278.034 102.376C277.877 102.935 277.638 103.429 277.316 103.857C276.997 104.284 276.6 104.605 276.125 104.822L275.5 103.961C275.915 103.785 276.267 103.523 276.556 103.174C276.845 102.824 277.061 102.426 277.205 101.98C277.348 101.533 277.421 101.061 277.423 100.566V99.4607H278.272V100.566ZM278.473 100.566C278.471 101.034 278.54 101.482 278.68 101.909C278.819 102.335 279.029 102.717 279.308 103.054C279.589 103.389 279.933 103.641 280.338 103.811L279.727 104.641C279.268 104.432 278.88 104.123 278.565 103.714C278.249 103.304 278.013 102.832 277.856 102.296C277.699 101.76 277.622 101.184 277.624 100.566V99.4607H278.473V100.566ZM281.779 106.3H280.732V98.8896H281.779V106.3ZM289.005 103.361H287.972V98.8896H289.005V103.361ZM288.394 101.906H287.016V101.062H288.394V101.906ZM289.005 106.199H284.04V103.671H289.005V106.199ZM285.076 105.37H287.992V104.486H285.076V105.37ZM287.148 100.362H282.795V99.5382H287.148V100.362ZM284.979 100.606C285.319 100.606 285.624 100.662 285.894 100.775C286.164 100.888 286.373 101.046 286.523 101.249C286.674 101.45 286.749 101.678 286.749 101.935C286.749 102.197 286.674 102.429 286.523 102.632C286.373 102.833 286.164 102.99 285.894 103.103C285.626 103.214 285.321 103.269 284.979 103.269C284.634 103.269 284.327 103.214 284.057 103.103C283.79 102.99 283.579 102.833 283.426 102.632C283.275 102.429 283.199 102.197 283.199 101.935C283.199 101.678 283.276 101.45 283.429 101.249C283.584 101.046 283.795 100.888 284.063 100.775C284.331 100.662 284.636 100.606 284.979 100.606ZM284.979 101.386C284.816 101.384 284.676 101.406 284.56 101.45C284.443 101.492 284.352 101.554 284.287 101.636C284.224 101.718 284.193 101.818 284.195 101.935C284.193 102.057 284.224 102.16 284.287 102.244C284.352 102.327 284.443 102.391 284.56 102.437C284.676 102.483 284.816 102.505 284.979 102.503C285.136 102.505 285.272 102.483 285.389 102.437C285.506 102.391 285.596 102.326 285.659 102.242C285.724 102.157 285.756 102.055 285.756 101.935C285.756 101.818 285.724 101.718 285.659 101.636C285.596 101.554 285.506 101.492 285.389 101.45C285.272 101.406 285.136 101.384 284.979 101.386ZM285.487 100.135H284.462V98.8322H285.487V100.135ZM295.205 103.493C295.743 103.493 296.209 103.548 296.605 103.659C297.001 103.77 297.306 103.931 297.518 104.141C297.732 104.35 297.84 104.6 297.842 104.89C297.84 105.179 297.732 105.429 297.518 105.64C297.306 105.85 297 106.01 296.603 106.119C296.205 106.228 295.739 106.281 295.205 106.279C294.673 106.281 294.209 106.227 293.813 106.116C293.419 106.005 293.113 105.844 292.895 105.634C292.678 105.425 292.57 105.177 292.57 104.89C292.57 104.6 292.678 104.35 292.895 104.141C293.113 103.931 293.419 103.771 293.813 103.662C294.207 103.551 294.671 103.495 295.205 103.493ZM295.205 104.265C294.864 104.265 294.575 104.289 294.338 104.337C294.101 104.383 293.919 104.452 293.793 104.546C293.669 104.64 293.607 104.755 293.609 104.89C293.607 105.022 293.669 105.133 293.793 105.221C293.917 105.309 294.098 105.375 294.335 105.421C294.573 105.467 294.862 105.491 295.205 105.493C295.547 105.491 295.838 105.468 296.077 105.424C296.316 105.378 296.499 105.311 296.625 105.223C296.752 105.133 296.815 105.022 296.815 104.89C296.815 104.755 296.752 104.64 296.625 104.546C296.499 104.452 296.316 104.383 296.074 104.337C295.835 104.289 295.545 104.265 295.205 104.265ZM297.366 100.038H292.648V99.2254H297.366V100.038ZM298.6 103.028H291.893V102.193H298.6V103.028ZM295.432 102.42H294.407V100.896H295.432V102.42ZM297.805 99.8826C297.805 100.129 297.801 100.346 297.793 100.531C297.786 100.715 297.767 100.917 297.736 101.137C297.705 101.355 297.658 101.578 297.593 101.805L296.577 101.708C296.634 101.474 296.676 101.255 296.703 101.051C296.732 100.844 296.749 100.657 296.755 100.491C296.762 100.325 296.766 100.112 296.766 99.8539V99.8309V99.2254H297.805V99.8309V99.8826ZM305.809 103.966H299.053V103.154H305.809V103.966ZM302.922 106.282H301.897V103.553H302.922V106.282ZM300.867 100.029H303.972V99.1795H305.008V102.44H299.845V99.1795H300.867V100.029ZM303.972 101.613V100.841H300.867V101.613H303.972Z" fill="#323232"/>
<path d="M280.962 83.7594H282.816C283.591 83.7594 284.023 83.3233 284.023 82.5673V66.1976C284.023 65.432 283.591 64.9958 282.816 64.9958H280.962C280.177 64.9958 279.756 65.432 279.756 66.1976V82.5673C279.756 83.3233 280.177 83.7594 280.962 83.7594ZM286.377 83.7594H290.35C291.134 83.7594 291.556 83.3233 291.556 82.5673V69.5026C291.556 68.7466 291.134 68.3105 290.35 68.3105H286.377C285.592 68.3105 285.16 68.7466 285.16 69.5026V82.5673C285.16 83.3233 285.592 83.7594 286.377 83.7594ZM287.309 71.7705C286.956 71.7705 286.691 71.5088 286.691 71.1696C286.691 70.8401 286.956 70.5784 287.309 70.5784H289.437C289.781 70.5784 290.036 70.8401 290.036 71.1696C290.036 71.5088 289.781 71.7705 289.437 71.7705H287.309ZM287.309 81.5012C286.956 81.5012 286.691 81.2395 286.691 80.9003C286.691 80.5708 286.956 80.3091 287.309 80.3091H289.437C289.781 80.3091 290.036 80.5708 290.036 80.9003C290.036 81.2395 289.781 81.5012 289.437 81.5012H287.309ZM293.91 83.7594H296.333C297.118 83.7594 297.54 83.3233 297.54 82.5673V63.513C297.54 62.7473 297.118 62.3112 296.333 62.3112H293.91C293.126 62.3112 292.704 62.7473 292.704 63.513V82.5673C292.704 83.3233 293.126 83.7594 293.91 83.7594ZM300.581 83.8079L302.16 83.585C302.925 83.488 303.298 83.0228 303.209 82.2572L301.336 66.1783C301.248 65.4223 300.787 65.0249 300.002 65.1315L298.432 65.3544C297.657 65.4513 297.285 65.9166 297.373 66.6725L299.256 82.7514C299.345 83.5074 299.806 83.9048 300.581 83.8079Z" fill="#323232"/>
<rect x="247" y="136" width="88" height="88" rx="12.7111" fill="#F4F5F7"/>
<path d="M259.067 151.42H257.535V152.986H256.11V151.42H254.579V150.073H256.11V148.498H257.535V150.073H259.067V151.42Z" fill="#D357FE"/>
<path d="M260.927 148.797V147.398H263.364V153.822H261.798V148.797H260.927ZM268.494 148.525L266.285 153.822H264.745L266.981 148.692H264.244V147.407H268.494V148.525ZM269.956 153.893C269.692 153.893 269.475 153.816 269.305 153.664C269.141 153.505 269.059 153.312 269.059 153.083C269.059 152.848 269.141 152.652 269.305 152.493C269.475 152.335 269.692 152.256 269.956 152.256C270.215 152.256 270.426 152.335 270.59 152.493C270.76 152.652 270.845 152.848 270.845 153.083C270.845 153.312 270.76 153.505 270.59 153.664C270.426 153.816 270.215 153.893 269.956 153.893ZM276.11 148.709H273.364V149.924C273.481 149.795 273.646 149.689 273.857 149.607C274.068 149.525 274.297 149.484 274.543 149.484C274.983 149.484 275.347 149.584 275.634 149.783C275.928 149.983 276.142 150.241 276.277 150.557C276.412 150.874 276.479 151.217 276.479 151.587C276.479 152.273 276.286 152.819 275.898 153.224C275.511 153.623 274.966 153.822 274.262 153.822C273.792 153.822 273.385 153.743 273.038 153.585C272.692 153.42 272.425 153.195 272.238 152.907C272.05 152.62 271.947 152.288 271.93 151.913H273.399C273.434 152.095 273.52 152.247 273.654 152.37C273.789 152.488 273.974 152.546 274.209 152.546C274.485 152.546 274.69 152.458 274.825 152.282C274.96 152.106 275.027 151.872 275.027 151.578C275.027 151.291 274.957 151.071 274.816 150.918C274.675 150.766 274.47 150.689 274.2 150.689C274.001 150.689 273.836 150.739 273.707 150.839C273.578 150.933 273.493 151.059 273.452 151.217H272V147.389H276.11V148.709Z" fill="#323232"/>
<path d="M309.578 136H319.356V146.267C319.356 148.697 317.386 150.667 314.956 150.667H313.978C311.548 150.667 309.578 148.697 309.578 146.267V136Z" fill="#D357FE"/>
<path d="M273.699 210.3H272.657V202.89H273.699V210.3ZM272.915 206.31H271.334V205.47H272.915V206.31ZM270.008 204.746C270.006 205.359 269.929 205.938 269.776 206.486C269.622 207.031 269.391 207.517 269.081 207.943C268.773 208.368 268.398 208.691 267.956 208.911L267.339 208.093C267.739 207.907 268.078 207.64 268.355 207.292C268.632 206.942 268.84 206.549 268.978 206.112C269.115 205.676 269.185 205.221 269.187 204.746V204.043H270.008V204.746ZM270.246 204.746C270.244 205.196 270.312 205.63 270.45 206.049C270.588 206.466 270.795 206.842 271.073 207.177C271.35 207.512 271.689 207.765 272.089 207.938L271.48 208.758C271.029 208.548 270.65 208.239 270.344 207.831C270.038 207.424 269.809 206.957 269.658 206.431C269.507 205.905 269.431 205.343 269.431 204.746V204.043H270.246V204.746ZM271.782 204.439H267.652V203.604H271.782V204.439ZM276.077 206.431H275.053V203.297H276.077V206.431ZM275.633 206.253C276.264 206.253 276.81 206.239 277.271 206.21C277.734 206.179 278.201 206.123 278.672 206.041L278.798 206.876C278.316 206.971 277.833 207.036 277.349 207.068C276.865 207.101 276.293 207.117 275.633 207.117H275.053V206.253H275.633ZM280.864 210.282H279.831V208.451H275.773V207.619H280.864V210.282ZM280.864 207.309H279.831V202.89H280.864V207.309ZM280.081 204.434H278.023V203.653H280.081V204.434ZM280.081 205.731H278.023V204.95H280.081V205.731ZM286.35 203.94C286.348 204.418 286.268 204.865 286.111 205.28C285.955 205.693 285.716 206.055 285.397 206.365C285.079 206.675 284.69 206.905 284.229 207.054L283.709 206.242C284.107 206.113 284.439 205.93 284.705 205.691C284.973 205.451 285.17 205.182 285.296 204.881C285.425 204.581 285.49 204.267 285.492 203.94V203.231H286.35V203.94ZM286.565 203.94C286.563 204.259 286.624 204.562 286.749 204.847C286.873 205.132 287.065 205.386 287.325 205.61C287.586 205.834 287.911 206.004 288.301 206.121L287.79 206.936C287.331 206.791 286.946 206.572 286.634 206.279C286.324 205.984 286.09 205.639 285.933 205.243C285.779 204.845 285.702 204.411 285.704 203.94V203.231H286.565V203.94ZM289.92 210.282H288.881V208.449H284.843V207.619H289.92V210.282ZM289.92 207.301H288.881V202.89H289.92V207.301ZM293.444 204.566C293.442 205.191 293.365 205.78 293.214 206.331C293.065 206.88 292.836 207.367 292.528 207.791C292.222 208.216 291.844 208.54 291.395 208.764L290.76 207.923C291.162 207.738 291.502 207.47 291.779 207.12C292.056 206.768 292.262 206.374 292.396 205.937C292.532 205.499 292.601 205.042 292.603 204.566V203.461H293.444V204.566ZM293.639 204.566C293.637 205.025 293.7 205.464 293.828 205.883C293.958 206.302 294.154 206.68 294.416 207.016C294.679 207.351 295.001 207.611 295.384 207.797L294.758 208.621C294.324 208.406 293.96 208.095 293.667 207.685C293.375 207.274 293.158 206.803 293.016 206.273C292.876 205.741 292.807 205.172 292.809 204.566V203.461H293.639V204.566ZM296.747 210.282H295.711V202.89H296.747V210.282ZM297.837 206.615H296.517V205.739H297.837V206.615ZM303.589 203.854C303.588 204.25 303.475 204.614 303.251 204.947C303.027 205.28 302.697 205.56 302.261 205.785C301.826 206.009 301.304 206.155 300.694 206.222L300.321 205.409C300.83 205.352 301.262 205.243 301.618 205.082C301.974 204.92 302.239 204.732 302.413 204.52C302.587 204.305 302.674 204.083 302.674 203.854V203.673H303.589V203.854ZM304.092 203.854C304.09 204.082 304.177 204.303 304.353 204.517C304.529 204.731 304.795 204.92 305.151 205.082C305.508 205.243 305.943 205.352 306.454 205.409L306.072 206.222C305.462 206.155 304.938 206.009 304.502 205.785C304.066 205.561 303.734 205.283 303.506 204.95C303.281 204.617 303.168 204.252 303.168 203.854V203.673H304.092V203.854ZM306.149 204.026H300.631V203.211H306.149V204.026ZM306.766 207.401H300.011V206.572H306.766V207.401ZM303.988 208.672H302.964V207.097H303.988V208.672ZM306.023 210.153H300.803V209.318H306.023V210.153ZM301.836 209.608H300.803V208.018H301.836V209.608ZM313.384 210.3H312.337V202.89H313.384V210.3ZM308.606 205.277H310.198V203.484H311.217V208.569H307.57V203.484H308.606V205.277ZM310.198 207.728V206.084H308.606V207.728H310.198Z" fill="#323232"/>
<path d="M286.576 190.091C287.528 190.091 288.118 189.569 288.107 188.659L287.88 176.197C287.88 175.808 288.05 175.52 288.402 175.364C289.899 174.721 290.545 174.044 290.466 172.102L290.148 165.288C290.126 164.799 289.831 164.522 289.366 164.522C288.923 164.522 288.651 164.811 288.651 165.31L288.731 171.935C288.731 172.324 288.481 172.568 288.107 172.568C287.721 172.568 287.449 172.335 287.449 171.969L287.336 165.11C287.324 164.633 287.041 164.356 286.576 164.356C286.111 164.356 285.839 164.633 285.827 165.11L285.714 171.969C285.714 172.335 285.442 172.568 285.056 172.568C284.682 172.568 284.421 172.324 284.421 171.935L284.5 165.31C284.5 164.811 284.24 164.522 283.786 164.522C283.321 164.522 283.026 164.799 283.003 165.288L282.697 172.102C282.607 174.044 283.253 174.721 284.75 175.364C285.102 175.52 285.272 175.808 285.272 176.197L285.056 188.659C285.045 189.569 285.623 190.091 286.576 190.091ZM295.444 180.414L295.206 188.604C295.172 189.569 295.773 190.091 296.715 190.091C297.679 190.091 298.268 189.614 298.268 188.726V165.188C298.268 164.622 297.871 164.356 297.463 164.356C297.032 164.356 296.749 164.578 296.386 165.099C294.56 167.607 293.358 172.301 293.358 176.741V177.284C293.358 178.05 293.641 178.616 294.208 178.982L294.877 179.426C295.286 179.704 295.467 180.014 295.444 180.414Z" fill="#323232"/>
<rect x="39" y="32" width="88" height="88" rx="12.7111" fill="#F4F5F7"/>
<path d="M51.0665 47.4199H49.5353V48.9863H48.1097V47.4199H46.5785V46.0735H48.1097V44.4983H49.5353V46.0735H51.0665V47.4199Z" fill="#FF4015"/>
<path d="M53.1377 45.2111C53.1612 44.5833 53.3665 44.0993 53.7537 43.7591C54.1409 43.4188 54.666 43.2487 55.3289 43.2487C55.7689 43.2487 56.1444 43.3249 56.4553 43.4775C56.7721 43.63 57.0097 43.8383 57.1681 44.1023C57.3324 44.3663 57.4145 44.6625 57.4145 44.9911C57.4145 45.3783 57.3177 45.6951 57.1241 45.9415C56.9305 46.182 56.7046 46.3463 56.4465 46.4343V46.4695C56.7809 46.5809 57.0449 46.7657 57.2385 47.0239C57.4321 47.282 57.5289 47.6135 57.5289 48.0183C57.5289 48.382 57.4438 48.7047 57.2737 48.9863C57.1094 49.262 56.866 49.4791 56.5433 49.6375C56.2265 49.7959 55.8481 49.8751 55.4081 49.8751C54.7041 49.8751 54.1409 49.702 53.7185 49.3559C53.302 49.0097 53.082 48.4876 53.0585 47.7895H54.5193C54.5252 48.0476 54.5985 48.2529 54.7393 48.4055C54.8801 48.5521 55.0854 48.6255 55.3553 48.6255C55.5841 48.6255 55.7601 48.5609 55.8833 48.4319C56.0124 48.2969 56.0769 48.1209 56.0769 47.9039C56.0769 47.6223 55.986 47.4199 55.8041 47.2967C55.6281 47.1676 55.3436 47.1031 54.9505 47.1031H54.6689V45.8799H54.9505C55.2497 45.8799 55.4902 45.83 55.6721 45.7303C55.8598 45.6247 55.9537 45.4399 55.9537 45.1759C55.9537 44.9647 55.895 44.8004 55.7777 44.6831C55.6604 44.5657 55.499 44.5071 55.2937 44.5071C55.0708 44.5071 54.9036 44.5745 54.7921 44.7095C54.6865 44.8444 54.6249 45.0116 54.6073 45.2111H53.1377ZM59.2666 49.8927C59.0026 49.8927 58.7856 49.8164 58.6154 49.6639C58.4512 49.5055 58.369 49.3119 58.369 49.0831C58.369 48.8484 58.4512 48.6519 58.6154 48.4935C58.7856 48.3351 59.0026 48.2559 59.2666 48.2559C59.5248 48.2559 59.736 48.3351 59.9002 48.4935C60.0704 48.6519 60.1554 48.8484 60.1554 49.0831C60.1554 49.3119 60.0704 49.5055 59.9002 49.6639C59.736 49.8164 59.5248 49.8927 59.2666 49.8927ZM65.4198 44.7095H62.6742V45.9239C62.7915 45.7948 62.9558 45.6892 63.167 45.6071C63.3782 45.5249 63.607 45.4839 63.8534 45.4839C64.2934 45.4839 64.6571 45.5836 64.9446 45.7831C65.2379 45.9825 65.4521 46.2407 65.587 46.5575C65.7219 46.8743 65.7894 47.2175 65.7894 47.5871C65.7894 48.2735 65.5958 48.8191 65.2086 49.2239C64.8214 49.6228 64.2758 49.8223 63.5718 49.8223C63.1025 49.8223 62.6947 49.7431 62.3486 49.5847C62.0025 49.4204 61.7355 49.1945 61.5478 48.9071C61.3601 48.6196 61.2574 48.2881 61.2398 47.9127H62.7094C62.7446 48.0945 62.8297 48.2471 62.9646 48.3703C63.0995 48.4876 63.2843 48.5463 63.519 48.5463C63.7947 48.5463 64.0001 48.4583 64.135 48.2823C64.2699 48.1063 64.3374 47.8716 64.3374 47.5783C64.3374 47.2908 64.267 47.0708 64.1262 46.9183C63.9854 46.7657 63.7801 46.6895 63.5102 46.6895C63.3107 46.6895 63.1465 46.7393 63.0174 46.8391C62.8883 46.9329 62.8033 47.0591 62.7622 47.2175H61.3102V43.3895H65.4198V44.7095Z" fill="#323232"/>
<path d="M101.578 32H111.356V42.2667C111.356 44.6967 109.386 46.6667 106.956 46.6667H105.978C103.548 46.6667 101.578 44.6967 101.578 42.2667V32Z" fill="#FF4015"/>
<path d="M73.0501 100.342H68.3665V99.5124H73.0501V100.342ZM74.3358 105.427H67.5974V104.583H74.3358V105.427ZM73.6614 100.307C73.6595 100.707 73.6528 101.056 73.6413 101.355C73.6298 101.651 73.5992 102 73.5495 102.399C73.4997 102.797 73.4251 103.23 73.3256 103.697L72.3126 103.596C72.4101 103.141 72.4828 102.712 72.5307 102.31C72.5804 101.909 72.611 101.559 72.6225 101.26C72.634 100.962 72.6407 100.611 72.6426 100.207V100.164V99.5124H73.6614V100.164V100.307ZM68.2689 102.325L68.1254 101.444L72.8377 101.286V102.069L68.2689 102.325ZM71.0355 104.888H70.0081V102.801H71.0355V104.888ZM80.7984 103.143H75.5753V102.313H80.7984V103.143ZM81.536 105.381H74.7803V104.529H81.536V105.381ZM80.7468 100.347H76.5969V102.663H75.5753V99.5095H80.7468V100.347ZM86.4042 100.127C86.4023 100.601 86.3238 101.044 86.1689 101.455C86.0158 101.867 85.7824 102.225 85.4686 102.531C85.1548 102.838 84.7703 103.065 84.3149 103.214L83.7668 102.417C84.1628 102.288 84.4948 102.105 84.7626 101.866C85.0324 101.626 85.2314 101.358 85.3596 101.059C85.4897 100.761 85.5557 100.45 85.5576 100.127V99.6472H86.4042V100.127ZM86.6022 100.135C86.6022 100.437 86.6634 100.728 86.7859 101.008C86.9083 101.287 87.0977 101.539 87.3541 101.765C87.6124 101.989 87.9348 102.164 88.3213 102.29L87.7961 103.088C87.3484 102.943 86.9724 102.723 86.6682 102.428C86.364 102.132 86.1363 101.787 85.9852 101.395C85.834 101.003 85.7585 100.583 85.7585 100.135V99.6472H86.6022V100.135ZM88.0773 100.152H84.048V99.3258H88.0773V100.152ZM89.739 103.349H88.7001V98.8896H89.739V103.349ZM90.7319 101.547H89.4462V100.686H90.7319V101.547ZM89.739 106.282H88.7001V104.492H84.7655V103.665H89.739V106.282ZM93.656 99.9457C93.6541 100.455 93.5757 100.925 93.4207 101.358C93.2657 101.79 93.0294 102.166 92.7118 102.486C92.3961 102.805 92.0058 103.044 91.5409 103.203L90.9899 102.376C91.3993 102.244 91.7389 102.054 92.0087 101.805C92.2804 101.557 92.4803 101.274 92.6085 100.959C92.7386 100.643 92.8046 100.305 92.8065 99.9457V99.277H93.656V99.9457ZM93.8512 99.8969C93.8492 100.241 93.9076 100.562 94.0262 100.858C94.1468 101.155 94.3333 101.418 94.5858 101.648C94.8403 101.875 95.1598 102.048 95.5444 102.167L94.9934 102.976C94.5476 102.823 94.1783 102.597 93.8856 102.299C93.5929 102.001 93.3757 101.649 93.2341 101.246C93.0926 100.842 93.0218 100.392 93.0218 99.8969V99.277H93.8512V99.8969ZM97.2864 103.223H96.2532V98.8896H97.2864V103.223ZM94.7609 103.412C95.2851 103.412 95.7386 103.47 96.1212 103.585C96.5039 103.698 96.7966 103.862 96.9994 104.078C97.2041 104.293 97.3065 104.55 97.3065 104.85C97.3065 105.151 97.2041 105.409 96.9994 105.625C96.7966 105.841 96.5039 106.005 96.1212 106.116C95.7386 106.227 95.2851 106.281 94.7609 106.279C94.2367 106.281 93.7842 106.227 93.4035 106.116C93.0246 106.005 92.7329 105.841 92.5282 105.625C92.3234 105.409 92.222 105.151 92.224 104.85C92.222 104.55 92.3234 104.293 92.5282 104.078C92.7329 103.862 93.0256 103.698 93.4063 103.585C93.7871 103.47 94.2386 103.412 94.7609 103.412ZM94.7609 104.216C94.4318 104.216 94.1554 104.24 93.9315 104.288C93.7077 104.336 93.5383 104.406 93.4236 104.5C93.3107 104.594 93.2542 104.711 93.2542 104.85C93.2542 104.986 93.3116 105.101 93.4264 105.195C93.5431 105.287 93.7125 105.356 93.9344 105.404C94.1582 105.452 94.4337 105.475 94.7609 105.473C95.0881 105.475 95.3645 105.452 95.5903 105.404C95.8161 105.356 95.9863 105.287 96.1011 105.195C96.2178 105.101 96.2771 104.986 96.2791 104.85C96.2771 104.711 96.2178 104.594 96.1011 104.5C95.9863 104.406 95.8161 104.336 95.5903 104.288C95.3664 104.24 95.09 104.216 94.7609 104.216ZM96.3939 101.094H94.8671V100.247H96.3939V101.094Z" fill="#323232"/>
<path d="M95.3695 66.9746V79.576C95.3695 81.7003 94.2633 82.7624 92.0297 82.7624H73.6287C71.4057 82.7624 70.2889 81.7003 70.2889 79.576V66.9746C70.2889 64.8503 71.4057 63.7778 73.6287 63.7778H92.0297C94.2633 63.7778 95.3695 64.8503 95.3695 66.9746ZM80.0425 72.275C79.6489 72.275 79.3405 72.5844 79.3405 72.9659C79.3405 73.3475 79.6489 73.6568 80.0425 73.6568H84.2226C84.6268 73.6568 84.9352 73.3475 84.9352 72.9659C84.9352 72.5844 84.6268 72.275 84.2226 72.275H80.0425ZM74.7136 68.6967L77.3515 70.2332L74.7136 71.7903C73.8521 72.2853 74.5754 73.564 75.5326 72.9865L78.681 71.0685C79.3086 70.6869 79.2766 69.7795 78.681 69.4082L75.5326 67.5005C74.5754 66.923 73.8415 68.1811 74.7136 68.6967Z" fill="#323232"/>
<rect x="143" y="136" width="88" height="88" rx="12.7111" fill="#F4F5F7"/>
<path d="M155.067 151.42H153.535V152.986H152.11V151.42H150.579V150.073H152.11V148.498H153.535V150.073H155.067V151.42Z" fill="#0061FD"/>
<path d="M158.141 150.373C157.589 150.079 157.314 149.619 157.314 148.991C157.314 148.674 157.396 148.387 157.56 148.129C157.724 147.865 157.974 147.656 158.308 147.504C158.642 147.345 159.053 147.266 159.54 147.266C160.027 147.266 160.435 147.345 160.763 147.504C161.098 147.656 161.347 147.865 161.511 148.129C161.676 148.387 161.758 148.674 161.758 148.991C161.758 149.308 161.681 149.584 161.529 149.818C161.382 150.053 161.183 150.238 160.93 150.373C161.247 150.525 161.491 150.736 161.661 151.006C161.831 151.27 161.916 151.581 161.916 151.939C161.916 152.356 161.81 152.716 161.599 153.021C161.388 153.321 161.101 153.549 160.737 153.708C160.379 153.866 159.98 153.945 159.54 153.945C159.1 153.945 158.698 153.866 158.334 153.708C157.977 153.549 157.692 153.321 157.481 153.021C157.27 152.716 157.164 152.356 157.164 151.939C157.164 151.575 157.249 151.261 157.419 150.997C157.589 150.728 157.83 150.519 158.141 150.373ZM160.297 149.22C160.297 148.979 160.226 148.795 160.086 148.665C159.951 148.531 159.769 148.463 159.54 148.463C159.311 148.463 159.126 148.531 158.986 148.665C158.851 148.8 158.783 148.988 158.783 149.229C158.783 149.457 158.854 149.639 158.994 149.774C159.135 149.903 159.317 149.968 159.54 149.968C159.763 149.968 159.945 149.9 160.086 149.765C160.226 149.631 160.297 149.449 160.297 149.22ZM159.54 151.024C159.264 151.024 159.041 151.1 158.871 151.253C158.701 151.399 158.616 151.605 158.616 151.869C158.616 152.115 158.698 152.317 158.862 152.476C159.033 152.634 159.258 152.713 159.54 152.713C159.822 152.713 160.042 152.634 160.2 152.476C160.364 152.317 160.446 152.115 160.446 151.869C160.446 151.611 160.361 151.405 160.191 151.253C160.027 151.1 159.81 151.024 159.54 151.024ZM163.645 153.893C163.381 153.893 163.164 153.816 162.994 153.664C162.829 153.505 162.747 153.312 162.747 153.083C162.747 152.848 162.829 152.652 162.994 152.493C163.164 152.335 163.381 152.256 163.645 152.256C163.903 152.256 164.114 152.335 164.278 152.493C164.448 152.652 164.534 152.848 164.534 153.083C164.534 153.312 164.448 153.505 164.278 153.664C164.114 153.816 163.903 153.893 163.645 153.893ZM169.798 148.709H167.052V149.924C167.17 149.795 167.334 149.689 167.545 149.607C167.756 149.525 167.985 149.484 168.232 149.484C168.672 149.484 169.035 149.584 169.323 149.783C169.616 149.983 169.83 150.241 169.965 150.557C170.1 150.874 170.168 151.217 170.168 151.587C170.168 152.273 169.974 152.819 169.587 153.224C169.2 153.623 168.654 153.822 167.95 153.822C167.481 153.822 167.073 153.743 166.727 153.585C166.381 153.42 166.114 153.195 165.926 152.907C165.738 152.62 165.636 152.288 165.618 151.913H167.088C167.123 152.095 167.208 152.247 167.343 152.37C167.478 152.488 167.662 152.546 167.897 152.546C168.173 152.546 168.378 152.458 168.513 152.282C168.648 152.106 168.716 151.872 168.716 151.578C168.716 151.291 168.645 151.071 168.504 150.918C168.364 150.766 168.158 150.689 167.888 150.689C167.689 150.689 167.525 150.739 167.396 150.839C167.266 150.933 167.181 151.059 167.14 151.217H165.688V147.389H169.798V148.709Z" fill="#323232"/>
<path d="M205.578 136H215.356V146.267C215.356 148.697 213.386 150.667 210.956 150.667H209.978C207.548 150.667 205.578 148.697 205.578 146.267V136Z" fill="#0061FD"/>
<path d="M175.334 203.469C175.332 203.942 175.208 204.38 174.961 204.784C174.716 205.185 174.361 205.525 173.896 205.803C173.433 206.078 172.89 206.261 172.266 206.351L171.859 205.516C172.396 205.449 172.859 205.31 173.248 205.099C173.636 204.889 173.929 204.64 174.126 204.353C174.325 204.066 174.425 203.772 174.427 203.469V203.111H175.334V203.469ZM175.515 203.469C175.515 203.772 175.614 204.066 175.813 204.353C176.014 204.64 176.309 204.889 176.697 205.099C177.087 205.31 177.553 205.449 178.095 205.516L177.69 206.351C177.061 206.261 176.512 206.078 176.046 205.803C175.581 205.527 175.225 205.187 174.978 204.784C174.731 204.38 174.609 203.942 174.611 203.469V203.111H175.515V203.469ZM175.457 210.282H174.433V207.565H175.457V210.282ZM178.336 207.754H171.597V206.91H178.336V207.754ZM184.288 204.689H182.086V203.868H184.288V204.689ZM184.288 206.339H182.086V205.513H184.288V206.339ZM180.838 203.291C181.202 203.291 181.532 203.369 181.828 203.524C182.125 203.677 182.359 203.892 182.531 204.17C182.703 204.445 182.79 204.755 182.792 205.099C182.79 205.442 182.703 205.751 182.531 206.026C182.359 206.302 182.125 206.517 181.828 206.672C181.532 206.827 181.202 206.905 180.838 206.905C180.469 206.905 180.134 206.827 179.834 206.672C179.535 206.517 179.3 206.302 179.128 206.026C178.955 205.751 178.87 205.442 178.872 205.099C178.87 204.755 178.954 204.445 179.125 204.17C179.297 203.892 179.533 203.677 179.834 203.524C180.134 203.369 180.469 203.291 180.838 203.291ZM180.838 204.178C180.645 204.176 180.474 204.212 180.324 204.284C180.177 204.355 180.061 204.461 179.977 204.603C179.895 204.743 179.854 204.908 179.854 205.099C179.854 205.287 179.896 205.45 179.98 205.59C180.064 205.73 180.18 205.839 180.327 205.917C180.476 205.994 180.647 206.031 180.838 206.029C181.024 206.031 181.19 205.994 181.337 205.917C181.485 205.839 181.599 205.73 181.682 205.59C181.764 205.449 181.806 205.285 181.808 205.099C181.806 204.908 181.764 204.743 181.682 204.603C181.601 204.461 181.488 204.355 181.34 204.284C181.193 204.212 181.025 204.176 180.838 204.178ZM185.005 207.223H183.972V202.89H185.005V207.223ZM182.48 207.372C182.998 207.372 183.449 207.43 183.831 207.545C184.216 207.657 184.51 207.824 184.715 208.044C184.922 208.264 185.025 208.525 185.025 208.827C185.025 209.13 184.922 209.39 184.715 209.608C184.509 209.828 184.214 209.995 183.831 210.11C183.449 210.225 182.998 210.281 182.48 210.279C181.961 210.281 181.511 210.225 181.128 210.11C180.747 209.995 180.453 209.828 180.247 209.608C180.042 209.39 179.941 209.13 179.943 208.827C179.941 208.525 180.042 208.264 180.247 208.044C180.453 207.824 180.747 207.657 181.128 207.545C181.511 207.43 181.961 207.372 182.48 207.372ZM182.48 208.164C182.15 208.164 181.872 208.188 181.644 208.236C181.419 208.284 181.247 208.359 181.131 208.46C181.014 208.559 180.957 208.682 180.959 208.827C180.957 208.971 181.014 209.09 181.131 209.186C181.247 209.28 181.419 209.352 181.644 209.401C181.872 209.451 182.15 209.475 182.48 209.473C182.814 209.475 183.095 209.451 183.32 209.401C183.548 209.352 183.72 209.28 183.837 209.186C183.954 209.09 184.012 208.971 184.012 208.827C184.012 208.68 183.954 208.557 183.837 208.457C183.72 208.358 183.548 208.284 183.32 208.236C183.095 208.188 182.814 208.164 182.48 208.164ZM193.739 207.183H192.7V202.89H193.739V207.183ZM194.732 205.475H193.446V204.634H194.732V205.475ZM191.678 203.38C191.678 204.033 191.545 204.62 191.279 205.142C191.015 205.663 190.627 206.109 190.114 206.48C189.602 206.851 188.978 207.139 188.243 207.344L187.83 206.508C188.417 206.35 188.916 206.14 189.325 205.88C189.736 205.62 190.046 205.321 190.255 204.985C190.465 204.646 190.572 204.282 190.573 203.894V203.38H191.678ZM191.208 204.21H188.177V203.38H191.208V204.21ZM191.323 207.269C191.822 207.269 192.259 207.33 192.634 207.453C193.011 207.575 193.302 207.75 193.506 207.978C193.713 208.206 193.817 208.471 193.819 208.776C193.817 209.082 193.714 209.349 193.509 209.576C193.305 209.806 193.014 209.981 192.637 210.102C192.262 210.224 191.824 210.285 191.323 210.285C190.825 210.285 190.388 210.224 190.011 210.102C189.634 209.981 189.341 209.806 189.133 209.576C188.924 209.349 188.821 209.082 188.823 208.776C188.821 208.471 188.924 208.206 189.133 207.978C189.341 207.75 189.634 207.575 190.011 207.453C190.39 207.33 190.827 207.269 191.323 207.269ZM191.323 208.075C191.015 208.075 190.75 208.102 190.53 208.156C190.31 208.207 190.141 208.287 190.022 208.394C189.904 208.499 189.846 208.626 189.847 208.776C189.846 208.923 189.904 209.05 190.022 209.157C190.141 209.263 190.31 209.343 190.53 209.398C190.75 209.454 191.015 209.481 191.323 209.479C191.631 209.481 191.895 209.454 192.115 209.398C192.337 209.343 192.506 209.263 192.623 209.157C192.739 209.05 192.798 208.923 192.798 208.776C192.798 208.626 192.739 208.499 192.623 208.394C192.506 208.287 192.337 208.207 192.115 208.156C191.895 208.102 191.631 208.075 191.323 208.075ZM196.873 207.952H199.915V207.324H200.945V210.199H195.848V207.324H196.873V207.952ZM199.915 209.384V208.736H196.873V209.384H199.915ZM201.8 206.95H195.062V206.118H201.8V206.95ZM198.792 203.217C198.791 203.643 198.668 204.038 198.425 204.399C198.182 204.759 197.832 205.061 197.375 205.306C196.919 205.551 196.384 205.713 195.768 205.791L195.389 204.982C195.919 204.917 196.373 204.794 196.752 204.614C197.133 204.433 197.418 204.22 197.607 203.977C197.799 203.734 197.895 203.481 197.897 203.217V202.967H198.792V203.217ZM198.965 203.217C198.963 203.473 199.058 203.725 199.252 203.972C199.445 204.216 199.73 204.431 200.107 204.614C200.484 204.798 200.935 204.921 201.461 204.982L201.097 205.791C200.473 205.713 199.934 205.551 199.478 205.306C199.023 205.059 198.675 204.756 198.434 204.396C198.193 204.037 198.073 203.643 198.075 203.217V202.967H198.965V203.217Z" fill="#323232"/>
<path d="M191.774 175.527C193.223 175.527 194.397 174.318 194.397 172.809C194.397 171.301 193.223 170.079 191.774 170.079C190.324 170.079 189.162 171.301 189.162 172.809C189.162 174.318 190.324 175.527 191.774 175.527ZM186.994 180.576C189.114 180.576 189.713 179.217 191.594 178.719L183.292 169.73C182.753 169.157 181.963 169.082 181.316 169.556L176.62 173.034C175.805 173.632 175.889 174.517 176.356 175.041C176.74 175.49 177.446 175.677 178.117 175.178L181.927 172.373L184.083 174.679C184.323 174.941 184.394 175.34 184.023 175.602L179.591 178.631C180.106 178.582 180.657 178.569 181.292 178.594C184.011 178.719 184.514 180.576 186.994 180.576ZM173.493 183.868H174.703C177.902 183.868 178.632 181.823 180.848 181.823C183.065 181.823 183.795 183.868 186.994 183.868C190.205 183.868 190.923 181.823 193.151 181.823C195.368 181.823 196.086 183.868 199.297 183.868H200.507C200.878 183.868 201.178 183.568 201.178 183.182C201.178 182.795 200.878 182.484 200.507 182.484H199.297C196.997 182.484 196.218 180.439 193.151 180.439C190.073 180.439 189.294 182.484 186.994 182.484C184.694 182.484 183.927 180.439 180.848 180.439C177.782 180.439 177.003 182.484 174.703 182.484H173.493C173.11 182.484 172.822 182.795 172.822 183.182C172.822 183.568 173.11 183.868 173.493 183.868ZM173.805 187.333C174.2 187.333 174.511 187.009 174.511 186.61C174.511 186.199 174.2 185.875 173.805 185.875C173.421 185.875 173.11 186.199 173.11 186.61C173.11 187.009 173.421 187.333 173.805 187.333ZM176.057 186.91C176.44 186.91 176.752 186.598 176.752 186.186C176.752 185.775 176.44 185.463 176.057 185.463C175.661 185.463 175.35 185.775 175.35 186.186C175.35 186.598 175.661 186.91 176.057 186.91ZM178.153 185.887C178.548 185.887 178.86 185.563 178.86 185.152C178.86 184.753 178.548 184.429 178.153 184.429C177.77 184.429 177.458 184.753 177.458 185.152C177.458 185.563 177.77 185.887 178.153 185.887ZM180.417 185.326C180.813 185.326 181.124 185.002 181.124 184.603C181.124 184.192 180.813 183.868 180.417 183.868C180.034 183.868 179.722 184.192 179.722 184.603C179.722 185.002 180.034 185.326 180.417 185.326ZM182.681 185.887C183.077 185.887 183.376 185.563 183.376 185.152C183.376 184.753 183.077 184.429 182.681 184.429C182.286 184.429 181.987 184.753 181.987 185.152C181.987 185.563 182.286 185.887 182.681 185.887ZM184.802 186.91C185.197 186.91 185.509 186.598 185.509 186.186C185.509 185.775 185.197 185.463 184.802 185.463C184.418 185.463 184.107 185.775 184.107 186.186C184.107 186.598 184.418 186.91 184.802 186.91ZM187.018 187.333C187.401 187.333 187.713 187.009 187.713 186.61C187.713 186.199 187.401 185.875 187.018 185.875C186.623 185.875 186.311 186.199 186.311 186.61C186.311 187.009 186.623 187.333 187.018 187.333ZM189.222 186.91C189.618 186.91 189.917 186.598 189.917 186.186C189.917 185.775 189.618 185.463 189.222 185.463C188.827 185.463 188.527 185.775 188.527 186.186C188.527 186.598 188.827 186.91 189.222 186.91ZM191.343 185.887C191.738 185.887 192.049 185.563 192.049 185.152C192.049 184.753 191.738 184.429 191.343 184.429C190.959 184.429 190.648 184.753 190.648 185.152C190.648 185.563 190.959 185.887 191.343 185.887ZM193.607 185.326C194.002 185.326 194.301 185.002 194.301 184.603C194.301 184.192 194.002 183.868 193.607 183.868C193.211 183.868 192.912 184.192 192.912 184.603C192.912 185.002 193.211 185.326 193.607 185.326ZM195.871 185.887C196.266 185.887 196.566 185.563 196.566 185.152C196.566 184.753 196.266 184.429 195.871 184.429C195.476 184.429 195.176 184.753 195.176 185.152C195.176 185.563 195.476 185.887 195.871 185.887ZM197.979 186.91C198.375 186.91 198.674 186.598 198.674 186.186C198.674 185.775 198.375 185.463 197.979 185.463C197.584 185.463 197.284 185.775 197.284 186.186C197.284 186.598 197.584 186.91 197.979 186.91ZM200.207 187.333C200.603 187.333 200.914 187.009 200.914 186.61C200.914 186.199 200.603 185.875 200.207 185.875C199.824 185.875 199.513 186.199 199.513 186.61C199.513 187.009 199.824 187.333 200.207 187.333Z" fill="#323232"/>
<defs>
<clipPath id="clip0_64_3034">
<rect width="18.5778" height="23.4667" fill="white" transform="translate(177.711 61.3334)"/>
</clipPath>
</defs>
</svg>
