<svg width="313" height="144" viewBox="0 0 313 144" fill="none" xmlns="http://www.w3.org/2000/svg">
<rect x="-0.653589" y="37.0712" width="106.562" height="106.562" rx="15.7742" transform="rotate(-18.3337 -0.653589 37.0712)" fill="#F4F5F7" stroke="#EEEEEE" stroke-width="1.03433"/>
<path d="M60.882 101.896L59.6751 102.296L57.6313 96.1279L58.8382 95.728L60.882 101.896ZM61.8567 104.078L55.8789 106.059L55.5574 105.088L61.5352 103.107L61.8567 104.078ZM56.9069 105.085L55.69 105.488L54.9244 103.178L56.1413 102.775L56.9069 105.085ZM54.3141 97.8302C54.7497 97.6859 55.177 97.6466 55.596 97.7125C56.0172 97.7777 56.3849 97.942 56.6991 98.2054C57.0134 98.4688 57.2386 98.8061 57.3749 99.2173C57.5133 99.6351 57.5352 100.044 57.4404 100.442C57.3457 100.841 57.1492 101.194 56.851 101.5C56.5543 101.803 56.1882 102.027 55.7525 102.171C55.3169 102.315 54.8885 102.355 54.4673 102.29C54.0476 102.222 53.6795 102.056 53.3631 101.794C53.0488 101.53 52.8225 101.19 52.684 100.772C52.5478 100.361 52.5274 99.9566 52.6229 99.5599C52.7198 99.1602 52.9167 98.8088 53.2134 98.5058C53.5116 98.1998 53.8785 97.9746 54.3141 97.8302ZM54.661 98.8771C54.4365 98.9515 54.2505 99.0637 54.1029 99.2137C53.9545 99.3615 53.8572 99.5369 53.8109 99.7397C53.7669 99.9417 53.7836 100.156 53.8609 100.382C53.936 100.616 54.0519 100.802 54.2087 100.94C54.3669 101.075 54.5489 101.159 54.7547 101.192C54.9619 101.222 55.1789 101.199 55.4056 101.124C55.6257 101.051 55.8076 100.942 55.9515 100.795C56.0969 100.646 56.1916 100.47 56.2357 100.268C56.2812 100.063 56.2653 99.844 56.188 99.6106C56.1129 99.3839 55.9962 99.203 55.838 99.068C55.682 98.9322 55.5015 98.8489 55.2964 98.8182C55.0906 98.7853 54.8788 98.8049 54.661 98.8771ZM69.5596 97.9361L61.7115 100.537L61.3933 99.5766L69.2414 96.976L69.5596 97.9361ZM66.8228 100.486L65.6326 100.88L65.025 99.0465L66.2152 98.6521L66.8228 100.486ZM68.0059 96.6084L62.1382 98.5528L61.0886 95.3855L66.9563 93.4411L68.0059 96.6084ZM63.0046 97.2259L66.5119 96.0637L66.0832 94.7702L62.576 95.9324L63.0046 97.2259ZM69.7677 101.456L63.7033 103.466L63.3818 102.496L69.4462 100.486L69.7677 101.456ZM64.6892 102.421L63.489 102.819L62.8747 100.965L64.0749 100.568L64.6892 102.421ZM74.0013 92.5941L68.907 94.2821L68.5944 93.3386L73.6886 91.6505L74.0013 92.5941ZM71.5492 93.7137C71.9611 93.5797 72.3477 93.5256 72.709 93.5514C73.0725 93.5765 73.3829 93.6796 73.6403 93.8607C73.8999 94.0411 74.0812 94.2868 74.1843 94.598C74.2874 94.9092 74.2884 95.2135 74.1871 95.511C74.0881 95.8077 73.9007 96.0758 73.6248 96.3152C73.3512 96.5539 73.0088 96.7413 72.5976 96.8776C72.1842 97.0146 71.7943 97.0698 71.4278 97.0432C71.0613 97.0167 70.7476 96.9147 70.4865 96.7373C70.2269 96.5569 70.0459 96.3122 69.9436 96.0033C69.8412 95.6943 69.8402 95.39 69.9407 95.0903C70.0427 94.7876 70.2331 94.5173 70.5119 94.2794C70.7908 94.0415 71.1365 93.8529 71.5492 93.7137ZM71.8486 94.6172C71.6552 94.6813 71.4951 94.7639 71.3683 94.8651C71.2408 94.9641 71.154 95.078 71.1078 95.2068C71.0639 95.3348 71.0659 95.471 71.1138 95.6155C71.1616 95.76 71.2407 95.8682 71.3509 95.9402C71.4633 96.0115 71.6002 96.0488 71.7616 96.052C71.923 96.0553 72.1004 96.0248 72.2938 95.9608C72.4872 95.8967 72.6476 95.8152 72.7751 95.7162C72.9049 95.6164 72.9936 95.5044 73.0412 95.3801C73.0903 95.2528 73.0913 95.1181 73.0441 94.9758C72.9962 94.8314 72.9142 94.7216 72.7981 94.6466C72.6842 94.5709 72.5455 94.5318 72.3818 94.5293C72.2197 94.5238 72.0419 94.5531 71.8486 94.6172ZM76.9346 95.6957L75.7277 96.0957L73.9424 90.708L75.1493 90.3081L76.9346 95.6957ZM77.3678 93.1398L75.8742 93.6347L75.5494 92.6545L77.043 92.1596L77.3678 93.1398ZM77.9952 98.8963L76.7883 99.2962L76.1652 97.4159L71.5944 98.9305L71.2762 97.9704L77.0539 96.0558L77.9952 98.8963ZM71.9217 92.8281L70.7215 93.2258L70.2752 91.8789L71.4754 91.4812L71.9217 92.8281ZM88.4349 91.5852L80.6069 94.1792L80.2898 93.2223L88.1179 90.6283L88.4349 91.5852ZM84.9056 92.0443L83.6987 92.4442L83.1319 90.7339L84.3388 90.334L84.9056 92.0443ZM88.6592 95.3884L87.4723 95.7817L86.825 93.8281L81.9841 95.4322L81.6703 94.4854L87.6981 92.4879L88.6592 95.3884ZM87.0214 90.1444L80.9836 92.1451L80.6633 91.1783L86.701 89.1775L87.0214 90.1444ZM86.242 88.0716L81.4912 89.6459L82.0425 91.3095L80.8389 91.7084L79.9739 89.0979L85.9283 87.1248L86.242 88.0716ZM95.1208 87.7675L92.8404 88.5232L92.5189 87.553L94.7993 86.7974L95.1208 87.7675ZM90.8979 87.2503C91.1387 87.9845 91.2792 88.7026 91.3195 89.4046C91.3619 90.1059 91.2878 90.7644 91.0972 91.3801C90.9088 91.995 90.5961 92.518 90.1592 92.9489L89.0821 92.2217C89.484 91.8492 89.7784 91.4051 89.9652 90.8894C90.1519 90.3736 90.238 89.8333 90.2235 89.2683C90.2082 88.7011 90.1085 88.1359 89.9244 87.5729L89.499 86.2893L90.4725 85.9667L90.8979 87.2503ZM91.1479 87.1674C91.332 87.7305 91.5822 88.2359 91.8983 88.6837C92.2166 89.1307 92.5947 89.4976 93.0325 89.7841C93.4719 90.0678 93.9547 90.2334 94.4811 90.2809L94.0713 91.4786C93.468 91.3998 92.9157 91.1808 92.4143 90.8215C91.9129 90.4623 91.4761 90.0002 91.1039 89.4353C90.731 88.8682 90.4245 88.2187 90.1844 87.4867L89.7591 86.2031L90.7226 85.8839L91.1479 87.1674ZM97.346 92.5062L96.1558 92.9006L93.3032 84.2924L94.4935 83.898L97.346 92.5062Z" fill="#323232"/>
<path d="M18.8011 48.7686L17.1211 49.3253L17.6906 51.0439L16.1265 51.5622L15.557 49.8436L13.877 50.4003L13.3875 48.923L15.0674 48.3663L14.4948 46.6381L16.0589 46.1198L16.6316 47.848L18.3115 47.2913L18.8011 48.7686Z" fill="#FF9900"/>
<path d="M18.6773 45.6164L18.1686 44.0813L20.843 43.195L23.1786 50.2432L21.46 50.8127L19.6331 45.2997L18.6773 45.6164ZM23.8118 48.5654C23.973 48.3191 24.0461 48.2056 24.0311 48.2249C24.4891 47.4945 24.8429 46.9022 25.0924 46.448C25.3484 45.9917 25.5411 45.5386 25.6706 45.0885C25.8 44.6384 25.8072 44.2396 25.692 43.892C25.6045 43.6281 25.4751 43.4424 25.3038 43.3349C25.1324 43.2273 24.9245 43.2141 24.6799 43.2952C24.4353 43.3762 24.2731 43.5335 24.1933 43.7671C24.1179 43.9921 24.1356 44.272 24.2465 44.6067L22.6535 45.1346C22.485 44.5832 22.4495 44.0878 22.5467 43.6484C22.6504 43.2069 22.8537 42.8395 23.1566 42.5463C23.4659 42.2509 23.8426 42.0296 24.2867 41.8824C25.0527 41.6286 25.6938 41.634 26.2102 41.8987C26.7329 42.1612 27.0988 42.6079 27.3078 43.2387C27.536 43.9274 27.5133 44.6457 27.2397 45.3936C26.9639 46.135 26.5551 46.9063 26.0133 47.7073L28.6202 46.8435L29.0649 48.1855L24.2181 49.7916L23.8118 48.5654ZM30.786 47.8081C30.4963 47.9041 30.2304 47.8993 29.9883 47.7938C29.7505 47.6797 29.59 47.4972 29.5068 47.2461C29.4215 46.9887 29.4402 46.7432 29.5628 46.5097C29.6919 46.274 29.9012 46.1082 30.1909 46.0122C30.4741 45.9184 30.7346 45.9285 30.9724 46.0426C31.2167 46.1545 31.3815 46.3392 31.4668 46.5967C31.55 46.8477 31.527 47.091 31.3979 47.3267C31.2732 47.5538 31.0692 47.7142 30.786 47.8081ZM35.6526 39.8841L32.6402 40.8824L33.0817 42.2147C33.1635 42.0305 33.3054 41.8549 33.5072 41.688C33.7091 41.5211 33.9452 41.3929 34.2155 41.3033C34.6983 41.1433 35.1336 41.1205 35.5215 41.2348C35.9159 41.347 36.2447 41.5524 36.5079 41.8509C36.7711 42.1494 36.9699 42.5014 37.1043 42.907C37.3539 43.6601 37.3398 44.3291 37.0622 44.914C36.7824 45.4924 36.2563 45.9096 35.4839 46.1656C34.9689 46.3362 34.4928 46.3976 34.0554 46.3496C33.616 46.2952 33.241 46.1445 32.9305 45.8973C32.62 45.6502 32.3868 45.3238 32.231 44.9183L33.8434 44.384C33.9482 44.5707 34.0969 44.7072 34.2898 44.7933C34.4805 44.8729 34.7046 44.8701 34.962 44.7848C35.2646 44.6846 35.4579 44.5134 35.5419 44.2712C35.626 44.029 35.6147 43.747 35.508 43.4252C35.4035 43.1098 35.2463 42.894 35.0363 42.7779C34.8264 42.6617 34.5734 42.6527 34.2773 42.7508C34.0585 42.8233 33.8964 42.9377 33.791 43.0941C33.6835 43.244 33.6361 43.4133 33.6486 43.602L32.0555 44.1299L30.6638 39.93L35.1727 38.4359L35.6526 39.8841Z" fill="#323232"/>
<path d="M69.9993 13.1689L80.8612 9.56961L84.6605 21.035C85.544 23.7011 84.0988 26.5787 81.4327 27.4622L80.2258 27.8621C77.5596 28.7456 74.6821 27.3005 73.7986 24.6343L69.9993 13.1689Z" fill="#FF9900"/>
<g clip-path="url(#clip0_319_2295)">
<path d="M62.5288 80.0525L77.7783 74.7421C78.2965 74.5616 78.5768 74.0018 78.3922 73.4719C78.2487 73.0597 77.839 72.7931 77.4171 72.7948C75.7283 72.7227 74.7537 70.9099 75.7013 68.9295C75.993 68.3262 76.3337 67.5606 75.9236 66.383L71.22 52.8763C70.3671 50.4269 68.7195 49.6011 66.2819 50.4499L53.7762 54.8049C51.3386 55.6538 50.5563 57.3126 51.4134 59.7737L57.6465 77.6728C58.4913 80.0985 60.1383 80.885 62.5288 80.0525ZM61.9746 78.1198C60.7852 78.5339 59.9279 78.1195 59.5383 77.0008C59.1692 75.941 59.685 74.9955 60.8626 74.5854L72.9444 70.3781C73.0976 70.3247 73.2347 70.2638 73.3443 70.1992C73.2173 71.6166 73.7627 72.8792 74.7393 73.6745L61.9746 78.1198ZM59.78 72.9554C59.415 73.0825 59.0022 72.8831 58.871 72.5063L53.6917 57.6335C53.5605 57.2567 53.7641 56.8557 54.1292 56.7286C54.4942 56.6015 54.9147 56.7851 55.0459 57.162L60.2252 72.0347C60.3564 72.4115 60.1451 72.8283 59.78 72.9554Z" fill="#323232"/>
</g>
<rect x="207.49" y="0.267321" width="111.838" height="111.838" rx="15.7742" transform="rotate(19.0218 207.49 0.267321)" fill="#F4F5F7" stroke="#EEEEEE" stroke-width="1.03433"/>
<path d="M221.829 87.2655C221.638 87.8115 221.319 88.2689 220.873 88.6375C220.429 89.0047 219.883 89.256 219.235 89.3915C218.589 89.5256 217.887 89.5203 217.13 89.3755L216.992 88.2467C217.64 88.3837 218.231 88.4079 218.765 88.3193C219.298 88.2308 219.736 88.0597 220.078 87.8063C220.423 87.5536 220.657 87.2528 220.78 86.9038L220.923 86.4888L221.972 86.8505L221.829 87.2655ZM222.038 87.3377C221.917 87.6874 221.915 88.068 222.031 88.4794C222.149 88.8916 222.39 89.2969 222.756 89.6953C223.123 90.0945 223.607 90.4408 224.207 90.7342L223.406 91.5391C222.713 91.184 222.152 90.7539 221.722 90.2489C221.294 89.7447 221.017 89.2099 220.893 88.6444C220.768 88.0788 220.801 87.5231 220.992 86.9771L221.135 86.562L222.181 86.9226L222.038 87.3377ZM219.254 95.1974L218.069 94.7888L219.153 91.6443L220.338 92.053L219.254 95.1974ZM223.593 93.4203L215.797 90.7325L216.133 89.7563L223.929 92.4441L223.593 93.4203ZM231.702 92.2481L229.155 91.3701L229.482 90.4205L232.029 91.2985L231.702 92.2481ZM231.043 94.1574L228.497 93.2794L228.826 92.3231L231.373 93.2011L231.043 94.1574ZM228.268 89.2551C228.689 89.4001 229.04 89.6214 229.321 89.919C229.603 90.2144 229.788 90.5569 229.877 90.9466C229.966 91.334 229.943 91.7274 229.808 92.1266C229.669 92.522 229.445 92.8448 229.136 93.0949C228.827 93.345 228.47 93.5005 228.065 93.5615C227.66 93.6225 227.247 93.5805 226.827 93.4355C226.4 93.2883 226.043 93.0651 225.757 92.7659C225.474 92.4676 225.287 92.1247 225.198 91.7372C225.109 91.3498 225.133 90.9583 225.272 90.5629C225.407 90.1637 225.628 89.8386 225.935 89.5878C226.245 89.3355 226.605 89.1807 227.013 89.1234C227.422 89.064 227.841 89.1079 228.268 89.2551ZM227.914 90.2812C227.691 90.2019 227.479 90.1745 227.278 90.1991C227.079 90.2222 226.903 90.2989 226.749 90.4292C226.598 90.5579 226.484 90.733 226.408 90.9544C226.333 91.1713 226.317 91.3774 226.358 91.5725C226.4 91.7677 226.49 91.94 226.63 92.0896C226.772 92.2376 226.954 92.3487 227.176 92.4228C227.39 92.4991 227.597 92.5223 227.798 92.4925C228 92.4605 228.176 92.3801 228.327 92.2513C228.479 92.1204 228.593 91.9479 228.669 91.7339C228.743 91.5118 228.761 91.3035 228.721 91.1091C228.685 90.9133 228.595 90.745 228.453 90.6043C228.312 90.4615 228.132 90.3537 227.914 90.2812ZM231.521 95.4663L230.326 95.0542L232.054 90.0403L233.249 90.4524L231.521 95.4663ZM228.539 94.6316C229.139 94.8384 229.638 95.0845 230.035 95.37C230.435 95.6539 230.709 95.9641 230.858 96.3003C231.01 96.6373 231.025 96.9806 230.904 97.3304C230.784 97.6801 230.56 97.94 230.234 98.1099C229.907 98.2821 229.5 98.3582 229.011 98.3384C228.523 98.3186 227.979 98.2042 227.38 97.9951C226.779 97.7905 226.28 97.5455 225.883 97.2601C225.489 96.9754 225.216 96.6646 225.064 96.3276C224.915 95.9936 224.901 95.6521 225.024 95.3031C225.142 94.9526 225.364 94.6909 225.688 94.5179C226.015 94.3458 226.421 94.2704 226.907 94.2916C227.395 94.3114 227.94 94.4247 228.539 94.6316ZM228.224 95.548C227.843 95.4167 227.511 95.3334 227.229 95.2979C226.948 95.2632 226.72 95.2812 226.545 95.352C226.37 95.4205 226.255 95.5393 226.199 95.7083C226.14 95.8736 226.159 96.0348 226.255 96.192C226.353 96.3471 226.523 96.4984 226.764 96.646C227.007 96.7944 227.32 96.9331 227.702 97.0621C228.088 97.1979 228.422 97.282 228.703 97.3145C228.986 97.3478 229.214 97.3334 229.387 97.2715C229.56 97.2074 229.675 97.0923 229.732 96.9263C229.791 96.7558 229.773 96.5898 229.677 96.4281C229.582 96.2665 229.412 96.1126 229.168 95.9664C228.926 95.821 228.611 95.6815 228.224 95.548ZM241.642 98.9035L240.44 98.4892L242.153 93.5218L243.355 93.9362L241.642 98.9035ZM243.472 97.324L241.985 96.8111L242.32 95.8383L243.807 96.3511L243.472 97.324ZM240.775 93.6821C240.515 94.4369 240.126 95.0635 239.61 95.5617C239.097 96.0585 238.47 96.4193 237.729 96.6443C236.988 96.8692 236.151 96.9535 235.219 96.8973L235.074 95.7663C235.817 95.8168 236.478 95.7732 237.055 95.6355C237.635 95.4985 238.112 95.2768 238.488 94.9704C238.867 94.6625 239.134 94.2843 239.292 93.8357L239.496 93.2414L240.775 93.6821ZM239.899 94.4539L236.393 93.2451L236.724 92.2855L240.23 93.4943L239.899 94.4539ZM238.812 98.0393C239.39 98.2385 239.871 98.4837 240.256 98.7749C240.643 99.067 240.91 99.3855 241.056 99.7306C241.204 100.076 241.219 100.426 241.1 100.778C240.975 101.132 240.749 101.399 240.422 101.581C240.093 101.765 239.687 101.852 239.203 101.841C238.72 101.833 238.189 101.729 237.609 101.529C237.033 101.331 236.552 101.085 236.165 100.793C235.777 100.504 235.508 100.184 235.358 99.8355C235.208 99.4889 235.195 99.1389 235.319 98.7855C235.438 98.4327 235.664 98.1663 235.996 97.986C236.328 97.8058 236.736 97.72 237.221 97.7287C237.708 97.7381 238.239 97.8416 238.812 98.0393ZM238.49 98.9723C238.134 98.8495 237.818 98.7751 237.542 98.7494C237.267 98.7214 237.039 98.7457 236.859 98.8223C236.68 98.8968 236.562 99.0207 236.504 99.1941C236.443 99.3638 236.46 99.5343 236.555 99.7056C236.65 99.8746 236.814 100.035 237.046 100.187C237.279 100.339 237.573 100.475 237.931 100.596C238.286 100.721 238.602 100.795 238.879 100.819C239.158 100.843 239.386 100.818 239.563 100.743C239.741 100.665 239.859 100.541 239.918 100.371C239.977 100.198 239.96 100.028 239.867 99.8595C239.775 99.689 239.611 99.5295 239.375 99.3813C239.141 99.2315 238.847 99.0952 238.49 98.9723ZM244.961 101.043L248.48 102.257L248.731 101.53L249.923 101.941L248.776 105.268L242.879 103.235L244.026 99.9075L245.212 100.316L244.961 101.043ZM247.909 103.914L248.168 103.163L244.648 101.95L244.39 102.7L247.909 103.914ZM251.062 101.85L243.265 99.1622L243.597 98.1993L251.393 100.887L251.062 101.85ZM249.071 96.3305C248.899 96.8233 248.6 97.2305 248.174 97.552C247.75 97.8712 247.224 98.0813 246.597 98.1822C245.973 98.2839 245.289 98.2573 244.544 98.1023L244.429 97.0149C245.068 97.151 245.643 97.1906 246.153 97.1336C246.666 97.0752 247.08 96.9432 247.396 96.7376C247.715 96.5328 247.928 96.278 248.035 95.9733L248.135 95.6844L249.171 96.0416L249.071 96.3305ZM249.27 96.3991C249.166 96.695 249.176 97.0243 249.301 97.3869C249.427 97.7473 249.671 98.1089 250.034 98.4718C250.397 98.8346 250.871 99.1564 251.455 99.4371L250.71 100.228C250.02 99.8886 249.46 99.4863 249.031 99.0213C248.603 98.5541 248.321 98.0644 248.185 97.5521C248.05 97.0398 248.069 96.5372 248.241 96.0443L248.34 95.7554L249.37 96.1103L249.27 96.3991Z" fill="#323232"/>
<path d="M217.397 24.5306L215.724 23.9538L215.134 25.6654L213.576 25.1284L214.166 23.4167L212.493 22.8399L213 21.3687L214.673 21.9455L215.267 20.2242L216.824 20.7613L216.231 22.4825L217.904 23.0594L217.397 24.5306Z" fill="#4172D0"/>
<path d="M219.945 24.1287C219.453 23.6004 219.325 22.9933 219.561 22.3074C219.681 21.9612 219.879 21.678 220.155 21.4578C220.434 21.2312 220.785 21.0976 221.208 21.0569C221.633 21.0098 222.112 21.0779 222.644 21.2614C223.176 21.4448 223.592 21.6849 223.891 21.9818C224.199 22.2744 224.393 22.5959 224.473 22.9463C224.555 23.2903 224.537 23.6353 224.417 23.9815C224.298 24.3277 224.111 24.6002 223.856 24.7992C223.607 25.0004 223.32 25.1272 222.993 25.1796C223.282 25.4656 223.468 25.7881 223.552 26.1471C223.639 26.4996 223.615 26.8715 223.48 27.2625C223.323 27.7177 223.072 28.0721 222.726 28.3259C222.383 28.5733 221.982 28.715 221.525 28.7511C221.074 28.7893 220.609 28.7256 220.128 28.5598C219.647 28.3941 219.238 28.1562 218.9 27.846C218.569 27.5381 218.344 27.1809 218.226 26.7744C218.11 26.3615 218.13 25.9275 218.287 25.4723C218.424 25.0749 218.636 24.7639 218.921 24.5396C219.208 24.3088 219.55 24.1718 219.945 24.1287ZM222.735 23.6812C222.826 23.4184 222.818 23.1899 222.713 22.9958C222.616 22.7975 222.443 22.6553 222.193 22.5691C221.943 22.4829 221.716 22.487 221.511 22.5814C221.313 22.678 221.168 22.8578 221.078 23.1206C220.992 23.3706 221 23.5959 221.103 23.7964C221.208 23.9904 221.383 24.1295 221.626 24.2134C221.87 24.2974 222.094 24.2922 222.299 24.1978C222.503 24.1034 222.649 23.9312 222.735 23.6812ZM221.228 25.3674C220.927 25.2635 220.655 25.2628 220.411 25.3654C220.17 25.4616 220 25.6539 219.9 25.9424C219.808 26.2116 219.821 26.4638 219.941 26.6987C220.067 26.9359 220.284 27.1075 220.592 27.2136C220.9 27.3197 221.17 27.316 221.403 27.2026C221.642 27.0914 221.808 26.9012 221.901 26.6319C221.998 26.3499 221.982 26.0935 221.854 25.8627C221.732 25.6341 221.523 25.469 221.228 25.3674ZM224.633 30.0484C224.344 29.949 224.136 29.7839 224.008 29.5531C223.888 29.3181 223.871 29.0757 223.957 28.8256C224.045 28.5692 224.209 28.3854 224.448 28.2742C224.694 28.1652 224.961 28.1604 225.25 28.2599C225.532 28.3571 225.733 28.5232 225.852 28.7582C225.979 28.9954 225.998 29.2422 225.909 29.4986C225.823 29.7486 225.657 29.9281 225.411 30.0371C225.174 30.1419 224.915 30.1457 224.633 30.0484ZM233.309 26.7027L230.309 25.6684L229.852 26.9954C230.028 26.8985 230.248 26.845 230.509 26.8348C230.771 26.8247 231.037 26.866 231.306 26.9588C231.787 27.1246 232.147 27.3706 232.386 27.6968C232.631 28.0253 232.768 28.388 232.796 28.785C232.824 29.182 232.768 29.5825 232.629 29.9863C232.37 30.7364 231.953 31.2596 231.378 31.5561C230.804 31.8462 230.133 31.8586 229.364 31.5934C228.851 31.4166 228.435 31.1764 228.117 30.8729C227.8 30.563 227.594 30.2157 227.497 29.8308C227.4 29.446 227.413 29.0451 227.535 28.6282L229.141 29.1818C229.111 29.3938 229.146 29.5925 229.247 29.778C229.351 29.957 229.53 30.0908 229.787 30.1792C230.088 30.283 230.346 30.2642 230.559 30.1228C230.773 29.9813 230.935 29.7503 231.046 29.4297C231.154 29.1156 231.16 28.8487 231.064 28.629C230.967 28.4092 230.772 28.2486 230.477 28.1469C230.259 28.0717 230.06 28.0644 229.882 28.1247C229.705 28.1787 229.565 28.2844 229.46 28.4421L227.874 27.8951L229.316 23.7121L233.806 25.2603L233.309 26.7027Z" fill="#323232"/>
<path d="M279.877 24.7354L290.695 28.4649L286.758 39.8838C285.842 42.5391 282.948 43.9496 280.292 43.0342L279.09 42.6198C276.435 41.7044 275.025 38.8096 275.94 36.1543L279.877 24.7354Z" fill="#4172D0"/>
<g clip-path="url(#clip1_319_2295)">
<path d="M251.969 64.1808C253.79 64.8282 255.783 63.893 256.431 62.0722C257.078 60.2514 256.128 58.2523 254.307 57.6049C252.486 56.9574 250.502 57.9131 249.855 59.7339C249.207 61.5548 250.148 63.5334 251.969 64.1808ZM243.798 68.1404C246.461 69.0874 247.797 67.7147 250.373 67.9529L243.803 53.3953C243.372 52.4623 242.411 52.0189 241.395 52.3018L234.003 54.4027C232.723 54.7612 232.449 55.867 232.811 56.7077C233.1 57.4207 233.907 57.9621 234.964 57.6598L240.953 55.9755L242.672 59.7225C242.86 60.1455 242.78 60.6591 242.201 60.8093L235.333 62.4862C236.001 62.6561 236.699 62.8872 237.486 63.2008C240.848 64.5659 240.683 67.0328 243.798 68.1404ZM225.426 66.0829L226.946 66.6233C230.964 68.0519 232.759 65.9104 235.543 66.9002C238.327 67.8901 238.367 70.6844 242.385 72.113C246.418 73.5469 248.198 71.4001 250.997 72.3953C253.781 73.3852 253.807 76.1741 257.839 77.608L259.359 78.1485C259.826 78.3143 260.33 78.087 260.496 77.6205C260.662 77.154 260.42 76.644 259.953 76.4781L258.433 75.9377C255.544 74.9104 255.443 72.0948 251.591 70.7251C247.724 69.35 245.868 71.47 242.979 70.4426C240.09 69.4153 240.004 66.6051 236.137 65.23C232.285 63.8603 230.429 65.9802 227.54 64.9529L226.02 64.4125C225.538 64.2413 225.044 64.4891 224.878 64.9556C224.712 65.4221 224.945 65.9116 225.426 66.0829ZM224.33 70.4053C224.826 70.5819 225.357 70.3297 225.528 69.8482C225.705 69.3516 225.452 68.8212 224.956 68.6447C224.474 68.4734 223.944 68.7256 223.767 69.2222C223.596 69.7037 223.848 70.2341 224.33 70.4053ZM227.341 70.8996C227.822 71.0708 228.347 70.8337 228.524 70.3372C228.7 69.8406 228.443 69.3252 227.961 69.154C227.465 68.9775 226.94 69.2146 226.763 69.7111C226.587 70.2077 226.844 70.723 227.341 70.8996ZM230.413 70.6021C230.91 70.7787 231.44 70.5265 231.616 70.03C231.788 69.5484 231.536 69.018 231.039 68.8415C230.557 68.6702 230.027 68.9224 229.856 69.4039C229.679 69.9005 229.931 70.4309 230.413 70.6021ZM233.498 70.9361C233.994 71.1127 234.525 70.8605 234.696 70.379C234.873 69.8825 234.62 69.3521 234.124 69.1755C233.642 69.0043 233.112 69.2564 232.935 69.753C232.764 70.2345 233.016 70.7649 233.498 70.9361ZM236.101 72.6246C236.598 72.8012 237.113 72.5437 237.289 72.0471C237.461 71.5656 237.224 71.0405 236.727 70.864C236.23 70.6874 235.715 70.9449 235.544 71.4265C235.367 71.923 235.604 72.448 236.101 72.6246ZM238.326 74.8056C238.822 74.9821 239.347 74.745 239.524 74.2485C239.701 73.7519 239.443 73.2365 238.947 73.06C238.465 72.8888 237.94 73.1259 237.763 73.6224C237.587 74.119 237.844 74.6344 238.326 74.8056ZM240.928 76.307C241.409 76.4782 241.94 76.2261 242.111 75.7445C242.287 75.248 242.035 74.7176 241.554 74.5464C241.057 74.3698 240.527 74.622 240.35 75.1185C240.179 75.6 240.431 76.1304 240.928 76.307ZM243.879 76.7799C244.375 76.9565 244.885 76.714 245.062 76.2175C245.238 75.7209 244.996 75.2109 244.499 75.0344C244.003 74.8577 243.493 75.1003 243.316 75.5968C243.14 76.0934 243.382 76.6033 243.879 76.7799ZM246.981 76.4931C247.477 76.6697 248.008 76.4175 248.184 75.921C248.355 75.4394 248.103 74.9091 247.607 74.7325C247.125 74.5613 246.595 74.8134 246.424 75.2949C246.247 75.7915 246.499 76.3219 246.981 76.4931ZM250.066 76.8271C250.562 77.0037 251.077 76.7462 251.249 76.2647C251.425 75.7681 251.188 75.2431 250.692 75.0665C250.195 74.8899 249.68 75.1474 249.503 75.644C249.332 76.1255 249.569 76.6506 250.066 76.8271ZM252.669 78.5156C253.165 78.6922 253.681 78.4347 253.857 77.9382C254.029 77.4566 253.791 76.9316 253.295 76.755C252.798 76.5785 252.283 76.8359 252.112 77.3175C251.935 77.814 252.172 78.3391 252.669 78.5156ZM254.879 80.6912C255.375 80.8678 255.885 80.6253 256.062 80.1288C256.238 79.6322 255.996 79.1222 255.499 78.9456C255.003 78.7691 254.493 79.0115 254.316 79.5081C254.14 80.0047 254.382 80.5147 254.879 80.6912ZM257.496 82.198C257.992 82.3746 258.523 82.1225 258.694 81.6409C258.87 81.1444 258.618 80.614 258.122 80.4374C257.64 80.2662 257.11 80.5183 256.933 81.0149C256.762 81.4964 257.014 82.0268 257.496 82.198Z" fill="black" fill-opacity="0.85"/>
</g>
<rect x="96.5561" y="28.8574" width="111.838" height="111.838" rx="15.7742" transform="rotate(-0.700551 96.5561 28.8574)" fill="#F4F5F7" stroke="#EEEEEE" stroke-width="1.03433"/>
<path d="M137.203 107.434L134.509 107.466L134.497 106.462L137.19 106.429L137.203 107.434ZM137.227 109.453L134.534 109.486L134.521 108.474L137.215 108.441L137.227 109.453ZM132.96 105.775C133.405 105.769 133.81 105.859 134.175 106.045C134.541 106.227 134.831 106.487 135.046 106.824C135.26 107.159 135.372 107.537 135.379 107.958C135.382 108.377 135.28 108.757 135.073 109.096C134.867 109.436 134.583 109.703 134.223 109.897C133.862 110.091 133.459 110.191 133.014 110.196C132.563 110.202 132.152 110.112 131.782 109.927C131.414 109.742 131.123 109.482 130.908 109.147C130.693 108.813 130.584 108.436 130.582 108.017C130.574 107.595 130.673 107.215 130.877 106.875C131.083 106.533 131.369 106.266 131.735 106.074C132.1 105.88 132.508 105.78 132.96 105.775ZM132.974 106.86C132.737 106.861 132.528 106.906 132.347 106.998C132.167 107.086 132.027 107.218 131.926 107.393C131.828 107.565 131.78 107.768 131.783 108.002C131.786 108.232 131.84 108.431 131.945 108.601C132.05 108.77 132.193 108.902 132.374 108.996C132.558 109.087 132.767 109.13 133.001 109.125C133.228 109.125 133.432 109.077 133.611 108.981C133.79 108.883 133.929 108.747 134.027 108.575C134.126 108.401 134.175 108.2 134.174 107.973C134.169 107.739 134.115 107.537 134.012 107.367C133.912 107.195 133.771 107.067 133.59 106.982C133.408 106.896 133.203 106.855 132.974 106.86ZM138.118 110.524L136.854 110.539L136.789 105.236L138.054 105.221L138.118 110.524ZM135.03 110.744C135.665 110.737 136.217 110.8 136.687 110.935C137.159 111.067 137.522 111.266 137.776 111.533C138.032 111.799 138.163 112.117 138.167 112.487C138.172 112.857 138.049 113.177 137.799 113.447C137.55 113.719 137.192 113.928 136.725 114.074C136.259 114.221 135.708 114.296 135.074 114.302C134.439 114.312 133.887 114.25 133.417 114.115C132.949 113.98 132.588 113.78 132.331 113.513C132.078 113.25 131.95 112.933 131.947 112.563C131.941 112.193 132.061 111.872 132.308 111.599C132.558 111.327 132.914 111.119 133.379 110.975C133.845 110.829 134.396 110.752 135.03 110.744ZM135.042 111.714C134.639 111.718 134.299 111.752 134.021 111.814C133.746 111.876 133.537 111.97 133.396 112.095C133.255 112.219 133.186 112.37 133.191 112.548C133.19 112.723 133.262 112.869 133.407 112.984C133.551 113.097 133.762 113.182 134.039 113.24C134.318 113.297 134.659 113.322 135.062 113.315C135.471 113.312 135.814 113.279 136.09 113.215C136.367 113.15 136.577 113.06 136.719 112.944C136.86 112.825 136.93 112.677 136.927 112.502C136.925 112.322 136.852 112.171 136.708 112.051C136.563 111.931 136.351 111.844 136.072 111.789C135.795 111.734 135.452 111.709 135.042 111.714ZM146.478 111.662L145.206 111.677L145.126 105.141L146.398 105.126L146.478 111.662ZM147.663 108.619L146.065 108.639L146.052 107.596L147.65 107.576L147.663 108.619ZM140.382 109.221C141.079 109.213 141.654 109.199 142.106 109.179C142.56 109.159 142.969 109.129 143.334 109.087C143.701 109.042 144.067 108.978 144.431 108.894L144.577 109.907C144.026 110.027 143.451 110.11 142.852 110.157C142.253 110.202 141.434 110.23 140.394 110.243L139.639 110.252L139.627 109.23L140.382 109.221ZM143.673 106.894L140.86 106.929L140.894 109.766L139.633 109.782L139.586 105.933L143.66 105.883L143.673 106.894ZM146.829 114.004L140.641 114.079L140.629 113.057L146.817 112.982L146.829 114.004ZM141.9 113.565L140.635 113.581L140.604 111.034L141.868 111.019L141.9 113.565ZM150.514 105.708C150.966 105.702 151.37 105.83 151.727 106.09C152.086 106.348 152.368 106.719 152.573 107.203C152.778 107.686 152.884 108.25 152.892 108.896C152.9 109.547 152.808 110.118 152.615 110.61C152.422 111.099 152.149 111.479 151.796 111.748C151.446 112.014 151.045 112.15 150.593 112.156C150.136 112.161 149.729 112.035 149.369 111.777C149.01 111.517 148.728 111.145 148.523 110.66C148.318 110.173 148.212 109.604 148.204 108.953C148.196 108.307 148.289 107.741 148.482 107.253C148.675 106.764 148.948 106.386 149.3 106.119C149.653 105.851 150.057 105.713 150.514 105.708ZM150.528 106.853C150.303 106.855 150.106 106.939 149.937 107.102C149.769 107.264 149.638 107.5 149.546 107.813C149.454 108.126 149.411 108.501 149.419 108.939C149.422 109.379 149.473 109.755 149.573 110.068C149.673 110.378 149.809 110.613 149.982 110.772C150.155 110.932 150.354 111.01 150.579 111.007C150.808 111.004 151.007 110.921 151.176 110.758C151.345 110.594 151.474 110.356 151.561 110.043C151.651 109.731 151.694 109.353 151.691 108.911C151.684 108.471 151.631 108.097 151.534 107.789C151.436 107.478 151.301 107.245 151.128 107.088C150.957 106.928 150.757 106.85 150.528 106.853ZM155.752 114.074L154.498 114.089L154.387 105.021L155.641 105.006L155.752 114.074ZM154.98 109.299L152.525 109.329L152.513 108.314L154.968 108.284L154.98 109.299ZM166.385 110.024L165.113 110.039L165.05 104.891L166.322 104.875L166.385 110.024ZM167.574 107.905L166.001 107.924L165.988 106.906L167.562 106.887L167.574 107.905ZM166.431 113.82L160.52 113.892L160.479 110.475L166.389 110.403L166.431 113.82ZM161.758 112.862L165.165 112.82L165.148 111.423L161.741 111.464L161.758 112.862ZM161.695 105.431C162.157 105.425 162.577 105.512 162.956 105.693C163.335 105.873 163.634 106.129 163.851 106.461C164.07 106.791 164.184 107.167 164.191 107.588C164.194 108.007 164.09 108.384 163.878 108.72C163.667 109.055 163.374 109.318 162.999 109.51C162.627 109.702 162.21 109.802 161.749 109.81C161.283 109.813 160.859 109.724 160.478 109.541C160.099 109.358 159.799 109.102 159.58 108.772C159.36 108.442 159.249 108.068 159.246 107.649C159.239 107.23 159.341 106.851 159.552 106.514C159.763 106.177 160.056 105.913 160.431 105.723C160.808 105.534 161.23 105.436 161.695 105.431ZM161.709 106.495C161.47 106.495 161.257 106.543 161.071 106.639C160.887 106.733 160.742 106.866 160.637 107.038C160.531 107.208 160.481 107.406 160.486 107.634C160.487 107.863 160.542 108.061 160.651 108.229C160.761 108.396 160.909 108.524 161.095 108.613C161.284 108.7 161.497 108.742 161.736 108.739C161.97 108.736 162.179 108.689 162.363 108.598C162.549 108.504 162.695 108.372 162.801 108.202C162.906 108.032 162.958 107.833 162.955 107.603C162.952 107.376 162.896 107.179 162.786 107.012C162.676 106.842 162.527 106.713 162.339 106.624C162.15 106.533 161.94 106.489 161.709 106.495ZM175.644 113.809L174.362 113.825L174.251 104.778L175.533 104.763L175.644 113.809ZM172.837 105.747C172.847 106.717 172.726 107.599 172.476 108.393C172.226 109.185 171.796 109.915 171.186 110.583C170.578 111.251 169.756 111.837 168.72 112.341L168.048 111.342C168.909 110.919 169.6 110.448 170.12 109.929C170.643 109.41 171.02 108.829 171.251 108.187C171.482 107.542 171.594 106.807 171.586 105.98L171.583 105.763L172.837 105.747ZM172.178 106.749L168.477 106.795L168.465 105.801L172.166 105.756L172.178 106.749Z" fill="#323232"/>
<path d="M114.07 48.3559L112.3 48.3776L112.322 50.188L110.675 50.2081L110.653 48.3977L108.883 48.4194L108.864 46.8633L110.634 46.8416L110.611 45.0211L112.259 45.001L112.281 46.8215L114.051 46.7998L114.07 48.3559Z" fill="#41D047"/>
<path d="M115.157 45.7895C115.175 45.0636 115.406 44.5013 115.848 44.1026C116.291 43.7039 116.895 43.4998 117.662 43.4905C118.17 43.4842 118.605 43.5671 118.967 43.739C119.335 43.9108 119.612 44.1481 119.799 44.451C119.993 44.7538 120.092 45.0951 120.097 45.4748C120.102 45.9223 119.995 46.2898 119.774 46.5773C119.554 46.858 119.295 47.0511 118.998 47.1564L118.999 47.1971C119.387 47.3212 119.695 47.531 119.922 47.8266C120.149 48.1223 120.266 48.504 120.272 48.9718C120.277 49.3922 120.183 49.7663 119.99 50.0942C119.804 50.4152 119.526 50.6695 119.155 50.8571C118.791 51.0447 118.355 51.1416 117.847 51.1478C117.033 51.1577 116.38 50.9657 115.887 50.5716C115.4 50.1774 115.139 49.5771 115.102 48.7706L116.79 48.7499C116.8 49.0482 116.888 49.2844 117.053 49.4587C117.218 49.6263 117.456 49.7081 117.768 49.7043C118.032 49.7011 118.235 49.624 118.376 49.4731C118.523 49.3153 118.595 49.111 118.592 48.8601C118.588 48.5347 118.48 48.302 118.268 48.1622C118.063 48.0155 117.733 47.945 117.279 47.9505L116.953 47.9545L116.936 46.5408L117.261 46.5368C117.607 46.5326 117.884 46.4715 118.093 46.3537C118.309 46.229 118.415 46.0141 118.411 45.709C118.408 45.4649 118.338 45.2759 118.201 45.1419C118.063 45.008 117.876 44.9424 117.639 44.9453C117.381 44.9485 117.189 45.0288 117.062 45.1864C116.942 45.3438 116.873 45.5379 116.855 45.7687L115.157 45.7895ZM124.924 45.5785C124.867 45.3283 124.77 45.143 124.633 45.0226C124.495 44.8954 124.301 44.8334 124.051 44.8364C123.664 44.8412 123.388 45.0141 123.223 45.3552C123.057 45.6895 122.976 46.2194 122.978 46.945C123.124 46.7059 123.335 46.5168 123.612 46.3778C123.895 46.2387 124.206 46.1671 124.545 46.1629C125.209 46.1548 125.744 46.3585 126.149 46.774C126.561 47.1894 126.772 47.7734 126.781 48.526C126.787 49.021 126.691 49.4562 126.492 49.8316C126.3 50.2069 126.012 50.502 125.628 50.717C125.251 50.9318 124.801 51.0424 124.279 51.0488C123.235 51.0616 122.505 50.745 122.091 50.099C121.676 49.4463 121.461 48.5063 121.446 47.2791C121.43 45.9908 121.632 45.0321 122.051 44.4031C122.478 43.7672 123.165 43.4435 124.115 43.4319C124.623 43.4257 125.052 43.5222 125.4 43.7213C125.755 43.9137 126.023 44.1715 126.203 44.4948C126.39 44.818 126.503 45.1726 126.541 45.5587L124.924 45.5785ZM124.145 47.5411C123.853 47.5446 123.61 47.6358 123.416 47.8144C123.228 47.9863 123.136 48.2315 123.14 48.5502C123.144 48.8757 123.235 49.1289 123.414 49.3098C123.599 49.4906 123.858 49.579 124.19 49.5749C124.488 49.5713 124.721 49.4803 124.888 49.3019C125.062 49.1167 125.148 48.8681 125.144 48.5562C125.14 48.2375 125.052 47.9877 124.88 47.8067C124.709 47.6257 124.463 47.5372 124.145 47.5411ZM128.782 51.0344C128.477 51.0381 128.225 50.9531 128.026 50.7792C127.834 50.5984 127.737 50.3758 127.733 50.1114C127.73 49.8402 127.822 49.6119 128.01 49.4265C128.204 49.241 128.454 49.1464 128.759 49.1427C129.057 49.139 129.303 49.2276 129.495 49.4083C129.694 49.589 129.795 49.8149 129.798 50.0862C129.801 50.3506 129.706 50.5756 129.511 50.761C129.324 50.9396 129.081 51.0308 128.782 51.0344ZM130.618 47.116C130.604 45.9498 130.817 45.0283 131.256 44.3516C131.702 43.6748 132.427 43.3303 133.43 43.318C134.434 43.3057 135.164 43.6325 135.619 44.2983C136.082 44.964 136.32 45.8799 136.334 47.0462C136.349 48.2259 136.133 49.1542 135.687 49.8311C135.248 50.5078 134.526 50.8523 133.523 50.8646C132.519 50.8768 131.786 50.5501 131.324 49.8844C130.868 49.2186 130.633 48.2958 130.618 47.116ZM134.626 47.067C134.617 46.3822 134.536 45.8577 134.383 45.4933C134.229 45.1222 133.918 44.9396 133.45 44.9453C132.982 44.951 132.676 45.1412 132.532 45.516C132.387 45.8839 132.319 46.4103 132.327 47.0952C132.333 47.5562 132.365 47.939 132.423 48.2434C132.48 48.5411 132.592 48.7839 132.757 48.9717C132.929 49.1527 133.177 49.2412 133.503 49.2373C133.828 49.2333 134.071 49.1388 134.232 48.9537C134.399 48.7618 134.508 48.5163 134.558 48.2173C134.609 47.9115 134.631 47.5281 134.626 47.067Z" fill="#323232"/>
<path d="M173.302 27.4014L184.744 27.2615L184.892 39.339C184.926 42.1476 182.677 44.4522 179.869 44.4865L178.598 44.502C175.789 44.5364 173.485 42.2875 173.45 39.4789L173.302 27.4014Z" fill="#41D047"/>
<g clip-path="url(#clip2_319_2295)">
<path d="M142.055 76.3132C142.608 76.3177 143.095 75.8622 143.1 75.3085C143.104 74.7429 142.625 74.2795 142.071 74.2749L139.809 74.2563C139.267 74.2519 138.804 74.7193 138.799 75.2731C138.795 75.8151 139.25 76.2901 139.792 76.2946L142.055 76.3132ZM144.534 68.498C144.92 68.8901 145.568 68.9072 145.96 68.5098C146.364 68.1125 146.357 67.4762 145.972 67.0842L144.394 65.457C144.021 65.065 143.361 65.0596 142.957 65.4451C142.565 65.8543 142.56 66.4787 142.945 66.8707L144.534 68.498ZM151.812 64.7167C151.807 65.2587 152.263 65.7338 152.817 65.7383C153.382 65.743 153.846 65.2755 153.85 64.7335L153.869 62.4714C153.873 61.9176 153.406 61.4425 152.852 61.4379C152.298 61.4334 151.835 61.9009 151.83 62.4546L151.812 64.7167ZM159.627 67.1965C159.235 67.5821 159.218 68.2182 159.615 68.6221C160.024 69.0261 160.649 69.0195 161.041 68.6339L162.668 67.033C163.06 66.6474 163.065 66.023 162.68 65.6074C162.271 65.2152 161.646 65.2101 161.254 65.5957L159.627 67.1965ZM165.642 76.5072C166.196 76.5118 166.671 76.0444 166.675 75.5024C166.68 74.9487 166.213 74.4736 165.659 74.469L163.397 74.4504C162.855 74.4459 162.38 74.9015 162.375 75.467C162.37 76.0208 162.838 76.4842 163.38 76.4886L165.642 76.5072Z" fill="#323232"/>
<path d="M152.799 67.9303C148.628 67.896 145.339 70.8971 145.308 74.7498C145.273 79.0149 147.809 80.0962 148.455 87.4658C148.499 87.8785 148.721 88.1395 149.156 88.1431L156.108 88.2003C156.544 88.2039 156.77 87.9465 156.808 87.5345C157.588 80.1767 160.153 79.1373 160.188 74.8723C160.22 71.0195 156.958 67.9645 152.799 67.9303ZM149.101 90.5464L156.123 90.6042C156.512 90.6074 156.809 90.327 156.812 89.9382C156.816 89.5494 156.523 89.2641 156.134 89.2609L149.112 89.2032C148.735 89.2001 148.438 89.4805 148.435 89.8693C148.432 90.258 148.724 90.5433 149.101 90.5464ZM152.586 93.8035C154.318 93.8177 155.798 92.958 155.891 91.6627L149.317 91.6086C149.377 92.9051 150.842 93.7891 152.586 93.8035Z" fill="#323232"/>
</g>
<defs>
<clipPath id="clip0_319_2295">
<rect width="21.3474" height="26.7217" fill="white" transform="translate(50.1257 56.0762) rotate(-19.2002)"/>
</clipPath>
<clipPath id="clip1_319_2295">
<rect width="38.2822" height="23.3654" fill="white" transform="translate(230.924 47.9502) rotate(19.5739)"/>
</clipPath>
<clipPath id="clip2_319_2295">
<rect width="28.2305" height="41.1323" fill="white" transform="translate(138.914 61.3242) rotate(0.471378)"/>
</clipPath>
</defs>
</svg>
