<svg width="24" height="24" viewBox="0 0 24 24" fill="none" xmlns="http://www.w3.org/2000/svg">
<path fill-rule="evenodd" clip-rule="evenodd" d="M18 8C18 9.7204 17.2759 11.2717 16.1159 12.3657C19.523 13.4118 22 16.5833 22 20.3333C22 21.2538 21.2538 22 20.3333 22H3.66667C2.74619 22 2 21.2538 2 20.3333C2 16.5833 4.47699 13.4118 7.88411 12.3657C6.72408 11.2717 6 9.7204 6 8C6 4.68629 8.68629 2 12 2C15.3137 2 18 4.68629 18 8ZM8 17C7.44772 17 7 17.4477 7 18C7 18.5523 7.44772 19 8 19H16C16.5523 19 17 18.5523 17 18C17 17.4477 16.5523 17 16 17H8Z" fill="#323232"/>
</svg>
