<svg width="28" height="28" viewBox="0 0 28 28" fill="none" xmlns="http://www.w3.org/2000/svg">
<g clip-path="url(#clip0_355_2328)">
<path d="M14 28C21.732 28 28 21.732 28 14C28 6.26801 21.732 0 14 0C6.26801 0 0 6.26801 0 14C0 21.732 6.26801 28 14 28Z" fill="#E8E8E8"/>
<path d="M12.1699 16.5857C12.1699 15.7655 12.2301 15.1049 12.3504 14.6037C12.4756 14.1025 12.6561 13.7 12.892 13.3963C13.1279 13.0925 13.4456 12.8065 13.8451 12.5382C14.2158 12.2851 14.5094 12.0649 14.7261 11.8776C14.9475 11.6852 15.1256 11.4776 15.2604 11.2549C15.3952 11.0271 15.4626 10.7739 15.4626 10.4955C15.4626 10.2373 15.4 10.007 15.2748 9.80446C15.1545 9.5969 14.9908 9.43743 14.7838 9.32606C14.5768 9.21468 14.3482 9.15899 14.0979 9.15899C13.8283 9.15899 13.578 9.22481 13.3469 9.35643C13.1207 9.48299 12.9377 9.66524 12.7981 9.90318C12.6633 10.1361 12.5959 10.4018 12.5959 10.7005H9C9.00963 9.64246 9.24069 8.76159 9.69319 8.0579C10.1505 7.35422 10.7619 6.83531 11.5273 6.50119C12.2975 6.16706 13.164 6 14.1267 6C15.1569 6 16.0715 6.162 16.8706 6.486C17.6745 6.80494 18.3003 7.28587 18.748 7.92881C19.2005 8.57175 19.4268 9.3539 19.4268 10.2753C19.4268 10.8625 19.3305 11.389 19.138 11.8548C18.9502 12.3155 18.683 12.723 18.3365 13.0774C17.9947 13.4267 17.5759 13.7557 17.08 14.0645C16.7046 14.2924 16.4013 14.5202 16.1702 14.748C15.944 14.9707 15.7731 15.2315 15.6575 15.5301C15.542 15.8238 15.4842 16.1756 15.4842 16.5857V16.935H12.1699V16.5857ZM13.8812 22C13.525 22 13.1929 21.9063 12.8848 21.719C12.5767 21.5317 12.3336 21.2811 12.1555 20.9673C11.9822 20.6483 11.8979 20.299 11.9027 19.9193C11.8979 19.5447 11.9822 19.2004 12.1555 18.8866C12.3336 18.5676 12.5767 18.317 12.8848 18.1348C13.1929 17.9525 13.525 17.8614 13.8812 17.8614C14.2278 17.8614 14.5528 17.9525 14.856 18.1348C15.1593 18.317 15.4024 18.5676 15.5853 18.8866C15.7683 19.2055 15.8621 19.5498 15.867 19.9193C15.8621 20.2939 15.7683 20.6407 15.5853 20.9597C15.4024 21.2786 15.1593 21.5317 14.856 21.719C14.5528 21.9063 14.2278 22 13.8812 22Z" fill="#AAAAAA"/>
</g>
<defs>
<clipPath id="clip0_355_2328">
<rect width="28" height="28" fill="white"/>
</clipPath>
</defs>
</svg>
