<svg width="64" height="64" viewBox="0 0 64 64" fill="none" xmlns="http://www.w3.org/2000/svg">
<rect x="0.266667" y="0.266667" width="63.4667" height="63.4667" rx="10.4" fill="#F4F5F7"/>
<rect x="0.266667" y="0.266667" width="63.4667" height="63.4667" rx="10.4" stroke="#F1F1F1" stroke-width="0.533333"/>
<path d="M28.5975 22.5C29.4066 22.5 30.0625 23.1559 30.0625 23.965L30.0625 25.6875L23.8125 25.6875L23.8125 23.965C23.8125 23.1559 24.4684 22.5 25.2775 22.5L28.5975 22.5Z" fill="#323232"/>
<path d="M38.7225 22.5C39.5316 22.5 40.1875 23.1559 40.1875 23.965L40.1875 25.6875L33.9375 25.6875L33.9375 23.965C33.9375 23.1559 34.5934 22.5 35.4025 22.5L38.7225 22.5Z" fill="#323232"/>
<path d="M16.875 30.5081C16.875 27.8112 19.0612 25.625 21.7581 25.625H42.2419C44.9387 25.625 47.125 27.8112 47.125 30.5081V43.1169C47.125 45.8138 44.9388 48 42.2419 48H21.7581C19.0613 48 16.875 45.8137 16.875 43.1169V30.5081Z" fill="#323232"/>
<path d="M39.3125 0H50.625V9.90625C50.625 13.0301 48.0926 15.5625 44.9687 15.5625C41.8449 15.5625 39.3125 13.0301 39.3125 9.90625V0Z" fill="#323232"/>
</svg>
