<svg width="24" height="24" viewBox="0 0 24 24" fill="none" xmlns="http://www.w3.org/2000/svg">
<path fill-rule="evenodd" clip-rule="evenodd" d="M8 2C6.89543 2 6 2.89543 6 4V12H4C2.89543 12 2 12.8954 2 14V20C2 21.1046 2.89543 22 4 22H16C17.1046 22 18 21.1046 18 20V12H20C21.1046 12 22 11.1046 22 10V4C22 2.89543 21.1046 2 20 2H8ZM16 6C15.4477 6 15 6.44772 15 7C15 7.55228 15.4477 8 16 8H18C18.5523 8 19 7.55228 19 7C19 6.44772 18.5523 6 18 6H16ZM9 7C9 6.44772 9.44771 6 10 6H12C12.5523 6 13 6.44772 13 7C13 7.55228 12.5523 8 12 8H10C9.44771 8 9 7.55228 9 7ZM6 16C5.44772 16 5 16.4477 5 17C5 17.5523 5.44772 18 6 18H8C8.55229 18 9 17.5523 9 17C9 16.4477 8.55229 16 8 16H6ZM11 17C11 16.4477 11.4477 16 12 16H14C14.5523 16 15 16.4477 15 17C15 17.5523 14.5523 18 14 18H12C11.4477 18 11 17.5523 11 17Z" fill="#323232"/>
</svg>
