<svg width="375" height="256" viewBox="0 0 375 256" fill="none" xmlns="http://www.w3.org/2000/svg">
<rect x="48" y="32" width="38.4828" height="38.4828" rx="12.0259" fill="#323232"/>
<rect x="96.1035" y="32" width="38.4828" height="38.4828" rx="12.0259" fill="#E8E8E8"/>
<rect x="144.207" y="32" width="38.4828" height="38.4828" rx="12.0259" fill="#E8E8E8"/>
<rect x="192.31" y="32" width="38.4828" height="38.4828" rx="12.0259" fill="#E8E8E8"/>
<rect x="240.414" y="32" width="38.4828" height="38.4828" rx="12.0259" fill="#E8E8E8"/>
<rect x="288.517" y="32" width="38.4828" height="38.4828" rx="12.0259" fill="#E8E8E8"/>
<rect x="48" y="80.8193" width="38.4828" height="38.4828" rx="12.0259" fill="#E8E8E8"/>
<rect x="96.1035" y="80.8193" width="38.4828" height="38.4828" rx="12.0259" fill="#E8E8E8"/>
<rect x="144.207" y="80.8193" width="38.4828" height="38.4828" rx="12.0259" fill="#E8E8E8"/>
<rect x="192.31" y="80.8193" width="38.4828" height="38.4828" rx="12.0259" fill="#E8E8E8"/>
<rect x="240.414" y="80.8193" width="38.4828" height="38.4828" rx="12.0259" fill="#E8E8E8"/>
<rect x="288.517" y="80.8193" width="38.4828" height="38.4828" rx="12.0259" fill="#E8E8E8"/>
<rect x="48" y="129.639" width="38.4828" height="38.4828" rx="12.0259" fill="#E8E8E8"/>
<rect x="96.1035" y="129.639" width="38.4828" height="38.4828" rx="12.0259" fill="#E8E8E8"/>
<rect x="144.207" y="129.639" width="38.4828" height="38.4828" rx="12.0259" fill="#E8E8E8"/>
<rect x="192.31" y="129.639" width="38.4828" height="38.4828" rx="12.0259" fill="#E8E8E8"/>
<rect x="240.414" y="129.639" width="38.4828" height="38.4828" rx="12.0259" fill="#E8E8E8"/>
<rect x="288.517" y="129.639" width="38.4828" height="38.4828" rx="12.0259" fill="#E8E8E8"/>
<rect x="48" y="178.458" width="38.4828" height="38.4828" rx="12.0259" fill="#E8E8E8"/>
<rect x="96.1035" y="178.458" width="38.4828" height="38.4828" rx="12.0259" fill="#E8E8E8"/>
<rect x="144.207" y="178.458" width="38.4828" height="38.4828" rx="12.0259" fill="#E8E8E8"/>
<rect x="192.31" y="178.458" width="38.4828" height="38.4828" rx="12.0259" fill="#E8E8E8"/>
<rect x="240.414" y="178.458" width="38.4828" height="38.4828" rx="12.0259" fill="#E8E8E8"/>
<rect x="288.517" y="178.458" width="38.4828" height="38.4828" rx="12.0259" fill="#323232"/>
<path d="M59.3905 51.255C59.3905 49.7294 59.6639 48.5344 60.2107 47.6701C60.7663 46.8059 61.6834 46.3737 62.9622 46.3737C64.2409 46.3737 65.1537 46.8059 65.7005 47.6701C66.2561 48.5344 66.5339 49.7294 66.5339 51.255C66.5339 52.7895 66.2561 53.9933 65.7005 54.8664C65.1537 55.7395 64.2409 56.176 62.9622 56.176C61.6834 56.176 60.7663 55.7395 60.2107 54.8664C59.6639 53.9933 59.3905 52.7895 59.3905 51.255ZM64.7083 51.255C64.7083 50.6024 64.6642 50.0557 64.5761 49.6147C64.4967 49.165 64.3291 48.799 64.0734 48.5168C63.8264 48.2346 63.456 48.0934 62.9622 48.0934C62.4683 48.0934 62.0935 48.2346 61.8378 48.5168C61.5908 48.799 61.4233 49.165 61.3351 49.6147C61.2557 50.0557 61.216 50.6024 61.216 51.255C61.216 51.9253 61.2557 52.4897 61.3351 52.9483C61.4145 53.3981 61.582 53.764 61.8378 54.0462C62.0935 54.3196 62.4683 54.4563 62.9622 54.4563C63.456 54.4563 63.8309 54.3196 64.0866 54.0462C64.3424 53.764 64.5099 53.3981 64.5893 52.9483C64.6687 52.4897 64.7083 51.9253 64.7083 51.255ZM67.9425 51.255C67.9425 49.7294 68.2159 48.5344 68.7626 47.6701C69.3182 46.8059 70.2354 46.3737 71.5142 46.3737C72.7929 46.3737 73.7057 46.8059 74.2525 47.6701C74.808 48.5344 75.0858 49.7294 75.0858 51.255C75.0858 52.7895 74.808 53.9933 74.2525 54.8664C73.7057 55.7395 72.7929 56.176 71.5142 56.176C70.2354 56.176 69.3182 55.7395 68.7626 54.8664C68.2159 53.9933 67.9425 52.7895 67.9425 51.255ZM73.2603 51.255C73.2603 50.6024 73.2162 50.0557 73.128 49.6147C73.0487 49.165 72.8811 48.799 72.6254 48.5168C72.3784 48.2346 72.008 48.0934 71.5142 48.0934C71.0203 48.0934 70.6455 48.2346 70.3897 48.5168C70.1428 48.799 69.9753 49.165 69.8871 49.6147C69.8077 50.0557 69.768 50.6024 69.768 51.255C69.768 51.9253 69.8077 52.4897 69.8871 52.9483C69.9664 53.3981 70.134 53.764 70.3897 54.0462C70.6455 54.3196 71.0203 54.4563 71.5142 54.4563C72.008 54.4563 72.3828 54.3196 72.6386 54.0462C72.8943 53.764 73.0619 53.3981 73.1413 52.9483C73.2206 52.4897 73.2603 51.9253 73.2603 51.255Z" fill="white"/>
<path d="M59.4357 100.561C59.4357 99.0355 59.7091 97.8406 60.2559 96.9763C60.8115 96.1121 61.7286 95.6799 63.0074 95.6799C64.2861 95.6799 65.1989 96.1121 65.7457 96.9763C66.3013 97.8406 66.5791 99.0355 66.5791 100.561C66.5791 102.096 66.3013 103.3 65.7457 104.173C65.1989 105.046 64.2861 105.482 63.0074 105.482C61.7286 105.482 60.8115 105.046 60.2559 104.173C59.7091 103.3 59.4357 102.096 59.4357 100.561ZM64.7536 100.561C64.7536 99.9086 64.7095 99.3618 64.6213 98.9209C64.5419 98.4711 64.3743 98.1051 64.1186 97.8229C63.8717 97.5407 63.5013 97.3996 63.0074 97.3996C62.5135 97.3996 62.1387 97.5407 61.883 97.8229C61.636 98.1051 61.4685 98.4711 61.3803 98.9209C61.3009 99.3618 61.2612 99.9086 61.2612 100.561C61.2612 101.231 61.3009 101.796 61.3803 102.254C61.4597 102.704 61.6272 103.07 61.883 103.352C62.1387 103.626 62.5135 103.763 63.0074 103.763C63.5013 103.763 63.8761 103.626 64.1318 103.352C64.3876 103.07 64.5551 102.704 64.6345 102.254C64.7139 101.796 64.7536 101.231 64.7536 100.561ZM72.9881 98.2727C72.8999 97.9023 72.7455 97.6245 72.5251 97.4393C72.3134 97.2541 72.0047 97.1615 71.5991 97.1615C70.9906 97.1615 70.5408 97.4084 70.2498 97.9023C69.9676 98.3874 69.822 99.1811 69.8132 100.283C70.0249 99.9307 70.3335 99.6573 70.7392 99.4633C71.1449 99.2604 71.5858 99.159 72.0621 99.159C72.6353 99.159 73.1424 99.2825 73.5833 99.5294C74.0243 99.7763 74.3682 100.138 74.6152 100.614C74.8621 101.082 74.9855 101.646 74.9855 102.307C74.9855 102.934 74.8577 103.494 74.6019 103.987C74.355 104.472 73.989 104.852 73.504 105.125C73.0189 105.398 72.4413 105.535 71.771 105.535C70.8539 105.535 70.1307 105.332 69.6016 104.927C69.0813 104.521 68.7153 103.957 68.5036 103.233C68.3008 102.501 68.1994 101.602 68.1994 100.535C68.1994 98.9209 68.4772 97.7039 69.0327 96.8837C69.5883 96.0547 70.4658 95.6402 71.6652 95.6402C72.5912 95.6402 73.3099 95.8916 73.8214 96.3943C74.3329 96.8969 74.6284 97.5231 74.7078 98.2727H72.9881ZM71.6388 100.68C71.1713 100.68 70.7789 100.817 70.4614 101.09C70.1439 101.364 69.9852 101.761 69.9852 102.281C69.9852 102.801 70.1307 103.211 70.4217 103.511C70.7216 103.811 71.1405 103.961 71.6784 103.961C72.1547 103.961 72.5295 103.815 72.8029 103.524C73.0851 103.233 73.2262 102.841 73.2262 102.347C73.2262 101.836 73.0895 101.43 72.8161 101.13C72.5515 100.83 72.1591 100.68 71.6388 100.68Z" fill="#616161"/>
<path d="M61.5232 145.675V143.968H64.7113V153.612H62.8064V145.675H61.5232ZM67.1229 151.522C67.9695 150.816 68.6442 150.23 69.1468 149.763C69.6495 149.286 70.0684 148.792 70.4035 148.281C70.7387 147.769 70.9062 147.267 70.9062 146.773C70.9062 146.323 70.8004 145.97 70.5887 145.715C70.3771 145.459 70.0508 145.331 69.6098 145.331C69.1689 145.331 68.8294 145.481 68.5912 145.781C68.3531 146.072 68.2297 146.473 68.2209 146.985H66.4218C66.4571 145.926 66.7701 145.124 67.361 144.577C67.9607 144.03 68.7191 143.757 69.6363 143.757C70.6417 143.757 71.4133 144.026 71.9513 144.564C72.4892 145.093 72.7582 145.794 72.7582 146.667C72.7582 147.355 72.573 148.012 72.2026 148.638C71.8322 149.264 71.4089 149.811 70.9327 150.278C70.4565 150.737 69.8347 151.293 69.0675 151.945H72.9699V153.48H66.435V152.104L67.1229 151.522Z" fill="#616161"/>
<path d="M61.0711 194.981V193.275H64.2591V202.918H62.3542V194.981H61.0711ZM67.7026 197.812C66.8207 197.354 66.3797 196.644 66.3797 195.682C66.3797 195.206 66.4988 194.774 66.7369 194.386C66.9838 193.989 67.3498 193.676 67.8349 193.447C68.3287 193.209 68.9284 193.09 69.6339 193.09C70.3394 193.09 70.9347 193.209 71.4198 193.447C71.9136 193.676 72.2796 193.989 72.5177 194.386C72.7647 194.774 72.8881 195.206 72.8881 195.682C72.8881 196.167 72.7691 196.595 72.5309 196.966C72.2928 197.327 71.9754 197.609 71.5785 197.812C72.0635 198.024 72.4428 198.332 72.7161 198.738C72.9895 199.144 73.1262 199.624 73.1262 200.18C73.1262 200.78 72.9719 201.304 72.6632 201.754C72.3634 202.195 71.9489 202.535 71.4198 202.773C70.8906 203.011 70.2953 203.13 69.6339 203.13C68.9725 203.13 68.3772 203.011 67.8481 202.773C67.3278 202.535 66.9133 202.195 66.6046 201.754C66.3048 201.304 66.1548 200.78 66.1548 200.18C66.1548 199.624 66.2915 199.144 66.5649 198.738C66.8383 198.324 67.2175 198.015 67.7026 197.812ZM71.089 195.947C71.089 195.515 70.9568 195.18 70.6922 194.942C70.4364 194.703 70.0837 194.584 69.6339 194.584C69.193 194.584 68.8402 194.703 68.5756 194.942C68.3199 195.18 68.192 195.519 68.192 195.96C68.192 196.357 68.3243 196.675 68.5889 196.913C68.8623 197.151 69.2106 197.27 69.6339 197.27C70.0572 197.27 70.4056 197.151 70.679 196.913C70.9524 196.666 71.089 196.344 71.089 195.947ZM69.6339 198.619C69.1312 198.619 68.7212 198.747 68.4037 199.003C68.095 199.258 67.9407 199.624 67.9407 200.101C67.9407 200.542 68.0906 200.903 68.3904 201.185C68.6991 201.459 69.1136 201.595 69.6339 201.595C70.1542 201.595 70.5643 201.454 70.8642 201.172C71.164 200.89 71.3139 200.533 71.3139 200.101C71.3139 199.633 71.1596 199.272 70.8509 199.016C70.5423 198.751 70.1366 198.619 69.6339 198.619Z" fill="#616161"/>
<path d="M109.374 51.255C109.374 49.7294 109.647 48.5344 110.194 47.6701C110.749 46.8059 111.667 46.3737 112.945 46.3737C114.224 46.3737 115.137 46.8059 115.684 47.6701C116.239 48.5344 116.517 49.7294 116.517 51.255C116.517 52.7895 116.239 53.9933 115.684 54.8664C115.137 55.7395 114.224 56.176 112.945 56.176C111.667 56.176 110.749 55.7395 110.194 54.8664C109.647 53.9933 109.374 52.7895 109.374 51.255ZM114.691 51.255C114.691 50.6024 114.647 50.0557 114.559 49.6147C114.48 49.165 114.312 48.799 114.056 48.5168C113.81 48.2346 113.439 48.0934 112.945 48.0934C112.451 48.0934 112.077 48.2346 111.821 48.5168C111.574 48.799 111.406 49.165 111.318 49.6147C111.239 50.0557 111.199 50.6024 111.199 51.255C111.199 51.9253 111.239 52.4897 111.318 52.9483C111.398 53.3981 111.565 53.764 111.821 54.0462C112.077 54.3196 112.451 54.4563 112.945 54.4563C113.439 54.4563 113.814 54.3196 114.07 54.0462C114.325 53.764 114.493 53.3981 114.572 52.9483C114.652 52.4897 114.691 51.9253 114.691 51.255ZM117.701 48.2654V46.5589H120.889V56.2025H118.984V48.2654H117.701Z" fill="#616161"/>
<path d="M108.146 100.561C108.146 99.0355 108.42 97.8406 108.967 96.9763C109.522 96.1121 110.439 95.6799 111.718 95.6799C112.997 95.6799 113.91 96.1121 114.456 96.9763C115.012 97.8406 115.29 99.0355 115.29 100.561C115.29 102.096 115.012 103.3 114.456 104.173C113.91 105.046 112.997 105.482 111.718 105.482C110.439 105.482 109.522 105.046 108.967 104.173C108.42 103.3 108.146 102.096 108.146 100.561ZM113.464 100.561C113.464 99.9086 113.42 99.3618 113.332 98.9209C113.253 98.4711 113.085 98.1051 112.829 97.8229C112.582 97.5407 112.212 97.3996 111.718 97.3996C111.224 97.3996 110.849 97.5407 110.594 97.8229C110.347 98.1051 110.179 98.4711 110.091 98.9209C110.012 99.3618 109.972 99.9086 109.972 100.561C109.972 101.231 110.012 101.796 110.091 102.254C110.17 102.704 110.338 103.07 110.594 103.352C110.849 103.626 111.224 103.763 111.718 103.763C112.212 103.763 112.587 103.626 112.842 103.352C113.098 103.07 113.266 102.704 113.345 102.254C113.424 101.796 113.464 101.231 113.464 100.561ZM122.836 97.2673L119.318 105.509H117.439L120.984 97.479H116.46V95.8916H122.836V97.2673Z" fill="#616161"/>
<path d="M109.465 145.675V143.968H112.653V153.612H110.748V145.675H109.465ZM114.509 146.508C114.553 145.626 114.862 144.947 115.435 144.471C116.017 143.986 116.78 143.744 117.724 143.744C118.368 143.744 118.919 143.858 119.377 144.088C119.836 144.308 120.18 144.612 120.409 145C120.647 145.379 120.766 145.812 120.766 146.297C120.766 146.852 120.621 147.324 120.33 147.712C120.048 148.091 119.708 148.347 119.311 148.479V148.532C119.823 148.691 120.22 148.973 120.502 149.379C120.793 149.785 120.938 150.305 120.938 150.94C120.938 151.469 120.815 151.941 120.568 152.355C120.33 152.77 119.973 153.096 119.496 153.334C119.029 153.563 118.465 153.678 117.803 153.678C116.807 153.678 115.995 153.427 115.369 152.924C114.743 152.421 114.412 151.681 114.377 150.702H116.176C116.194 151.134 116.339 151.482 116.613 151.747C116.895 152.003 117.278 152.13 117.763 152.13C118.213 152.13 118.557 152.007 118.795 151.76C119.042 151.504 119.166 151.178 119.166 150.781C119.166 150.252 118.998 149.873 118.663 149.643C118.328 149.414 117.808 149.3 117.102 149.3H116.718V147.778H117.102C118.354 147.778 118.98 147.359 118.98 146.522C118.98 146.142 118.866 145.847 118.637 145.635C118.416 145.424 118.094 145.318 117.671 145.318C117.256 145.318 116.934 145.432 116.705 145.662C116.485 145.882 116.357 146.164 116.322 146.508H114.509Z" fill="#616161"/>
<path d="M109.284 194.981V193.275H112.472V202.918H110.568V194.981H109.284ZM116.445 200.207C116.516 200.595 116.674 200.894 116.921 201.106C117.177 201.309 117.516 201.41 117.94 201.41C118.487 201.41 118.883 201.185 119.13 200.736C119.377 200.277 119.501 199.51 119.501 198.434C119.298 198.716 119.011 198.937 118.641 199.095C118.279 199.254 117.887 199.333 117.464 199.333C116.899 199.333 116.388 199.219 115.929 198.989C115.479 198.751 115.122 198.403 114.858 197.944C114.593 197.477 114.461 196.913 114.461 196.251C114.461 195.272 114.752 194.496 115.334 193.923C115.916 193.341 116.71 193.05 117.715 193.05C118.967 193.05 119.849 193.451 120.361 194.254C120.881 195.056 121.141 196.264 121.141 197.878C121.141 199.025 121.04 199.964 120.837 200.696C120.643 201.428 120.303 201.984 119.818 202.363C119.342 202.742 118.689 202.932 117.86 202.932C117.208 202.932 116.652 202.808 116.194 202.561C115.735 202.305 115.382 201.975 115.135 201.569C114.897 201.155 114.761 200.7 114.725 200.207H116.445ZM117.847 197.825C118.306 197.825 118.667 197.684 118.932 197.402C119.196 197.12 119.329 196.741 119.329 196.264C119.329 195.744 119.188 195.343 118.905 195.061C118.632 194.77 118.257 194.624 117.781 194.624C117.305 194.624 116.926 194.774 116.643 195.074C116.37 195.365 116.233 195.753 116.233 196.238C116.233 196.705 116.366 197.089 116.63 197.389C116.904 197.68 117.309 197.825 117.847 197.825Z" fill="#616161"/>
<path d="M156.075 51.255C156.075 49.7294 156.349 48.5344 156.896 47.6701C157.451 46.8059 158.368 46.3737 159.647 46.3737C160.926 46.3737 161.839 46.8059 162.385 47.6701C162.941 48.5344 163.219 49.7294 163.219 51.255C163.219 52.7895 162.941 53.9933 162.385 54.8664C161.839 55.7395 160.926 56.176 159.647 56.176C158.368 56.176 157.451 55.7395 156.896 54.8664C156.349 53.9933 156.075 52.7895 156.075 51.255ZM161.393 51.255C161.393 50.6024 161.349 50.0557 161.261 49.6147C161.182 49.165 161.014 48.799 160.758 48.5168C160.511 48.2346 160.141 48.0934 159.647 48.0934C159.153 48.0934 158.778 48.2346 158.523 48.5168C158.276 48.799 158.108 49.165 158.02 49.6147C157.941 50.0557 157.901 50.6024 157.901 51.255C157.901 51.9253 157.941 52.4897 158.02 52.9483C158.099 53.3981 158.267 53.764 158.523 54.0462C158.778 54.3196 159.153 54.4563 159.647 54.4563C160.141 54.4563 160.516 54.3196 160.772 54.0462C161.027 53.764 161.195 53.3981 161.274 52.9483C161.354 52.4897 161.393 51.9253 161.393 51.255ZM165.209 54.1124C166.056 53.4069 166.731 52.8204 167.233 52.353C167.736 51.8768 168.155 51.3829 168.49 50.8714C168.825 50.3599 168.993 49.8572 168.993 49.3634C168.993 48.9136 168.887 48.5609 168.675 48.3051C168.464 48.0494 168.137 47.9215 167.696 47.9215C167.255 47.9215 166.916 48.0714 166.678 48.3712C166.44 48.6623 166.316 49.0635 166.307 49.575H164.508C164.544 48.5168 164.857 47.7142 165.448 47.1675C166.047 46.6207 166.806 46.3473 167.723 46.3473C168.728 46.3473 169.5 46.6163 170.038 47.1542C170.576 47.6834 170.845 48.3845 170.845 49.2576C170.845 49.9454 170.66 50.6024 170.289 51.2286C169.919 51.8547 169.496 52.4015 169.019 52.8689C168.543 53.3275 167.921 53.8831 167.154 54.5357H171.056V56.0702H164.522V54.6944L165.209 54.1124Z" fill="#616161"/>
<path d="M155.623 100.561C155.623 99.0355 155.897 97.8406 156.443 96.9763C156.999 96.1121 157.916 95.6799 159.195 95.6799C160.474 95.6799 161.387 96.1121 161.933 96.9763C162.489 97.8406 162.767 99.0355 162.767 100.561C162.767 102.096 162.489 103.3 161.933 104.173C161.387 105.046 160.474 105.482 159.195 105.482C157.916 105.482 156.999 105.046 156.443 104.173C155.897 103.3 155.623 102.096 155.623 100.561ZM160.941 100.561C160.941 99.9086 160.897 99.3618 160.809 98.9209C160.729 98.4711 160.562 98.1051 160.306 97.8229C160.059 97.5407 159.689 97.3996 159.195 97.3996C158.701 97.3996 158.326 97.5407 158.071 97.8229C157.824 98.1051 157.656 98.4711 157.568 98.9209C157.489 99.3618 157.449 99.9086 157.449 100.561C157.449 101.231 157.489 101.796 157.568 102.254C157.647 102.704 157.815 103.07 158.071 103.352C158.326 103.626 158.701 103.763 159.195 103.763C159.689 103.763 160.064 103.626 160.319 103.352C160.575 103.07 160.743 102.704 160.822 102.254C160.901 101.796 160.941 101.231 160.941 100.561ZM165.789 100.402C164.907 99.9439 164.466 99.234 164.466 98.2727C164.466 97.7965 164.585 97.3644 164.823 96.9763C165.07 96.5795 165.436 96.2664 165.921 96.0371C166.415 95.799 167.015 95.6799 167.721 95.6799C168.426 95.6799 169.021 95.799 169.506 96.0371C170 96.2664 170.366 96.5795 170.604 96.9763C170.851 97.3644 170.975 97.7965 170.975 98.2727C170.975 98.7578 170.856 99.1855 170.618 99.5559C170.379 99.9174 170.062 100.2 169.665 100.402C170.15 100.614 170.529 100.923 170.803 101.328C171.076 101.734 171.213 102.215 171.213 102.77C171.213 103.37 171.058 103.895 170.75 104.345C170.45 104.786 170.035 105.125 169.506 105.363C168.977 105.601 168.382 105.72 167.721 105.72C167.059 105.72 166.464 105.601 165.935 105.363C165.414 105.125 165 104.786 164.691 104.345C164.391 103.895 164.241 103.37 164.241 102.77C164.241 102.215 164.378 101.734 164.652 101.328C164.925 100.914 165.304 100.605 165.789 100.402ZM169.176 98.5373C169.176 98.1051 169.043 97.77 168.779 97.5319C168.523 97.2938 168.17 97.1747 167.721 97.1747C167.28 97.1747 166.927 97.2938 166.662 97.5319C166.406 97.77 166.279 98.1096 166.279 98.5505C166.279 98.9474 166.411 99.2648 166.675 99.503C166.949 99.7411 167.297 99.8601 167.721 99.8601C168.144 99.8601 168.492 99.7411 168.766 99.503C169.039 99.256 169.176 98.9341 169.176 98.5373ZM167.721 101.209C167.218 101.209 166.808 101.337 166.49 101.593C166.182 101.849 166.027 102.215 166.027 102.691C166.027 103.132 166.177 103.494 166.477 103.776C166.786 104.049 167.2 104.186 167.721 104.186C168.241 104.186 168.651 104.045 168.951 103.763C169.251 103.48 169.401 103.123 169.401 102.691C169.401 102.224 169.246 101.862 168.938 101.606C168.629 101.342 168.223 101.209 167.721 101.209Z" fill="#616161"/>
<path d="M157.155 145.675V143.968H160.343V153.612H158.438V145.675H157.155ZM162.094 151.734V150.278L166.419 144.088H168.576V150.12H169.74V151.734H168.576V153.612H166.724V151.734H162.094ZM166.843 146.072L164.131 150.12H166.843V146.072Z" fill="#616161"/>
<path d="M156.658 200.828C157.504 200.123 158.179 199.536 158.681 199.069C159.184 198.593 159.603 198.099 159.938 197.587C160.273 197.076 160.441 196.573 160.441 196.079C160.441 195.629 160.335 195.277 160.123 195.021C159.912 194.765 159.585 194.637 159.144 194.637C158.704 194.637 158.364 194.787 158.126 195.087C157.888 195.378 157.764 195.779 157.755 196.291H155.956C155.992 195.233 156.305 194.43 156.896 193.883C157.495 193.337 158.254 193.063 159.171 193.063C160.176 193.063 160.948 193.332 161.486 193.87C162.024 194.399 162.293 195.1 162.293 195.973C162.293 196.661 162.108 197.318 161.737 197.944C161.367 198.571 160.944 199.117 160.467 199.585C159.991 200.043 159.369 200.599 158.602 201.252H162.504V202.786H155.97V201.41L156.658 200.828ZM163.671 197.971C163.671 196.445 163.945 195.25 164.492 194.386C165.047 193.522 165.964 193.09 167.243 193.09C168.522 193.09 169.435 193.522 169.981 194.386C170.537 195.25 170.815 196.445 170.815 197.971C170.815 199.505 170.537 200.709 169.981 201.582C169.435 202.455 168.522 202.892 167.243 202.892C165.964 202.892 165.047 202.455 164.492 201.582C163.945 200.709 163.671 199.505 163.671 197.971ZM168.989 197.971C168.989 197.318 168.945 196.772 168.857 196.331C168.778 195.881 168.61 195.515 168.354 195.233C168.107 194.95 167.737 194.809 167.243 194.809C166.749 194.809 166.374 194.95 166.119 195.233C165.872 195.515 165.704 195.881 165.616 196.331C165.537 196.772 165.497 197.318 165.497 197.971C165.497 198.641 165.537 199.206 165.616 199.664C165.695 200.114 165.863 200.48 166.119 200.762C166.374 201.035 166.749 201.172 167.243 201.172C167.737 201.172 168.112 201.035 168.368 200.762C168.623 200.48 168.791 200.114 168.87 199.664C168.95 199.206 168.989 198.641 168.989 197.971Z" fill="#616161"/>
<path d="M204.017 51.255C204.017 49.7294 204.291 48.5344 204.838 47.6701C205.393 46.8059 206.31 46.3737 207.589 46.3737C208.868 46.3737 209.781 46.8059 210.327 47.6701C210.883 48.5344 211.161 49.7294 211.161 51.255C211.161 52.7895 210.883 53.9933 210.327 54.8664C209.781 55.7395 208.868 56.176 207.589 56.176C206.31 56.176 205.393 55.7395 204.838 54.8664C204.291 53.9933 204.017 52.7895 204.017 51.255ZM209.335 51.255C209.335 50.6024 209.291 50.0557 209.203 49.6147C209.124 49.165 208.956 48.799 208.7 48.5168C208.453 48.2346 208.083 48.0934 207.589 48.0934C207.095 48.0934 206.72 48.2346 206.465 48.5168C206.218 48.799 206.05 49.165 205.962 49.6147C205.883 50.0557 205.843 50.6024 205.843 51.255C205.843 51.9253 205.883 52.4897 205.962 52.9483C206.041 53.3981 206.209 53.764 206.465 54.0462C206.72 54.3196 207.095 54.4563 207.589 54.4563C208.083 54.4563 208.458 54.3196 208.714 54.0462C208.969 53.764 209.137 53.3981 209.216 52.9483C209.296 52.4897 209.335 51.9253 209.335 51.255ZM212.596 49.0988C212.64 48.2169 212.949 47.5379 213.522 47.0616C214.104 46.5766 214.867 46.3341 215.81 46.3341C216.454 46.3341 217.005 46.4487 217.464 46.678C217.923 46.8985 218.266 47.2027 218.496 47.5908C218.734 47.97 218.853 48.4021 218.853 48.8872C218.853 49.4427 218.707 49.9146 218.416 50.3026C218.134 50.6818 217.795 50.9376 217.398 51.0698V51.1228C217.909 51.2815 218.306 51.5637 218.588 51.9694C218.879 52.3751 219.025 52.8954 219.025 53.5303C219.025 54.0595 218.901 54.5313 218.654 54.9458C218.416 55.3603 218.059 55.6866 217.583 55.9247C217.116 56.154 216.551 56.2686 215.89 56.2686C214.893 56.2686 214.082 56.0173 213.456 55.5146C212.83 55.0119 212.499 54.2711 212.464 53.2922H214.263C214.28 53.7244 214.426 54.0727 214.699 54.3373C214.981 54.593 215.365 54.7209 215.85 54.7209C216.3 54.7209 216.644 54.5974 216.882 54.3505C217.129 54.0948 217.252 53.7685 217.252 53.3716C217.252 52.8425 217.085 52.4632 216.75 52.234C216.414 52.0047 215.894 51.89 215.189 51.89H214.805V50.3687H215.189C216.441 50.3687 217.067 49.9498 217.067 49.112C217.067 48.7328 216.952 48.4374 216.723 48.2257C216.503 48.0141 216.181 47.9082 215.757 47.9082C215.343 47.9082 215.021 48.0229 214.792 48.2522C214.571 48.4727 214.443 48.7549 214.408 49.0988H212.596Z" fill="#616161"/>
<path d="M203.837 100.561C203.837 99.0355 204.11 97.8406 204.657 96.9763C205.212 96.1121 206.13 95.6799 207.408 95.6799C208.687 95.6799 209.6 96.1121 210.147 96.9763C210.702 97.8406 210.98 99.0355 210.98 100.561C210.98 102.096 210.702 103.3 210.147 104.173C209.6 105.046 208.687 105.482 207.408 105.482C206.13 105.482 205.212 105.046 204.657 104.173C204.11 103.3 203.837 102.096 203.837 100.561ZM209.154 100.561C209.154 99.9086 209.11 99.3618 209.022 98.9209C208.943 98.4711 208.775 98.1051 208.519 97.8229C208.273 97.5407 207.902 97.3996 207.408 97.3996C206.914 97.3996 206.54 97.5407 206.284 97.8229C206.037 98.1051 205.869 98.4711 205.781 98.9209C205.702 99.3618 205.662 99.9086 205.662 100.561C205.662 101.231 205.702 101.796 205.781 102.254C205.861 102.704 206.028 103.07 206.284 103.352C206.54 103.626 206.914 103.763 207.408 103.763C207.902 103.763 208.277 103.626 208.533 103.352C208.788 103.07 208.956 102.704 209.035 102.254C209.115 101.796 209.154 101.231 209.154 100.561ZM214.532 102.797C214.602 103.185 214.761 103.485 215.008 103.696C215.264 103.899 215.603 104.001 216.026 104.001C216.573 104.001 216.97 103.776 217.217 103.326C217.464 102.867 217.587 102.1 217.587 101.024C217.384 101.306 217.098 101.527 216.727 101.686C216.366 101.844 215.973 101.924 215.55 101.924C214.986 101.924 214.474 101.809 214.016 101.58C213.566 101.342 213.209 100.993 212.944 100.535C212.68 100.067 212.547 99.503 212.547 98.8415C212.547 97.8626 212.838 97.0866 213.42 96.5133C214.002 95.9313 214.796 95.6402 215.801 95.6402C217.054 95.6402 217.936 96.0415 218.447 96.844C218.968 97.6466 219.228 98.8548 219.228 100.469C219.228 101.615 219.126 102.554 218.923 103.286C218.729 104.018 218.39 104.574 217.905 104.953C217.429 105.332 216.776 105.522 215.947 105.522C215.294 105.522 214.739 105.398 214.28 105.151C213.822 104.896 213.469 104.565 213.222 104.159C212.984 103.745 212.847 103.291 212.812 102.797H214.532ZM215.934 100.416C216.392 100.416 216.754 100.275 217.019 99.9924C217.283 99.7102 217.415 99.331 217.415 98.8548C217.415 98.3344 217.274 97.9332 216.992 97.651C216.719 97.3599 216.344 97.2144 215.868 97.2144C215.391 97.2144 215.012 97.3644 214.73 97.6642C214.457 97.9552 214.32 98.3433 214.32 98.8283C214.32 99.2957 214.452 99.6793 214.717 99.9792C214.99 100.27 215.396 100.416 215.934 100.416Z" fill="#616161"/>
<path d="M205.375 145.675V143.968H208.563V153.612H206.658V145.675H205.375ZM216.875 145.569H212.589V147.831C212.774 147.602 213.038 147.417 213.382 147.276C213.726 147.126 214.092 147.051 214.48 147.051C215.186 147.051 215.763 147.205 216.213 147.514C216.663 147.822 216.989 148.219 217.192 148.704C217.395 149.18 217.496 149.692 217.496 150.239C217.496 151.253 217.205 152.069 216.623 152.686C216.05 153.303 215.23 153.612 214.163 153.612C213.157 153.612 212.355 153.361 211.755 152.858C211.156 152.355 210.816 151.698 210.737 150.887H212.536C212.615 151.24 212.791 151.522 213.065 151.734C213.347 151.945 213.704 152.051 214.136 152.051C214.657 152.051 215.049 151.888 215.314 151.562C215.578 151.235 215.71 150.803 215.71 150.265C215.71 149.718 215.574 149.304 215.3 149.022C215.036 148.731 214.643 148.585 214.123 148.585C213.753 148.585 213.444 148.678 213.197 148.863C212.95 149.048 212.774 149.295 212.668 149.604H210.895V143.942H216.875V145.569Z" fill="#616161"/>
<path d="M206.641 200.828C207.487 200.123 208.162 199.536 208.665 199.069C209.167 198.593 209.586 198.099 209.921 197.587C210.256 197.076 210.424 196.573 210.424 196.079C210.424 195.629 210.318 195.277 210.106 195.021C209.895 194.765 209.568 194.637 209.128 194.637C208.687 194.637 208.347 194.787 208.109 195.087C207.871 195.378 207.747 195.779 207.739 196.291H205.939C205.975 195.233 206.288 194.43 206.879 193.883C207.478 193.337 208.237 193.063 209.154 193.063C210.159 193.063 210.931 193.332 211.469 193.87C212.007 194.399 212.276 195.1 212.276 195.973C212.276 196.661 212.091 197.318 211.72 197.944C211.35 198.571 210.927 199.117 210.45 199.585C209.974 200.043 209.352 200.599 208.585 201.252H212.488V202.786H205.953V201.41L206.641 200.828ZM213.43 194.981V193.275H216.618V202.918H214.713V194.981H213.43Z" fill="#616161"/>
<path d="M251.707 51.255C251.707 49.7294 251.981 48.5344 252.528 47.6701C253.083 46.8059 254 46.3737 255.279 46.3737C256.558 46.3737 257.471 46.8059 258.017 47.6701C258.573 48.5344 258.851 49.7294 258.851 51.255C258.851 52.7895 258.573 53.9933 258.017 54.8664C257.471 55.7395 256.558 56.176 255.279 56.176C254 56.176 253.083 55.7395 252.528 54.8664C251.981 53.9933 251.707 52.7895 251.707 51.255ZM257.025 51.255C257.025 50.6024 256.981 50.0557 256.893 49.6147C256.814 49.165 256.646 48.799 256.39 48.5168C256.143 48.2346 255.773 48.0934 255.279 48.0934C254.785 48.0934 254.41 48.2346 254.155 48.5168C253.908 48.799 253.74 49.165 253.652 49.6147C253.573 50.0557 253.533 50.6024 253.533 51.255C253.533 51.9253 253.573 52.4897 253.652 52.9483C253.731 53.3981 253.899 53.764 254.155 54.0462C254.41 54.3196 254.785 54.4563 255.279 54.4563C255.773 54.4563 256.148 54.3196 256.403 54.0462C256.659 53.764 256.827 53.3981 256.906 52.9483C256.986 52.4897 257.025 51.9253 257.025 51.255ZM260.18 54.324V52.8689L264.506 46.678H266.662V52.7102H267.826V54.324H266.662V56.2025H264.81V54.324H260.18ZM264.929 48.6623L262.217 52.7102H264.929V48.6623Z" fill="#616161"/>
<path d="M253.459 97.5716V95.8651H256.647V105.509H254.742V97.5716H253.459ZM258.477 100.561C258.477 99.0355 258.75 97.8406 259.297 96.9763C259.852 96.1121 260.77 95.6799 262.048 95.6799C263.327 95.6799 264.24 96.1121 264.787 96.9763C265.342 97.8406 265.62 99.0355 265.62 100.561C265.62 102.096 265.342 103.3 264.787 104.173C264.24 105.046 263.327 105.482 262.048 105.482C260.77 105.482 259.852 105.046 259.297 104.173C258.75 103.3 258.477 102.096 258.477 100.561ZM263.794 100.561C263.794 99.9086 263.75 99.3618 263.662 98.9209C263.583 98.4711 263.415 98.1051 263.159 97.8229C262.913 97.5407 262.542 97.3996 262.048 97.3996C261.554 97.3996 261.18 97.5407 260.924 97.8229C260.677 98.1051 260.509 98.4711 260.421 98.9209C260.342 99.3618 260.302 99.9086 260.302 100.561C260.302 101.231 260.342 101.796 260.421 102.254C260.501 102.704 260.668 103.07 260.924 103.352C261.18 103.626 261.554 103.763 262.048 103.763C262.542 103.763 262.917 103.626 263.173 103.352C263.428 103.07 263.596 102.704 263.675 102.254C263.755 101.796 263.794 101.231 263.794 100.561Z" fill="#616161"/>
<path d="M253.504 145.675V143.968H256.692V153.612H254.787V145.675H253.504ZM263.522 146.376C263.434 146.006 263.28 145.728 263.059 145.543C262.848 145.357 262.539 145.265 262.133 145.265C261.525 145.265 261.075 145.512 260.784 146.006C260.502 146.491 260.356 147.284 260.347 148.387C260.559 148.034 260.868 147.761 261.273 147.567C261.679 147.364 262.12 147.262 262.596 147.262C263.169 147.262 263.677 147.386 264.117 147.633C264.558 147.88 264.902 148.241 265.149 148.717C265.396 149.185 265.52 149.749 265.52 150.411C265.52 151.037 265.392 151.597 265.136 152.091C264.889 152.576 264.523 152.955 264.038 153.228C263.553 153.502 262.975 153.638 262.305 153.638C261.388 153.638 260.665 153.436 260.136 153.03C259.615 152.624 259.249 152.06 259.038 151.337C258.835 150.605 258.733 149.705 258.733 148.638C258.733 147.024 259.011 145.807 259.567 144.987C260.122 144.158 261 143.744 262.199 143.744C263.125 143.744 263.844 143.995 264.356 144.498C264.867 145 265.163 145.626 265.242 146.376H263.522ZM262.173 148.784C261.705 148.784 261.313 148.92 260.996 149.194C260.678 149.467 260.519 149.864 260.519 150.384C260.519 150.905 260.665 151.315 260.956 151.615C261.256 151.914 261.675 152.064 262.213 152.064C262.689 152.064 263.064 151.919 263.337 151.628C263.619 151.337 263.76 150.944 263.76 150.45C263.76 149.939 263.624 149.533 263.35 149.233C263.086 148.934 262.693 148.784 262.173 148.784Z" fill="#616161"/>
<path d="M253.342 200.828C254.189 200.123 254.864 199.536 255.366 199.069C255.869 198.593 256.288 198.099 256.623 197.587C256.958 197.076 257.126 196.573 257.126 196.079C257.126 195.629 257.02 195.277 256.808 195.021C256.596 194.765 256.27 194.637 255.829 194.637C255.388 194.637 255.049 194.787 254.811 195.087C254.573 195.378 254.449 195.779 254.44 196.291H252.641C252.676 195.233 252.99 194.43 253.58 193.883C254.18 193.337 254.939 193.063 255.856 193.063C256.861 193.063 257.633 193.332 258.171 193.87C258.709 194.399 258.978 195.1 258.978 195.973C258.978 196.661 258.792 197.318 258.422 197.944C258.052 198.571 257.628 199.117 257.152 199.585C256.676 200.043 256.054 200.599 255.287 201.252H259.189V202.786H252.654V201.41L253.342 200.828ZM260.938 200.828C261.785 200.123 262.46 199.536 262.962 199.069C263.465 198.593 263.884 198.099 264.219 197.587C264.554 197.076 264.722 196.573 264.722 196.079C264.722 195.629 264.616 195.277 264.404 195.021C264.192 194.765 263.866 194.637 263.425 194.637C262.984 194.637 262.645 194.787 262.407 195.087C262.169 195.378 262.045 195.779 262.036 196.291H260.237C260.272 195.233 260.586 194.43 261.176 193.883C261.776 193.337 262.535 193.063 263.452 193.063C264.457 193.063 265.229 193.332 265.767 193.87C266.305 194.399 266.574 195.1 266.574 195.973C266.574 196.661 266.388 197.318 266.018 197.944C265.648 198.571 265.224 199.117 264.748 199.585C264.272 200.043 263.65 200.599 262.883 201.252H266.785V202.786H260.25V201.41L260.938 200.828Z" fill="#616161"/>
<path d="M299.927 51.255C299.927 49.7294 300.201 48.5344 300.747 47.6701C301.303 46.8059 302.22 46.3737 303.499 46.3737C304.778 46.3737 305.69 46.8059 306.237 47.6701C306.793 48.5344 307.071 49.7294 307.071 51.255C307.071 52.7895 306.793 53.9933 306.237 54.8664C305.69 55.7395 304.778 56.176 303.499 56.176C302.22 56.176 301.303 55.7395 300.747 54.8664C300.201 53.9933 299.927 52.7895 299.927 51.255ZM305.245 51.255C305.245 50.6024 305.201 50.0557 305.113 49.6147C305.033 49.165 304.866 48.799 304.61 48.5168C304.363 48.2346 303.993 48.0934 303.499 48.0934C303.005 48.0934 302.63 48.2346 302.374 48.5168C302.128 48.799 301.96 49.165 301.872 49.6147C301.792 50.0557 301.753 50.6024 301.753 51.255C301.753 51.9253 301.792 52.4897 301.872 52.9483C301.951 53.3981 302.119 53.764 302.374 54.0462C302.63 54.3196 303.005 54.4563 303.499 54.4563C303.993 54.4563 304.368 54.3196 304.623 54.0462C304.879 53.764 305.047 53.3981 305.126 52.9483C305.205 52.4897 305.245 51.9253 305.245 51.255ZM314.961 48.1596H310.675V50.4217C310.86 50.1924 311.125 50.0072 311.469 49.8661C311.813 49.7161 312.179 49.6412 312.567 49.6412C313.272 49.6412 313.85 49.7955 314.3 50.1042C314.749 50.4128 315.076 50.8097 315.279 51.2947C315.481 51.771 315.583 52.2825 315.583 52.8292C315.583 53.8434 315.292 54.6592 314.71 55.2765C314.137 55.8938 313.316 56.2025 312.249 56.2025C311.244 56.2025 310.441 55.9511 309.842 55.4485C309.242 54.9458 308.903 54.2888 308.823 53.4774H310.622C310.702 53.8302 310.878 54.1124 311.151 54.324C311.434 54.5357 311.791 54.6415 312.223 54.6415C312.743 54.6415 313.136 54.4784 313.4 54.1521C313.665 53.8258 313.797 53.3936 313.797 52.8557C313.797 52.3089 313.66 51.8944 313.387 51.6122C313.122 51.3212 312.73 51.1757 312.21 51.1757C311.839 51.1757 311.531 51.2683 311.284 51.4535C311.037 51.6387 310.86 51.8856 310.754 52.1943H308.982V46.5325H314.961V48.1596Z" fill="#616161"/>
<path d="M303.442 97.5716V95.8651H306.63V105.509H304.725V97.5716H303.442ZM308.235 97.5716V95.8651H311.423V105.509H309.518V97.5716H308.235Z" fill="#616161"/>
<path d="M302.215 145.675V143.968H305.403V153.612H303.498V145.675H302.215ZM313.371 145.371L309.852 153.612H307.973L311.519 145.582H306.994V143.995H313.371V145.371Z" fill="#616161"/>
<path d="M301.284 200.828C302.131 200.123 302.806 199.536 303.308 199.069C303.811 198.593 304.23 198.099 304.565 197.587C304.9 197.076 305.068 196.573 305.068 196.079C305.068 195.629 304.962 195.277 304.75 195.021C304.539 194.765 304.212 194.637 303.771 194.637C303.33 194.637 302.991 194.787 302.753 195.087C302.515 195.378 302.391 195.779 302.382 196.291H300.583C300.619 195.233 300.932 194.43 301.522 193.883C302.122 193.337 302.881 193.063 303.798 193.063C304.803 193.063 305.575 193.332 306.113 193.87C306.651 194.399 306.92 195.1 306.92 195.973C306.92 196.661 306.734 197.318 306.364 197.944C305.994 198.571 305.57 199.117 305.094 199.585C304.618 200.043 303.996 200.599 303.229 201.252H307.131V202.786H300.596V201.41L301.284 200.828ZM308.325 195.815C308.369 194.933 308.678 194.254 309.251 193.777C309.833 193.292 310.596 193.05 311.539 193.05C312.183 193.05 312.734 193.165 313.193 193.394C313.651 193.614 313.995 193.919 314.225 194.307C314.463 194.686 314.582 195.118 314.582 195.603C314.582 196.159 314.436 196.63 314.145 197.018C313.863 197.398 313.524 197.653 313.127 197.786V197.839C313.638 197.997 314.035 198.28 314.317 198.685C314.608 199.091 314.754 199.611 314.754 200.246C314.754 200.775 314.63 201.247 314.383 201.662C314.145 202.076 313.788 202.402 313.312 202.641C312.845 202.87 312.28 202.984 311.619 202.984C310.622 202.984 309.811 202.733 309.185 202.23C308.558 201.728 308.228 200.987 308.193 200.008H309.992C310.009 200.44 310.155 200.789 310.428 201.053C310.71 201.309 311.094 201.437 311.579 201.437C312.029 201.437 312.373 201.313 312.611 201.066C312.858 200.811 312.981 200.484 312.981 200.087C312.981 199.558 312.814 199.179 312.479 198.95C312.143 198.721 311.623 198.606 310.918 198.606H310.534V197.085H310.918C312.17 197.085 312.796 196.666 312.796 195.828C312.796 195.449 312.681 195.153 312.452 194.942C312.232 194.73 311.91 194.624 311.486 194.624C311.072 194.624 310.75 194.739 310.521 194.968C310.3 195.189 310.172 195.471 310.137 195.815H308.325Z" fill="white"/>
</svg>
