<svg width="375" height="256" viewBox="0 0 375 256" fill="none" xmlns="http://www.w3.org/2000/svg">
<rect x="48" y="32" width="37.0456" height="37.0456" rx="11.5767" fill="#E8E8E8"/>
<rect x="94.3071" y="32" width="37.0456" height="37.0456" rx="11.5767" fill="#0056D6"/>
<rect x="140.614" y="32" width="37.0456" height="37.0456" rx="11.5767" fill="#E8E8E8"/>
<rect x="186.921" y="32" width="37.0456" height="37.0456" rx="11.5767" fill="#E8E8E8"/>
<rect x="233.228" y="32" width="37.0456" height="37.0456" rx="11.5767" fill="#E8E8E8"/>
<rect x="279.535" y="32" width="37.0456" height="37.0456" rx="11.5767" fill="#E8E8E8"/>
<rect x="48" y="78.9961" width="37.0456" height="37.0456" rx="11.5767" fill="#E8E8E8"/>
<rect x="94.3071" y="78.9961" width="37.0456" height="37.0456" rx="11.5767" fill="#E8E8E8"/>
<rect x="140.614" y="78.9961" width="37.0456" height="37.0456" rx="11.5767" fill="#E8E8E8"/>
<rect x="112.83" y="79.0018" width="18.5228" height="37.0456" rx="9.26141" fill="#76BB40"/>
<rect x="66.5228" y="32" width="18.5228" height="37.0456" rx="9.26141" fill="#0056D6"/>
<rect x="186.921" y="78.9961" width="37.0456" height="37.0456" rx="11.5767" fill="#E8E8E8"/>
<rect x="233.228" y="78.9961" width="37.0456" height="37.0456" rx="11.5767" fill="#E8E8E8"/>
<rect x="279.535" y="78.9961" width="37.0456" height="37.0456" rx="11.5767" fill="#E8E8E8"/>
<rect x="279.535" y="125.772" width="37.0456" height="37.0456" rx="11.5767" fill="#E8E8E8"/>
<rect x="48" y="125.992" width="37.0456" height="37.0456" rx="11.5767" fill="#E8E8E8"/>
<rect x="94.3071" y="125.992" width="37.0456" height="37.0456" rx="11.5767" fill="#E8E8E8"/>
<rect x="140.614" y="125.992" width="37.0456" height="37.0456" rx="11.5767" fill="#FCC700"/>
<rect x="186.921" y="125.992" width="37.0456" height="37.0456" rx="11.5767" fill="#FCC700"/>
<rect x="233.228" y="125.992" width="37.0456" height="37.0456" rx="11.5767" fill="#E8E8E8"/>
<rect x="48" y="172.988" width="37.0456" height="37.0456" rx="11.5767" fill="#E8E8E8"/>
<rect x="94.3071" y="172.988" width="37.0456" height="37.0456" rx="11.5767" fill="#FF4015"/>
<rect x="140.614" y="172.988" width="37.0456" height="37.0456" rx="11.5767" fill="#E8E8E8"/>
<rect x="186.921" y="172.988" width="37.0456" height="37.0456" rx="11.5767" fill="#E8E8E8"/>
<rect x="233.228" y="172.988" width="37.0456" height="37.0456" rx="11.5767" fill="#E8E8E8"/>
<rect x="279.535" y="172.988" width="37.0456" height="37.0456" rx="11.5767" fill="#E8E8E8"/>
<rect x="233.228" y="125.772" width="18.5228" height="37.0456" rx="9.26141" fill="#FCC700"/>
<rect x="140.614" y="173.236" width="18.5228" height="37.0456" rx="9.26141" fill="#FF4015"/>
<path d="M279.535 90.5786C279.535 84.1849 284.718 79.0018 291.112 79.0018H298.058V116.047H291.112C284.718 116.047 279.535 110.864 279.535 104.471V90.5786Z" fill="#76BB40"/>
<path d="M316.581 90.5786C316.581 84.1849 311.398 79.0018 305.004 79.0018H298.058V116.047H305.004C311.398 116.047 316.581 110.864 316.581 104.471V90.5786Z" fill="#0056D6"/>
<rect x="61.8921" y="41.2614" width="74.0913" height="18.5228" rx="8.68256" fill="#323232" fill-opacity="0.4"/>
<path d="M92.3472 47.9951H93.3545V52.4604H92.3472V47.9951ZM90.6198 49.7225H95.0851V50.7298H90.6198V49.7225ZM99.0971 53.5227H97.9024V48.0694H97.8637L96.3171 49.0574V47.9693L97.9573 46.9102H99.0971V53.5227ZM101.076 53.5937C100.949 53.5937 100.831 53.5615 100.721 53.4969C100.611 53.4323 100.524 53.3473 100.459 53.2418C100.397 53.1342 100.367 53.0158 100.369 52.8866C100.367 52.7596 100.397 52.6423 100.459 52.5347C100.524 52.4249 100.611 52.3399 100.721 52.2796C100.831 52.2172 100.949 52.186 101.076 52.186C101.201 52.186 101.318 52.2172 101.428 52.2796C101.538 52.3399 101.624 52.4249 101.686 52.5347C101.751 52.6445 101.783 52.7618 101.783 52.8866C101.783 53.0136 101.751 53.131 101.686 53.2386C101.624 53.3462 101.538 53.4323 101.428 53.4969C101.318 53.5615 101.201 53.5937 101.076 53.5937ZM105.159 53.6131C104.724 53.6131 104.333 53.5324 103.984 53.371C103.635 53.2095 103.359 52.9857 103.154 52.6994C102.95 52.4131 102.842 52.0891 102.831 51.7275H103.987C104.002 51.9062 104.062 52.0655 104.168 52.2054C104.275 52.3431 104.415 52.4518 104.588 52.5315C104.762 52.6111 104.952 52.6509 105.159 52.6509C105.402 52.6509 105.621 52.5971 105.815 52.4895C106.008 52.3797 106.159 52.2291 106.267 52.0375C106.376 51.8438 106.431 51.6253 106.431 51.382C106.431 51.1345 106.375 50.9128 106.263 50.7169C106.154 50.5189 105.999 50.365 105.798 50.2552C105.598 50.1454 105.373 50.0895 105.124 50.0873C104.863 50.0852 104.64 50.1314 104.455 50.2262C104.27 50.3187 104.127 50.4608 104.026 50.6524H102.928L103.322 46.9102H107.229V47.9047H104.303L104.103 49.6611H104.161C104.248 49.5643 104.356 49.4782 104.488 49.4028C104.621 49.3253 104.769 49.2661 104.933 49.2252C105.097 49.1822 105.268 49.1607 105.446 49.1607C105.851 49.1607 106.216 49.2543 106.541 49.4416C106.866 49.6288 107.121 49.8893 107.306 50.2229C107.491 50.5566 107.584 50.9322 107.584 51.3498C107.584 51.7846 107.481 52.1742 107.274 52.5186C107.069 52.8608 106.783 53.1288 106.415 53.3225C106.049 53.5162 105.63 53.6131 105.159 53.6131Z" fill="white"/>
<rect x="89.6764" y="182.498" width="74.0913" height="18.5228" rx="8.68256" fill="#323232" fill-opacity="0.4"/>
<path d="M120.131 189.232H121.139V193.697H120.131V189.232ZM118.404 190.959H122.869V191.966H118.404V190.959ZM126.881 194.759H125.687V189.306H125.648L124.101 190.294V189.206L125.742 188.147H126.881V194.759ZM128.86 194.83C128.733 194.83 128.615 194.798 128.505 194.733C128.395 194.669 128.308 194.584 128.244 194.478C128.181 194.371 128.151 194.252 128.153 194.123C128.151 193.996 128.181 193.879 128.244 193.771C128.308 193.662 128.395 193.576 128.505 193.516C128.615 193.454 128.733 193.423 128.86 193.423C128.985 193.423 129.102 193.454 129.212 193.516C129.322 193.576 129.408 193.662 129.471 193.771C129.535 193.881 129.567 193.998 129.567 194.123C129.567 194.25 129.535 194.368 129.471 194.475C129.408 194.583 129.322 194.669 129.212 194.733C129.102 194.798 128.985 194.83 128.86 194.83ZM132.943 194.85C132.509 194.85 132.117 194.769 131.768 194.608C131.419 194.446 131.143 194.222 130.938 193.936C130.734 193.65 130.626 193.326 130.615 192.964H131.771C131.786 193.143 131.847 193.302 131.952 193.442C132.06 193.58 132.2 193.688 132.372 193.768C132.546 193.848 132.737 193.888 132.943 193.888C133.187 193.888 133.405 193.834 133.599 193.726C133.792 193.616 133.943 193.466 134.051 193.274C134.161 193.08 134.215 192.862 134.215 192.619C134.215 192.371 134.159 192.149 134.048 191.953C133.938 191.755 133.783 191.602 133.583 191.492C133.382 191.382 133.158 191.326 132.908 191.324C132.647 191.322 132.425 191.368 132.239 191.463C132.054 191.555 131.911 191.697 131.81 191.889H130.712L131.106 188.147H135.013V189.141H132.088L131.888 190.898H131.946C132.032 190.801 132.14 190.715 132.272 190.639C132.405 190.562 132.554 190.503 132.717 190.462C132.881 190.419 133.052 190.397 133.231 190.397C133.635 190.397 134 190.491 134.325 190.678C134.65 190.865 134.905 191.126 135.09 191.459C135.276 191.793 135.368 192.169 135.368 192.586C135.368 193.021 135.265 193.411 135.058 193.755C134.854 194.097 134.567 194.365 134.199 194.559C133.833 194.753 133.415 194.85 132.943 194.85Z" fill="white"/>
<rect x="109.357" y="88.726" width="26.6266" height="18.5228" rx="8.68256" fill="#323232" fill-opacity="0.4"/>
<path d="M115.189 95.4597H116.197V99.925H115.189V95.4597ZM113.462 97.1871H117.927V98.1944H113.462V97.1871ZM121.694 101.078C121.164 101.078 120.709 100.944 120.328 100.677C119.949 100.41 119.659 100.024 119.456 99.5182C119.254 99.0102 119.153 98.3979 119.153 97.6811C119.153 96.9686 119.254 96.3573 119.456 95.8471C119.659 95.337 119.95 94.9496 120.331 94.6848C120.712 94.4179 121.166 94.2844 121.694 94.2844C122.219 94.2844 122.672 94.4179 123.053 94.6848C123.434 94.9496 123.726 95.337 123.928 95.8471C124.133 96.3573 124.235 96.9686 124.235 97.6811C124.235 98.3979 124.134 99.0102 123.931 99.5182C123.731 100.026 123.441 100.414 123.06 100.681C122.679 100.945 122.223 101.078 121.694 101.078ZM121.694 100.08C121.971 100.08 122.21 99.9896 122.411 99.8088C122.611 99.628 122.765 99.3589 122.872 99.0016C122.98 98.6422 123.034 98.202 123.034 97.6811C123.034 97.1623 122.98 96.7232 122.872 96.3637C122.765 96.0021 122.61 95.7309 122.407 95.5501C122.207 95.3671 121.969 95.2757 121.694 95.2757C121.416 95.2757 121.177 95.3671 120.977 95.5501C120.779 95.7309 120.625 96.0021 120.515 96.3637C120.408 96.7232 120.353 97.1623 120.351 97.6811C120.351 98.202 120.404 98.6422 120.512 99.0016C120.62 99.3589 120.774 99.628 120.974 99.8088C121.174 99.9896 121.414 100.08 121.694 100.08ZM125.699 101.058C125.572 101.058 125.453 101.026 125.344 100.961C125.234 100.897 125.147 100.812 125.082 100.706C125.02 100.599 124.989 100.48 124.992 100.351C124.989 100.224 125.02 100.107 125.082 99.9993C125.147 99.8895 125.234 99.8045 125.344 99.7442C125.453 99.6818 125.572 99.6506 125.699 99.6506C125.824 99.6506 125.941 99.6818 126.051 99.7442C126.16 99.8045 126.247 99.8895 126.309 99.9993C126.374 100.109 126.406 100.226 126.406 100.351C126.406 100.478 126.374 100.596 126.309 100.703C126.247 100.811 126.16 100.897 126.051 100.961C125.941 101.026 125.824 101.058 125.699 101.058ZM129.782 101.078C129.347 101.078 128.955 100.997 128.607 100.836C128.258 100.674 127.981 100.45 127.777 100.164C127.572 99.8777 127.465 99.5537 127.454 99.1921H128.61C128.625 99.3708 128.685 99.5301 128.791 99.67C128.898 99.8077 129.038 99.9164 129.21 99.9961C129.385 100.076 129.575 100.116 129.782 100.116C130.025 100.116 130.243 100.062 130.437 99.9541C130.631 99.8443 130.782 99.6937 130.889 99.5021C130.999 99.3084 131.054 99.0899 131.054 98.8466C131.054 98.5991 130.998 98.3774 130.886 98.1815C130.776 97.9835 130.621 97.8296 130.421 97.7198C130.221 97.61 129.996 97.5541 129.746 97.5519C129.486 97.5498 129.263 97.596 129.078 97.6908C128.893 97.7833 128.75 97.9254 128.648 98.117H127.551L127.945 94.3748H131.851V95.3693H128.926L128.726 97.1257H128.784C128.87 97.0289 128.979 96.9428 129.11 96.8674C129.244 96.7899 129.392 96.7307 129.556 96.6898C129.719 96.6468 129.89 96.6253 130.069 96.6253C130.474 96.6253 130.839 96.7189 131.164 96.9062C131.489 97.0934 131.744 97.3539 131.929 97.6875C132.114 98.0212 132.207 98.3968 132.207 98.8144C132.207 99.2492 132.103 99.6388 131.897 99.9832C131.692 100.325 131.406 100.593 131.038 100.787C130.672 100.981 130.253 101.078 129.782 101.078Z" fill="white"/>
<rect x="269.116" y="88.726" width="26.6266" height="18.5228" rx="8.68256" fill="#323232" fill-opacity="0.4"/>
<path d="M274.949 95.4597H275.956V99.925H274.949V95.4597ZM273.221 97.1871H277.687V98.1944H273.221V97.1871ZM281.453 101.078C280.924 101.078 280.468 100.944 280.087 100.677C279.708 100.41 279.418 100.024 279.216 99.5182C279.013 99.0102 278.912 98.3979 278.912 97.6811C278.912 96.9686 279.013 96.3573 279.216 95.8471C279.418 95.337 279.71 94.9496 280.091 94.6848C280.472 94.4179 280.926 94.2844 281.453 94.2844C281.978 94.2844 282.431 94.4179 282.812 94.6848C283.193 94.9496 283.485 95.337 283.687 95.8471C283.892 96.3573 283.994 96.9686 283.994 97.6811C283.994 98.3979 283.893 99.0102 283.691 99.5182C283.49 100.026 283.2 100.414 282.819 100.681C282.438 100.945 281.983 101.078 281.453 101.078ZM281.453 100.08C281.731 100.08 281.97 99.9896 282.17 99.8088C282.37 99.628 282.524 99.3589 282.632 99.0016C282.739 98.6422 282.793 98.202 282.793 97.6811C282.793 97.1623 282.739 96.7232 282.632 96.3637C282.524 96.0021 282.369 95.7309 282.167 95.5501C281.966 95.3671 281.729 95.2757 281.453 95.2757C281.175 95.2757 280.936 95.3671 280.736 95.5501C280.538 95.7309 280.384 96.0021 280.275 96.3637C280.167 96.7232 280.112 97.1623 280.11 97.6811C280.11 98.202 280.164 98.6422 280.271 99.0016C280.379 99.3589 280.533 99.628 280.733 99.8088C280.933 99.9896 281.173 100.08 281.453 100.08ZM285.458 101.058C285.331 101.058 285.213 101.026 285.103 100.961C284.993 100.897 284.906 100.812 284.841 100.706C284.779 100.599 284.749 100.48 284.751 100.351C284.749 100.224 284.779 100.107 284.841 99.9993C284.906 99.8895 284.993 99.8045 285.103 99.7442C285.213 99.6818 285.331 99.6506 285.458 99.6506C285.583 99.6506 285.7 99.6818 285.81 99.7442C285.92 99.8045 286.006 99.8895 286.068 99.9993C286.133 100.109 286.165 100.226 286.165 100.351C286.165 100.478 286.133 100.596 286.068 100.703C286.006 100.811 285.92 100.897 285.81 100.961C285.7 101.026 285.583 101.058 285.458 101.058ZM289.541 101.078C289.106 101.078 288.714 100.997 288.366 100.836C288.017 100.674 287.74 100.45 287.536 100.164C287.332 99.8777 287.224 99.5537 287.213 99.1921H288.369C288.384 99.3708 288.444 99.5301 288.55 99.67C288.657 99.8077 288.797 99.9164 288.97 99.9961C289.144 100.076 289.334 100.116 289.541 100.116C289.784 100.116 290.003 100.062 290.196 99.9541C290.39 99.8443 290.541 99.6937 290.649 99.5021C290.758 99.3084 290.813 99.0899 290.813 98.8466C290.813 98.5991 290.757 98.3774 290.645 98.1815C290.536 97.9835 290.381 97.8296 290.18 97.7198C289.98 97.61 289.755 97.5541 289.506 97.5519C289.245 97.5498 289.022 97.596 288.837 97.6908C288.652 97.7833 288.509 97.9254 288.408 98.117H287.31L287.704 94.3748H291.611V95.3693H288.685L288.485 97.1257H288.543C288.629 97.0289 288.738 96.9428 288.869 96.8674C289.003 96.7899 289.151 96.7307 289.315 96.6898C289.479 96.6468 289.65 96.6253 289.828 96.6253C290.233 96.6253 290.598 96.7189 290.923 96.9062C291.248 97.0934 291.503 97.3539 291.688 97.6875C291.873 98.0212 291.966 98.3968 291.966 98.8144C291.966 99.2492 291.863 99.6388 291.656 99.9832C291.451 100.325 291.165 100.593 290.797 100.787C290.431 100.981 290.012 101.078 289.541 101.078Z" fill="white"/>
<rect x="135.983" y="135.033" width="119.241" height="18.5228" rx="8.68256" fill="#323232" fill-opacity="0.4"/>
<path d="M188.278 141.767H189.285V146.232H188.278V141.767ZM186.551 143.494H191.016V144.502H186.551V143.494ZM192.117 146.433L194.451 144.182C194.705 143.928 194.901 143.719 195.039 143.556C195.178 143.392 195.285 143.232 195.358 143.075C195.431 142.915 195.469 142.746 195.471 142.568C195.469 142.365 195.418 142.188 195.319 142.035C195.223 141.882 195.088 141.765 194.916 141.683C194.744 141.601 194.549 141.56 194.331 141.56C194.108 141.56 193.912 141.606 193.744 141.696C193.576 141.784 193.446 141.911 193.353 142.077C193.263 142.243 193.218 142.436 193.218 142.658H192.087C192.085 142.247 192.18 141.885 192.372 141.573C192.565 141.259 192.833 141.017 193.176 140.847C193.518 140.677 193.908 140.592 194.348 140.592C194.789 140.592 195.181 140.674 195.523 140.837C195.867 141.001 196.134 141.229 196.324 141.522C196.513 141.812 196.608 142.141 196.608 142.506C196.608 142.765 196.558 143.012 196.459 143.249C196.362 143.484 196.194 143.745 195.956 144.034C195.719 144.322 195.382 144.673 194.945 145.086L193.773 146.252V146.3H196.708V147.295H192.12L192.117 146.433ZM198.477 147.366C198.35 147.366 198.232 147.333 198.122 147.269C198.012 147.204 197.925 147.119 197.86 147.014C197.798 146.906 197.768 146.788 197.77 146.659C197.768 146.532 197.798 146.414 197.86 146.307C197.925 146.197 198.012 146.112 198.122 146.052C198.232 145.989 198.35 145.958 198.477 145.958C198.602 145.958 198.719 145.989 198.829 146.052C198.939 146.112 199.025 146.197 199.087 146.307C199.152 146.416 199.184 146.534 199.184 146.659C199.184 146.786 199.152 146.903 199.087 147.011C199.025 147.118 198.939 147.204 198.829 147.269C198.719 147.333 198.602 147.366 198.477 147.366ZM202.56 147.385C202.125 147.385 201.733 147.304 201.385 147.143C201.036 146.981 200.759 146.758 200.555 146.471C200.351 146.185 200.243 145.861 200.232 145.499H201.388C201.403 145.678 201.463 145.837 201.569 145.977C201.676 146.115 201.816 146.224 201.989 146.303C202.163 146.383 202.353 146.423 202.56 146.423C202.803 146.423 203.022 146.369 203.215 146.261C203.409 146.152 203.56 146.001 203.668 145.809C203.777 145.616 203.832 145.397 203.832 145.154C203.832 144.906 203.776 144.685 203.664 144.489C203.555 144.291 203.4 144.137 203.199 144.027C202.999 143.917 202.774 143.861 202.525 143.859C202.264 143.857 202.041 143.903 201.856 143.998C201.671 144.091 201.528 144.233 201.427 144.424H200.329L200.723 140.682H204.63V141.677H201.704L201.504 143.433H201.562C201.648 143.336 201.757 143.25 201.888 143.175C202.022 143.097 202.17 143.038 202.334 142.997C202.498 142.954 202.669 142.933 202.847 142.933C203.252 142.933 203.617 143.026 203.942 143.214C204.267 143.401 204.522 143.661 204.707 143.995C204.892 144.329 204.985 144.704 204.985 145.122C204.985 145.557 204.882 145.946 204.675 146.291C204.47 146.633 204.184 146.901 203.816 147.094C203.45 147.288 203.031 147.385 202.56 147.385Z" fill="white"/>
<rect x="300.373" y="88.726" width="26.6266" height="18.5228" rx="8.68256" fill="#323232" fill-opacity="0.4"/>
<path d="M306.206 95.4597H307.213V99.925H306.206V95.4597ZM304.478 97.1871H308.944V98.1944H304.478V97.1871ZM312.71 101.078C312.181 101.078 311.726 100.944 311.345 100.677C310.966 100.41 310.675 100.024 310.473 99.5182C310.27 99.0102 310.169 98.3979 310.169 97.6811C310.169 96.9686 310.27 96.3573 310.473 95.8471C310.675 95.337 310.967 94.9496 311.348 94.6848C311.729 94.4179 312.183 94.2844 312.71 94.2844C313.236 94.2844 313.689 94.4179 314.07 94.6848C314.451 94.9496 314.742 95.337 314.945 95.8471C315.149 96.3573 315.251 96.9686 315.251 97.6811C315.251 98.3979 315.15 99.0102 314.948 99.5182C314.748 100.026 314.457 100.414 314.076 100.681C313.695 100.945 313.24 101.078 312.71 101.078ZM312.71 100.08C312.988 100.08 313.227 99.9896 313.427 99.8088C313.627 99.628 313.781 99.3589 313.889 99.0016C313.996 98.6422 314.05 98.202 314.05 97.6811C314.05 97.1623 313.996 96.7232 313.889 96.3637C313.781 96.0021 313.626 95.7309 313.424 95.5501C313.224 95.3671 312.986 95.2757 312.71 95.2757C312.433 95.2757 312.194 95.3671 311.994 95.5501C311.796 95.7309 311.642 96.0021 311.532 96.3637C311.424 96.7232 311.369 97.1623 311.367 97.6811C311.367 98.202 311.421 98.6422 311.529 99.0016C311.636 99.3589 311.79 99.628 311.99 99.8088C312.19 99.9896 312.43 100.08 312.71 100.08ZM316.715 101.058C316.588 101.058 316.47 101.026 316.36 100.961C316.25 100.897 316.163 100.812 316.099 100.706C316.036 100.599 316.006 100.48 316.008 100.351C316.006 100.224 316.036 100.107 316.099 99.9993C316.163 99.8895 316.25 99.8045 316.36 99.7442C316.47 99.6818 316.588 99.6506 316.715 99.6506C316.84 99.6506 316.957 99.6818 317.067 99.7442C317.177 99.8045 317.263 99.8895 317.326 99.9993C317.39 100.109 317.422 100.226 317.422 100.351C317.422 100.478 317.39 100.596 317.326 100.703C317.263 100.811 317.177 100.897 317.067 100.961C316.957 101.026 316.84 101.058 316.715 101.058ZM320.798 101.078C320.364 101.078 319.972 100.997 319.623 100.836C319.274 100.674 318.998 100.45 318.793 100.164C318.589 99.8777 318.481 99.5537 318.47 99.1921H319.626C319.641 99.3708 319.702 99.5301 319.807 99.67C319.915 99.8077 320.055 99.9164 320.227 99.9961C320.401 100.076 320.592 100.116 320.798 100.116C321.042 100.116 321.26 100.062 321.454 99.9541C321.647 99.8443 321.798 99.6937 321.906 99.5021C322.016 99.3084 322.07 99.0899 322.07 98.8466C322.07 98.5991 322.014 98.3774 321.903 98.1815C321.793 97.9835 321.638 97.8296 321.438 97.7198C321.237 97.61 321.012 97.5541 320.763 97.5519C320.502 97.5498 320.28 97.596 320.094 97.6908C319.909 97.7833 319.766 97.9254 319.665 98.117H318.567L318.961 94.3748H322.868V95.3693H319.943L319.743 97.1257H319.801C319.887 97.0289 319.995 96.9428 320.127 96.8674C320.26 96.7899 320.409 96.7307 320.572 96.6898C320.736 96.6468 320.907 96.6253 321.086 96.6253C321.49 96.6253 321.855 96.7189 322.18 96.9062C322.505 97.0934 322.76 97.3539 322.945 97.6875C323.131 98.0212 323.223 98.3968 323.223 98.8144C323.223 99.2492 323.12 99.6388 322.913 99.9832C322.709 100.325 322.422 100.593 322.054 100.787C321.688 100.981 321.27 101.078 320.798 101.078Z" fill="white"/>
</svg>
