<svg width="241" height="154" viewBox="0 0 241 154" fill="none" xmlns="http://www.w3.org/2000/svg">
<rect width="32" height="32" rx="10" fill="#E8E8E8"/>
<rect x="40" width="32" height="32" rx="10" fill="#4172D0"/>
<rect x="80" width="32" height="32" rx="10" fill="#E8E8E8"/>
<rect x="120" width="32" height="32" rx="10" fill="#E8E8E8"/>
<rect x="160" width="32" height="32" rx="10" fill="#E8E8E8"/>
<rect x="200" width="32" height="32" rx="10" fill="#E8E8E8"/>
<rect y="40.5957" width="32" height="32" rx="10" fill="#E8E8E8"/>
<rect x="40" y="40.5957" width="32" height="32" rx="10" fill="#E8E8E8"/>
<rect x="80" y="40.5957" width="32" height="32" rx="10" fill="#E8E8E8"/>
<rect x="56" y="40.5996" width="16" height="32" rx="8" fill="#41D046"/>
<rect x="16" width="16" height="32" rx="8" fill="#4172D0"/>
<rect x="120" y="40.5957" width="32" height="32" rx="10" fill="#E8E8E8"/>
<rect x="160" y="40.5957" width="32" height="32" rx="10" fill="#E8E8E8"/>
<rect x="200" y="40.5957" width="32" height="32" rx="10" fill="#E8E8E8"/>
<rect x="200" y="81" width="32" height="32" rx="10" fill="#E8E8E8"/>
<rect y="81.1904" width="32" height="32" rx="10" fill="#E8E8E8"/>
<rect x="40" y="81.1904" width="32" height="32" rx="10" fill="#E8E8E8"/>
<rect x="80" y="81.1904" width="32" height="32" rx="10" fill="#FF9900"/>
<rect x="120" y="81.1904" width="32" height="32" rx="10" fill="#FF9900"/>
<rect x="160" y="81.1904" width="32" height="32" rx="10" fill="#E8E8E8"/>
<rect y="121.785" width="32" height="32" rx="10" fill="#E8E8E8"/>
<rect x="40" y="121.785" width="32" height="32" rx="10" fill="#D0414A"/>
<rect x="80" y="121.785" width="32" height="32" rx="10" fill="#E8E8E8"/>
<rect x="120" y="121.785" width="32" height="32" rx="10" fill="#E8E8E8"/>
<rect x="160" y="121.785" width="32" height="32" rx="10" fill="#E8E8E8"/>
<rect x="200" y="121.785" width="32" height="32" rx="10" fill="#E8E8E8"/>
<rect x="160" y="81" width="16" height="32" rx="8" fill="#FF9900"/>
<rect x="80" y="122" width="16" height="32" rx="8" fill="#D0414A"/>
<path d="M200 50.5996C200 45.0768 204.477 40.5996 210 40.5996H216V72.5996H210C204.477 72.5996 200 68.1225 200 62.5996V50.5996Z" fill="#41D046"/>
<path d="M232 50.5996C232 45.0768 227.523 40.5996 222 40.5996H216V72.5996H222C227.523 72.5996 232 68.1225 232 62.5996V50.5996Z" fill="#4172D0"/>
<rect x="12" y="8" width="64" height="16" rx="7.5" fill="#323232" fill-opacity="0.4"/>
<path d="M38.307 14.2252H39.1772V18.0824H38.307V14.2252ZM36.8149 15.7174H40.6721V16.5875H36.8149V15.7174ZM44.1376 19H43.1057V14.2894H43.0722L41.7363 15.1428V14.2029L43.1531 13.2881H44.1376V19ZM45.847 19.0614C45.7373 19.0614 45.6351 19.0335 45.5402 18.9777C45.4454 18.9219 45.3701 18.8485 45.3143 18.7574C45.2604 18.6644 45.2344 18.5621 45.2362 18.4506C45.2344 18.3409 45.2604 18.2395 45.3143 18.1466C45.3701 18.0517 45.4454 17.9783 45.5402 17.9262C45.6351 17.8723 45.7373 17.8454 45.847 17.8454C45.9549 17.8454 46.0562 17.8723 46.151 17.9262C46.2459 17.9783 46.3202 18.0517 46.3742 18.1466C46.4299 18.2414 46.4578 18.3427 46.4578 18.4506C46.4578 18.5603 46.4299 18.6616 46.3742 18.7546C46.3202 18.8475 46.2459 18.9219 46.151 18.9777C46.0562 19.0335 45.9549 19.0614 45.847 19.0614ZM49.374 19.0781C48.9984 19.0781 48.66 19.0084 48.3588 18.8689C48.0576 18.7295 47.8186 18.5361 47.642 18.2888C47.4654 18.0415 47.3724 17.7617 47.3631 17.4493H48.3616C48.3746 17.6036 48.4266 17.7412 48.5178 17.8621C48.6107 17.9811 48.7316 18.075 48.8803 18.1438C49.0309 18.2126 49.1955 18.247 49.374 18.247C49.5841 18.247 49.7728 18.2005 49.9401 18.1075C50.1075 18.0127 50.2376 17.8825 50.3306 17.7171C50.4254 17.5497 50.4728 17.361 50.4728 17.1509C50.4728 16.9371 50.4245 16.7456 50.3278 16.5764C50.233 16.4053 50.0991 16.2724 49.9262 16.1775C49.7533 16.0827 49.559 16.0344 49.3433 16.0325C49.1183 16.0307 48.9259 16.0706 48.766 16.1524C48.6061 16.2324 48.4824 16.3551 48.395 16.5206H47.4468L47.787 13.2881H51.1617V14.1472H48.6349L48.462 15.6644H48.5122C48.5866 15.5807 48.6804 15.5063 48.7939 15.4412C48.9091 15.3743 49.0374 15.3232 49.1787 15.2879C49.3201 15.2507 49.4679 15.2321 49.6222 15.2321C49.9718 15.2321 50.2869 15.313 50.5677 15.4747C50.8484 15.6365 51.0688 15.8615 51.2287 16.1496C51.3886 16.4378 51.4685 16.7623 51.4685 17.123C51.4685 17.4986 51.3793 17.8351 51.2008 18.1326C51.0241 18.4283 50.7768 18.6597 50.4589 18.8271C50.1428 18.9944 49.7812 19.0781 49.374 19.0781Z" fill="white"/>
<rect x="36" y="130" width="64" height="16" rx="7.5" fill="#323232" fill-opacity="0.4"/>
<path d="M62.307 136.225H63.1772V140.082H62.307V136.225ZM60.8149 137.717H64.6721V138.588H60.8149V137.717ZM68.1376 141H67.1057V136.289H67.0722L65.7363 137.143V136.203L67.1531 135.288H68.1376V141ZM69.847 141.061C69.7373 141.061 69.6351 141.033 69.5402 140.978C69.4454 140.922 69.3701 140.848 69.3143 140.757C69.2604 140.664 69.2344 140.562 69.2362 140.451C69.2344 140.341 69.2604 140.24 69.3143 140.147C69.3701 140.052 69.4454 139.978 69.5402 139.926C69.6351 139.872 69.7373 139.845 69.847 139.845C69.9549 139.845 70.0562 139.872 70.151 139.926C70.2459 139.978 70.3202 140.052 70.3742 140.147C70.4299 140.241 70.4578 140.343 70.4578 140.451C70.4578 140.56 70.4299 140.662 70.3742 140.755C70.3202 140.848 70.2459 140.922 70.151 140.978C70.0562 141.033 69.9549 141.061 69.847 141.061ZM73.374 141.078C72.9984 141.078 72.66 141.008 72.3588 140.869C72.0576 140.729 71.8186 140.536 71.642 140.289C71.4654 140.042 71.3724 139.762 71.3631 139.449H72.3616C72.3746 139.604 72.4266 139.741 72.5178 139.862C72.6107 139.981 72.7316 140.075 72.8803 140.144C73.0309 140.213 73.1955 140.247 73.374 140.247C73.5841 140.247 73.7728 140.2 73.9401 140.108C74.1075 140.013 74.2376 139.883 74.3306 139.717C74.4254 139.55 74.4728 139.361 74.4728 139.151C74.4728 138.937 74.4245 138.746 74.3278 138.576C74.233 138.405 74.0991 138.272 73.9262 138.178C73.7533 138.083 73.559 138.034 73.3433 138.033C73.1183 138.031 72.9259 138.071 72.766 138.152C72.6061 138.232 72.4824 138.355 72.395 138.521H71.4468L71.787 135.288H75.1617V136.147H72.6349L72.462 137.664H72.5122C72.5866 137.581 72.6804 137.506 72.7939 137.441C72.9091 137.374 73.0374 137.323 73.1787 137.288C73.3201 137.251 73.4679 137.232 73.6222 137.232C73.9718 137.232 74.2869 137.313 74.5677 137.475C74.8484 137.636 75.0688 137.861 75.2287 138.15C75.3886 138.438 75.4685 138.762 75.4685 139.123C75.4685 139.499 75.3793 139.835 75.2008 140.133C75.0241 140.428 74.7768 140.66 74.4589 140.827C74.1428 140.994 73.7812 141.078 73.374 141.078Z" fill="white"/>
<rect x="53" y="49" width="23" height="16" rx="7.5" fill="#323232" fill-opacity="0.4"/>
<path d="M58.038 55.2252H58.9082V59.0824H58.038V55.2252ZM56.5459 56.7174H60.4031V57.5875H56.5459V56.7174ZM63.6566 60.0781C63.1992 60.0781 62.8059 59.9628 62.4768 59.7323C62.1496 59.5017 61.8986 59.168 61.7238 58.731C61.549 58.2922 61.4617 57.7632 61.4617 57.1441C61.4617 56.5286 61.549 56.0006 61.7238 55.5599C61.8986 55.1193 62.1505 54.7846 62.4796 54.5559C62.8087 54.3253 63.2011 54.2101 63.6566 54.2101C64.1103 54.2101 64.5017 54.3253 64.8308 54.5559C65.1599 54.7846 65.4118 55.1193 65.5866 55.5599C65.7632 56.0006 65.8515 56.5286 65.8515 57.1441C65.8515 57.7632 65.7641 58.2922 65.5894 58.731C65.4164 59.1698 65.1654 59.5045 64.8363 59.735C64.5072 59.9637 64.114 60.0781 63.6566 60.0781ZM63.6566 59.2163C63.8964 59.2163 64.1028 59.1382 64.2757 58.982C64.4487 58.8258 64.5816 58.5934 64.6746 58.2848C64.7675 57.9743 64.814 57.594 64.814 57.1441C64.814 56.696 64.7675 56.3167 64.6746 56.0062C64.5816 55.6938 64.4477 55.4595 64.273 55.3033C64.1 55.1453 63.8946 55.0663 63.6566 55.0663C63.4167 55.0663 63.2104 55.1453 63.0374 55.3033C62.8664 55.4595 62.7334 55.6938 62.6386 56.0062C62.5456 56.3167 62.4982 56.696 62.4964 57.1441C62.4964 57.594 62.5429 57.9743 62.6358 58.2848C62.7288 58.5934 62.8617 58.8258 63.0346 58.982C63.2076 59.1382 63.4149 59.2163 63.6566 59.2163ZM67.1161 60.0614C67.0064 60.0614 66.9041 60.0335 66.8093 59.9777C66.7145 59.9219 66.6392 59.8485 66.5834 59.7574C66.5295 59.6644 66.5034 59.5621 66.5053 59.4506C66.5034 59.3409 66.5295 59.2395 66.5834 59.1466C66.6392 59.0517 66.7145 58.9783 66.8093 58.9262C66.9041 58.8723 67.0064 58.8454 67.1161 58.8454C67.2239 58.8454 67.3253 58.8723 67.4201 58.9262C67.5149 58.9783 67.5893 59.0517 67.6432 59.1466C67.699 59.2414 67.7269 59.3427 67.7269 59.4506C67.7269 59.5603 67.699 59.6616 67.6432 59.7546C67.5893 59.8475 67.5149 59.9219 67.4201 59.9777C67.3253 60.0335 67.2239 60.0614 67.1161 60.0614ZM70.643 60.0781C70.2674 60.0781 69.929 60.0084 69.6278 59.8689C69.3266 59.7295 69.0877 59.5361 68.9111 59.2888C68.7344 59.0415 68.6415 58.7617 68.6322 58.4493H69.6306C69.6436 58.6036 69.6957 58.7412 69.7868 58.8621C69.8798 58.9811 70.0006 59.075 70.1494 59.1438C70.3 59.2126 70.4645 59.247 70.643 59.247C70.8531 59.247 71.0418 59.2005 71.2092 59.1075C71.3765 59.0127 71.5067 58.8825 71.5996 58.7171C71.6945 58.5497 71.7419 58.361 71.7419 58.1509C71.7419 57.9371 71.6935 57.7456 71.5969 57.5764C71.502 57.4053 71.3682 57.2724 71.1952 57.1775C71.0223 57.0827 70.828 57.0344 70.6123 57.0325C70.3874 57.0307 70.1949 57.0706 70.035 57.1524C69.8751 57.2324 69.7515 57.3551 69.6641 57.5206H68.7158L69.0561 54.2881H72.4308V55.1472H69.9039L69.731 56.6644H69.7812C69.8556 56.5807 69.9495 56.5063 70.0629 56.4412C70.1782 56.3743 70.3065 56.3232 70.4478 56.2879C70.5891 56.2507 70.7369 56.2321 70.8912 56.2321C71.2408 56.2321 71.5559 56.313 71.8367 56.4747C72.1175 56.6365 72.3378 56.8615 72.4977 57.1496C72.6576 57.4378 72.7376 57.7623 72.7376 58.123C72.7376 58.4986 72.6483 58.8351 72.4698 59.1326C72.2932 59.4283 72.0459 59.6597 71.7279 59.8271C71.4119 59.9944 71.0502 60.0781 70.643 60.0781Z" fill="white"/>
<rect x="191" y="49" width="23" height="16" rx="7.5" fill="#323232" fill-opacity="0.4"/>
<path d="M196.038 55.2252H196.908V59.0824H196.038V55.2252ZM194.546 56.7174H198.403V57.5875H194.546V56.7174ZM201.657 60.0781C201.199 60.0781 200.806 59.9628 200.477 59.7323C200.15 59.5017 199.899 59.168 199.724 58.731C199.549 58.2922 199.462 57.7632 199.462 57.1441C199.462 56.5286 199.549 56.0006 199.724 55.5599C199.899 55.1193 200.151 54.7846 200.48 54.5559C200.809 54.3253 201.201 54.2101 201.657 54.2101C202.11 54.2101 202.502 54.3253 202.831 54.5559C203.16 54.7846 203.412 55.1193 203.587 55.5599C203.763 56.0006 203.852 56.5286 203.852 57.1441C203.852 57.7632 203.764 58.2922 203.589 58.731C203.416 59.1698 203.165 59.5045 202.836 59.735C202.507 59.9637 202.114 60.0781 201.657 60.0781ZM201.657 59.2163C201.896 59.2163 202.103 59.1382 202.276 58.982C202.449 58.8258 202.582 58.5934 202.675 58.2848C202.768 57.9743 202.814 57.594 202.814 57.1441C202.814 56.696 202.768 56.3167 202.675 56.0062C202.582 55.6938 202.448 55.4595 202.273 55.3033C202.1 55.1453 201.895 55.0663 201.657 55.0663C201.417 55.0663 201.21 55.1453 201.037 55.3033C200.866 55.4595 200.733 55.6938 200.639 56.0062C200.546 56.3167 200.498 56.696 200.496 57.1441C200.496 57.594 200.543 57.9743 200.636 58.2848C200.729 58.5934 200.862 58.8258 201.035 58.982C201.208 59.1382 201.415 59.2163 201.657 59.2163ZM205.116 60.0614C205.006 60.0614 204.904 60.0335 204.809 59.9777C204.714 59.9219 204.639 59.8485 204.583 59.7574C204.529 59.6644 204.503 59.5621 204.505 59.4506C204.503 59.3409 204.529 59.2395 204.583 59.1466C204.639 59.0517 204.714 58.9783 204.809 58.9262C204.904 58.8723 205.006 58.8454 205.116 58.8454C205.224 58.8454 205.325 58.8723 205.42 58.9262C205.515 58.9783 205.589 59.0517 205.643 59.1466C205.699 59.2414 205.727 59.3427 205.727 59.4506C205.727 59.5603 205.699 59.6616 205.643 59.7546C205.589 59.8475 205.515 59.9219 205.42 59.9777C205.325 60.0335 205.224 60.0614 205.116 60.0614ZM208.643 60.0781C208.267 60.0781 207.929 60.0084 207.628 59.8689C207.327 59.7295 207.088 59.5361 206.911 59.2888C206.734 59.0415 206.641 58.7617 206.632 58.4493H207.631C207.644 58.6036 207.696 58.7412 207.787 58.8621C207.88 58.9811 208.001 59.075 208.149 59.1438C208.3 59.2126 208.465 59.247 208.643 59.247C208.853 59.247 209.042 59.2005 209.209 59.1075C209.377 59.0127 209.507 58.8825 209.6 58.7171C209.694 58.5497 209.742 58.361 209.742 58.1509C209.742 57.9371 209.694 57.7456 209.597 57.5764C209.502 57.4053 209.368 57.2724 209.195 57.1775C209.022 57.0827 208.828 57.0344 208.612 57.0325C208.387 57.0307 208.195 57.0706 208.035 57.1524C207.875 57.2324 207.751 57.3551 207.664 57.5206H206.716L207.056 54.2881H210.431V55.1472H207.904L207.731 56.6644H207.781C207.856 56.5807 207.949 56.5063 208.063 56.4412C208.178 56.3743 208.306 56.3232 208.448 56.2879C208.589 56.2507 208.737 56.2321 208.891 56.2321C209.241 56.2321 209.556 56.313 209.837 56.4747C210.117 56.6365 210.338 56.8615 210.498 57.1496C210.658 57.4378 210.738 57.7623 210.738 58.123C210.738 58.4986 210.648 58.8351 210.47 59.1326C210.293 59.4283 210.046 59.6597 209.728 59.8271C209.412 59.9944 209.05 60.0781 208.643 60.0781Z" fill="white"/>
<rect x="76" y="89" width="103" height="16" rx="7.5" fill="#323232" fill-opacity="0.4"/>
<path d="M121.172 95.2252H122.042V99.0824H121.172V95.2252ZM119.68 96.7174H123.537V97.5875H119.68V96.7174ZM124.488 99.2553L126.504 97.3114C126.724 97.092 126.893 96.9117 127.012 96.7703C127.133 96.629 127.225 96.4905 127.288 96.3548C127.351 96.2172 127.384 96.0712 127.386 95.9169C127.384 95.7421 127.34 95.5887 127.254 95.4567C127.171 95.3247 127.055 95.2234 126.906 95.1527C126.757 95.0821 126.589 95.0467 126.401 95.0467C126.208 95.0467 126.038 95.0858 125.893 95.1639C125.748 95.2401 125.636 95.3498 125.556 95.493C125.478 95.6362 125.439 95.8035 125.439 95.995H124.463C124.461 95.6399 124.543 95.3275 124.708 95.0579C124.875 94.7864 125.107 94.5773 125.403 94.4304C125.698 94.2835 126.036 94.2101 126.415 94.2101C126.796 94.2101 127.135 94.2807 127.43 94.422C127.728 94.5633 127.958 94.7604 128.122 95.0133C128.285 95.2643 128.367 95.5478 128.367 95.8639C128.367 96.087 128.325 96.3009 128.239 96.5054C128.155 96.7081 128.01 96.934 127.804 97.1831C127.599 97.4323 127.308 97.7353 126.931 98.0923L125.919 99.0992V99.141H128.454V100H124.491L124.488 99.2553ZM129.982 100.061C129.872 100.061 129.77 100.033 129.675 99.9777C129.58 99.9219 129.505 99.8485 129.449 99.7574C129.395 99.6644 129.369 99.5621 129.371 99.4506C129.369 99.3409 129.395 99.2395 129.449 99.1466C129.505 99.0517 129.58 98.9783 129.675 98.9262C129.77 98.8723 129.872 98.8454 129.982 98.8454C130.09 98.8454 130.191 98.8723 130.286 98.9262C130.381 98.9783 130.455 99.0517 130.509 99.1466C130.565 99.2414 130.593 99.3427 130.593 99.4506C130.593 99.5603 130.565 99.6616 130.509 99.7546C130.455 99.8475 130.381 99.9219 130.286 99.9777C130.191 100.033 130.09 100.061 129.982 100.061ZM133.509 100.078C133.133 100.078 132.795 100.008 132.494 99.8689C132.193 99.7295 131.954 99.5361 131.777 99.2888C131.6 99.0415 131.507 98.7617 131.498 98.4493H132.497C132.51 98.6036 132.562 98.7412 132.653 98.8621C132.746 98.9811 132.867 99.075 133.015 99.1438C133.166 99.2126 133.33 99.247 133.509 99.247C133.719 99.247 133.908 99.2005 134.075 99.1075C134.242 99.0127 134.373 98.8825 134.466 98.7171C134.56 98.5497 134.608 98.361 134.608 98.1509C134.608 97.9371 134.559 97.7456 134.463 97.5764C134.368 97.4053 134.234 97.2724 134.061 97.1775C133.888 97.0827 133.694 97.0344 133.478 97.0325C133.253 97.0307 133.061 97.0706 132.901 97.1524C132.741 97.2324 132.617 97.3551 132.53 97.5206H131.582L131.922 94.2881H135.297V95.1472H132.77L132.597 96.6644H132.647C132.722 96.5807 132.815 96.5063 132.929 96.4412C133.044 96.3743 133.172 96.3232 133.314 96.2879C133.455 96.2507 133.603 96.2321 133.757 96.2321C134.107 96.2321 134.422 96.313 134.703 96.4747C134.983 96.6365 135.204 96.8615 135.364 97.1496C135.524 97.4378 135.603 97.7623 135.603 98.123C135.603 98.4986 135.514 98.8351 135.336 99.1326C135.159 99.4283 134.912 99.6597 134.594 99.8271C134.278 99.9944 133.916 100.078 133.509 100.078Z" fill="white"/>
<rect x="218" y="49" width="23" height="16" rx="7.5" fill="#323232" fill-opacity="0.4"/>
<path d="M223.038 55.2252H223.908V59.0824H223.038V55.2252ZM221.546 56.7174H225.403V57.5875H221.546V56.7174ZM228.657 60.0781C228.199 60.0781 227.806 59.9628 227.477 59.7323C227.15 59.5017 226.899 59.168 226.724 58.731C226.549 58.2922 226.462 57.7632 226.462 57.1441C226.462 56.5286 226.549 56.0006 226.724 55.5599C226.899 55.1193 227.151 54.7846 227.48 54.5559C227.809 54.3253 228.201 54.2101 228.657 54.2101C229.11 54.2101 229.502 54.3253 229.831 54.5559C230.16 54.7846 230.412 55.1193 230.587 55.5599C230.763 56.0006 230.852 56.5286 230.852 57.1441C230.852 57.7632 230.764 58.2922 230.589 58.731C230.416 59.1698 230.165 59.5045 229.836 59.735C229.507 59.9637 229.114 60.0781 228.657 60.0781ZM228.657 59.2163C228.896 59.2163 229.103 59.1382 229.276 58.982C229.449 58.8258 229.582 58.5934 229.675 58.2848C229.768 57.9743 229.814 57.594 229.814 57.1441C229.814 56.696 229.768 56.3167 229.675 56.0062C229.582 55.6938 229.448 55.4595 229.273 55.3033C229.1 55.1453 228.895 55.0663 228.657 55.0663C228.417 55.0663 228.21 55.1453 228.037 55.3033C227.866 55.4595 227.733 55.6938 227.639 56.0062C227.546 56.3167 227.498 56.696 227.496 57.1441C227.496 57.594 227.543 57.9743 227.636 58.2848C227.729 58.5934 227.862 58.8258 228.035 58.982C228.208 59.1382 228.415 59.2163 228.657 59.2163ZM232.116 60.0614C232.006 60.0614 231.904 60.0335 231.809 59.9777C231.714 59.9219 231.639 59.8485 231.583 59.7574C231.529 59.6644 231.503 59.5621 231.505 59.4506C231.503 59.3409 231.529 59.2395 231.583 59.1466C231.639 59.0517 231.714 58.9783 231.809 58.9262C231.904 58.8723 232.006 58.8454 232.116 58.8454C232.224 58.8454 232.325 58.8723 232.42 58.9262C232.515 58.9783 232.589 59.0517 232.643 59.1466C232.699 59.2414 232.727 59.3427 232.727 59.4506C232.727 59.5603 232.699 59.6616 232.643 59.7546C232.589 59.8475 232.515 59.9219 232.42 59.9777C232.325 60.0335 232.224 60.0614 232.116 60.0614ZM235.643 60.0781C235.267 60.0781 234.929 60.0084 234.628 59.8689C234.327 59.7295 234.088 59.5361 233.911 59.2888C233.734 59.0415 233.641 58.7617 233.632 58.4493H234.631C234.644 58.6036 234.696 58.7412 234.787 58.8621C234.88 58.9811 235.001 59.075 235.149 59.1438C235.3 59.2126 235.465 59.247 235.643 59.247C235.853 59.247 236.042 59.2005 236.209 59.1075C236.377 59.0127 236.507 58.8825 236.6 58.7171C236.694 58.5497 236.742 58.361 236.742 58.1509C236.742 57.9371 236.694 57.7456 236.597 57.5764C236.502 57.4053 236.368 57.2724 236.195 57.1775C236.022 57.0827 235.828 57.0344 235.612 57.0325C235.387 57.0307 235.195 57.0706 235.035 57.1524C234.875 57.2324 234.751 57.3551 234.664 57.5206H233.716L234.056 54.2881H237.431V55.1472H234.904L234.731 56.6644H234.781C234.856 56.5807 234.949 56.5063 235.063 56.4412C235.178 56.3743 235.306 56.3232 235.448 56.2879C235.589 56.2507 235.737 56.2321 235.891 56.2321C236.241 56.2321 236.556 56.313 236.837 56.4747C237.117 56.6365 237.338 56.8615 237.498 57.1496C237.658 57.4378 237.738 57.7623 237.738 58.123C237.738 58.4986 237.648 58.8351 237.47 59.1326C237.293 59.4283 237.046 59.6597 236.728 59.8271C236.412 59.9944 236.05 60.0781 235.643 60.0781Z" fill="white"/>
</svg>
