<svg width="20" height="20" viewBox="0 0 20 20" fill="none" xmlns="http://www.w3.org/2000/svg">
<path d="M12.4791 9.99992C12.4791 10.111 12.4583 10.2188 12.4166 10.3233C12.375 10.4277 12.3194 10.5144 12.25 10.5833L8.41665 14.4166C8.26387 14.5694 8.06942 14.6458 7.83331 14.6458C7.5972 14.6458 7.40276 14.5694 7.24998 14.4166C7.0972 14.2638 7.02081 14.0694 7.02081 13.8333C7.02081 13.5971 7.0972 13.4027 7.24998 13.2499L10.5 9.99992L7.24998 6.74992C7.0972 6.59714 7.02081 6.4027 7.02081 6.16659C7.02081 5.93047 7.0972 5.73603 7.24998 5.58325C7.40276 5.43048 7.5972 5.35409 7.83331 5.35408C8.06942 5.35408 8.26387 5.43048 8.41665 5.58325L12.25 9.41659C12.3333 9.49992 12.3925 9.5902 12.4275 9.68742C12.4625 9.78464 12.4797 9.88881 12.4791 9.99992Z" fill="#323232"/>
</svg>
