<svg width="20" height="20" viewBox="0 0 20 20" fill="none" xmlns="http://www.w3.org/2000/svg">
<path d="M9.27079 9.64583C9.27079 9.53472 9.29163 9.42694 9.33329 9.3225C9.37496 9.21806 9.43052 9.13139 9.49996 9.0625L13.3333 5.22917C13.4861 5.07639 13.6805 5 13.9166 5C14.1527 5 14.3472 5.07639 14.5 5.22917C14.6527 5.38194 14.7291 5.57639 14.7291 5.8125C14.7291 6.04861 14.6527 6.24306 14.5 6.39583L11.25 9.64583L14.5 12.8958C14.6527 13.0486 14.7291 13.2431 14.7291 13.4792C14.7291 13.7153 14.6527 13.9097 14.5 14.0625C14.3472 14.2153 14.1527 14.2917 13.9166 14.2917C13.6805 14.2917 13.4861 14.2153 13.3333 14.0625L9.49996 10.2292C9.41663 10.1458 9.35746 10.0556 9.32246 9.95833C9.28746 9.86111 9.27024 9.75694 9.27079 9.64583Z" fill="#323232"/>
<path d="M10.4583 9.64583C10.4583 9.53472 10.4375 9.42694 10.3958 9.3225C10.3542 9.21806 10.2986 9.13139 10.2292 9.0625L6.39583 5.22917C6.24306 5.07639 6.04861 5 5.8125 5C5.57639 5 5.38194 5.07639 5.22917 5.22917C5.07639 5.38194 5 5.57639 5 5.8125C5 6.04861 5.07639 6.24306 5.22917 6.39583L8.47917 9.64583L5.22917 12.8958C5.07639 13.0486 5 13.2431 5 13.4792C5 13.7153 5.07639 13.9097 5.22917 14.0625C5.38194 14.2153 5.57639 14.2917 5.8125 14.2917C6.04861 14.2917 6.24306 14.2153 6.39583 14.0625L10.2292 10.2292C10.3125 10.1458 10.3717 10.0556 10.4067 9.95833C10.4417 9.86111 10.4589 9.75694 10.4583 9.64583Z" fill="#323232"/>
</svg>
