<svg width="28" height="28" viewBox="0 0 28 28" fill="none" xmlns="http://www.w3.org/2000/svg">
<circle cx="14" cy="14" r="14" fill="#E8E8E8"/>
<path fill-rule="evenodd" clip-rule="evenodd" d="M7.68747 7.41781C8.24722 6.85806 9.00878 6.71209 9.38845 7.09176L20.7559 18.4592C21.1355 18.8388 20.9896 19.6004 20.4298 20.1602C19.8701 20.7199 19.1085 20.8659 18.7288 20.4862L7.36142 9.11879C6.98175 8.73911 7.12773 7.97756 7.68747 7.41781Z" fill="#AAAAAA"/>
<path fill-rule="evenodd" clip-rule="evenodd" d="M20.4297 7.63635C20.9903 8.19693 21.137 8.95916 20.7573 9.33883L9.38989 20.7062C9.01021 21.0859 8.24798 20.9393 7.6874 20.3787C7.12682 19.8181 6.98017 19.0559 7.35985 18.6762L18.7273 7.30879C19.1069 6.92912 19.8692 7.07577 20.4297 7.63635Z" fill="#AAAAAA"/>
</svg>
