<svg width="20" height="20" viewBox="0 0 20 20" fill="none" xmlns="http://www.w3.org/2000/svg">
<path d="M7.27079 9.75002C7.27079 9.63891 7.29163 9.53113 7.33329 9.42669C7.37496 9.32224 7.43052 9.23558 7.49996 9.16669L11.3333 5.33335C11.4861 5.18058 11.6805 5.10419 11.9166 5.10419C12.1527 5.10419 12.3472 5.18058 12.5 5.33335C12.6527 5.48613 12.7291 5.68058 12.7291 5.91669C12.7291 6.1528 12.6527 6.34724 12.5 6.50002L9.24996 9.75002L12.5 13C12.6527 13.1528 12.7291 13.3472 12.7291 13.5834C12.7291 13.8195 12.6527 14.0139 12.5 14.1667C12.3472 14.3195 12.1527 14.3959 11.9166 14.3959C11.6805 14.3959 11.4861 14.3195 11.3333 14.1667L7.49996 10.3334C7.41663 10.25 7.35746 10.1597 7.32246 10.0625C7.28746 9.9653 7.27024 9.86113 7.27079 9.75002Z" fill="#323232"/>
</svg>
