<svg width="20" height="20" viewBox="0 0 20 20" fill="none" xmlns="http://www.w3.org/2000/svg">
<path d="M10 12.4791C9.88891 12.4791 9.78113 12.4583 9.67669 12.4166C9.57224 12.3749 9.48558 12.3194 9.41669 12.2499L5.58335 8.41659C5.43058 8.26381 5.35419 8.06936 5.35419 7.83325C5.35419 7.59714 5.43058 7.4027 5.58335 7.24992C5.73613 7.09714 5.93058 7.02075 6.16669 7.02075C6.4028 7.02075 6.59724 7.09714 6.75002 7.24992L10 10.4999L13.25 7.24992C13.4028 7.09714 13.5972 7.02075 13.8334 7.02075C14.0695 7.02075 14.2639 7.09714 14.4167 7.24992C14.5695 7.4027 14.6459 7.59714 14.6459 7.83325C14.6459 8.06936 14.5695 8.26381 14.4167 8.41659L10.5834 12.2499C10.5 12.3333 10.4097 12.3924 10.3125 12.4274C10.2153 12.4624 10.1111 12.4796 10 12.4791Z" fill="#323232"/>
</svg>
