<svg width="20" height="20" viewBox="0 0 20 20" fill="none" xmlns="http://www.w3.org/2000/svg">
<path d="M9.99996 13.4792C9.88885 13.4792 9.78107 13.4584 9.67663 13.4167C9.57218 13.375 9.48551 13.3195 9.41663 13.25L5.58329 9.41671C5.43051 9.26393 5.35413 9.06948 5.35413 8.83337C5.35413 8.59726 5.43051 8.40282 5.58329 8.25004C5.73607 8.09726 5.93051 8.02087 6.16663 8.02087C6.40274 8.02087 6.59718 8.09726 6.74996 8.25004L9.99996 11.5L13.25 8.25004C13.4027 8.09726 13.5972 8.02087 13.8333 8.02087C14.0694 8.02087 14.2638 8.09726 14.4166 8.25004C14.5694 8.40282 14.6458 8.59726 14.6458 8.83337C14.6458 9.06948 14.5694 9.26393 14.4166 9.41671L10.5833 13.25C10.5 13.3334 10.4097 13.3925 10.3125 13.4275C10.2152 13.4625 10.1111 13.4798 9.99996 13.4792Z" fill="#323232"/>
</svg>
