<svg width="232" height="154" viewBox="0 0 232 154" fill="none" xmlns="http://www.w3.org/2000/svg">
<rect width="32" height="32" rx="10" fill="#323232"/>
<rect x="40" width="32" height="32" rx="10" fill="#E8E8E8"/>
<rect x="80" width="32" height="32" rx="10" fill="#E8E8E8"/>
<rect x="120" width="32" height="32" rx="10" fill="#E8E8E8"/>
<rect x="160" width="32" height="32" rx="10" fill="#E8E8E8"/>
<rect x="200" width="32" height="32" rx="10" fill="#E8E8E8"/>
<rect y="40.5957" width="32" height="32" rx="10" fill="#E8E8E8"/>
<rect x="40" y="40.5957" width="32" height="32" rx="10" fill="#E8E8E8"/>
<rect x="80" y="40.5957" width="32" height="32" rx="10" fill="#E8E8E8"/>
<rect x="120" y="40.5957" width="32" height="32" rx="10" fill="#E8E8E8"/>
<rect x="160" y="40.5957" width="32" height="32" rx="10" fill="#E8E8E8"/>
<rect x="200" y="40.5957" width="32" height="32" rx="10" fill="#E8E8E8"/>
<rect y="81.1904" width="32" height="32" rx="10" fill="#E8E8E8"/>
<rect x="40" y="81.1904" width="32" height="32" rx="10" fill="#E8E8E8"/>
<rect x="80" y="81.1904" width="32" height="32" rx="10" fill="#E8E8E8"/>
<rect x="120" y="81.1904" width="32" height="32" rx="10" fill="#E8E8E8"/>
<rect x="160" y="81.1904" width="32" height="32" rx="10" fill="#E8E8E8"/>
<rect x="200" y="81.1904" width="32" height="32" rx="10" fill="#E8E8E8"/>
<rect y="121.785" width="32" height="32" rx="10" fill="#E8E8E8"/>
<rect x="40" y="121.785" width="32" height="32" rx="10" fill="#E8E8E8"/>
<rect x="80" y="121.785" width="32" height="32" rx="10" fill="#E8E8E8"/>
<rect x="120" y="121.785" width="32" height="32" rx="10" fill="#E8E8E8"/>
<rect x="160" y="121.785" width="32" height="32" rx="10" fill="#E8E8E8"/>
<rect x="200" y="121.785" width="32" height="32" rx="10" fill="#323232"/>
<path d="M9.47167 15.886C9.47167 14.6173 9.69901 13.6237 10.1537 12.905C10.6157 12.1863 11.3783 11.827 12.4417 11.827C13.505 11.827 14.264 12.1863 14.7187 12.905C15.1807 13.6237 15.4117 14.6173 15.4117 15.886C15.4117 17.162 15.1807 18.163 14.7187 18.889C14.264 19.615 13.505 19.978 12.4417 19.978C11.3783 19.978 10.6157 19.615 10.1537 18.889C9.69901 18.163 9.47167 17.162 9.47167 15.886ZM13.8937 15.886C13.8937 15.3433 13.857 14.8887 13.7837 14.522C13.7177 14.148 13.5783 13.8437 13.3657 13.609C13.1603 13.3743 12.8523 13.257 12.4417 13.257C12.031 13.257 11.7193 13.3743 11.5067 13.609C11.3013 13.8437 11.162 14.148 11.0887 14.522C11.0227 14.8887 10.9897 15.3433 10.9897 15.886C10.9897 16.4433 11.0227 16.9127 11.0887 17.294C11.1547 17.668 11.294 17.9723 11.5067 18.207C11.7193 18.4343 12.031 18.548 12.4417 18.548C12.8523 18.548 13.164 18.4343 13.3767 18.207C13.5893 17.9723 13.7287 17.668 13.7947 17.294C13.8607 16.9127 13.8937 16.4433 13.8937 15.886ZM16.583 15.886C16.583 14.6173 16.8103 13.6237 17.265 12.905C17.727 12.1863 18.4897 11.827 19.553 11.827C20.6163 11.827 21.3753 12.1863 21.83 12.905C22.292 13.6237 22.523 14.6173 22.523 15.886C22.523 17.162 22.292 18.163 21.83 18.889C21.3753 19.615 20.6163 19.978 19.553 19.978C18.4897 19.978 17.727 19.615 17.265 18.889C16.8103 18.163 16.583 17.162 16.583 15.886ZM21.005 15.886C21.005 15.3433 20.9683 14.8887 20.895 14.522C20.829 14.148 20.6897 13.8437 20.477 13.609C20.2717 13.3743 19.9637 13.257 19.553 13.257C19.1423 13.257 18.8307 13.3743 18.618 13.609C18.4127 13.8437 18.2733 14.148 18.2 14.522C18.134 14.8887 18.101 15.3433 18.101 15.886C18.101 16.4433 18.134 16.9127 18.2 17.294C18.266 17.668 18.4053 17.9723 18.618 18.207C18.8307 18.4343 19.1423 18.548 19.553 18.548C19.9637 18.548 20.2753 18.4343 20.488 18.207C20.7007 17.9723 20.84 17.668 20.906 17.294C20.972 16.9127 21.005 16.4433 21.005 15.886Z" fill="white"/>
<path d="M9.50927 56.886C9.50927 55.6173 9.7366 54.6237 10.1913 53.905C10.6533 53.1863 11.4159 52.827 12.4793 52.827C13.5426 52.827 14.3016 53.1863 14.7563 53.905C15.2183 54.6237 15.4493 55.6173 15.4493 56.886C15.4493 58.162 15.2183 59.163 14.7563 59.889C14.3016 60.615 13.5426 60.978 12.4793 60.978C11.4159 60.978 10.6533 60.615 10.1913 59.889C9.7366 59.163 9.50927 58.162 9.50927 56.886ZM13.9313 56.886C13.9313 56.3433 13.8946 55.8887 13.8213 55.522C13.7553 55.148 13.6159 54.8437 13.4033 54.609C13.1979 54.3743 12.8899 54.257 12.4793 54.257C12.0686 54.257 11.7569 54.3743 11.5443 54.609C11.3389 54.8437 11.1996 55.148 11.1263 55.522C11.0603 55.8887 11.0273 56.3433 11.0273 56.886C11.0273 57.4433 11.0603 57.9127 11.1263 58.294C11.1923 58.668 11.3316 58.9723 11.5443 59.207C11.7569 59.4343 12.0686 59.548 12.4793 59.548C12.8899 59.548 13.2016 59.4343 13.4143 59.207C13.6269 58.9723 13.7663 58.668 13.8323 58.294C13.8983 57.9127 13.9313 57.4433 13.9313 56.886ZM20.7786 54.983C20.7053 54.675 20.5769 54.444 20.3936 54.29C20.2176 54.136 19.9609 54.059 19.6236 54.059C19.1176 54.059 18.7436 54.2643 18.5016 54.675C18.2669 55.0783 18.1459 55.7383 18.1386 56.655C18.3146 56.3617 18.5713 56.1343 18.9086 55.973C19.2459 55.8043 19.6126 55.72 20.0086 55.72C20.4853 55.72 20.9069 55.8227 21.2736 56.028C21.6403 56.2333 21.9263 56.534 22.1316 56.93C22.3369 57.3187 22.4396 57.788 22.4396 58.338C22.4396 58.8587 22.3333 59.3243 22.1206 59.735C21.9153 60.1383 21.6109 60.4537 21.2076 60.681C20.8043 60.9083 20.3239 61.022 19.7666 61.022C19.0039 61.022 18.4026 60.8533 17.9626 60.516C17.5299 60.1787 17.2256 59.7093 17.0496 59.108C16.8809 58.4993 16.7966 57.7513 16.7966 56.864C16.7966 55.522 17.0276 54.51 17.4896 53.828C17.9516 53.1387 18.6813 52.794 19.6786 52.794C20.4486 52.794 21.0463 53.003 21.4716 53.421C21.8969 53.839 22.1426 54.3597 22.2086 54.983H20.7786ZM19.6566 56.985C19.2679 56.985 18.9416 57.0987 18.6776 57.326C18.4136 57.5533 18.2816 57.8833 18.2816 58.316C18.2816 58.7487 18.4026 59.0897 18.6446 59.339C18.8939 59.5883 19.2423 59.713 19.6896 59.713C20.0856 59.713 20.3973 59.592 20.6246 59.35C20.8593 59.108 20.9766 58.7817 20.9766 58.371C20.9766 57.9457 20.8629 57.6083 20.6356 57.359C20.4156 57.1097 20.0893 56.985 19.6566 56.985Z" fill="#6C6C74"/>
<path d="M11.2451 94.4V92.981H13.8961V101H12.3121V94.4H11.2451ZM15.9015 99.262C16.6055 98.6753 17.1665 98.1877 17.5845 97.799C18.0025 97.403 18.3508 96.9923 18.6295 96.567C18.9081 96.1417 19.0475 95.7237 19.0475 95.313C19.0475 94.939 18.9595 94.6457 18.7835 94.433C18.6075 94.2203 18.3361 94.114 17.9695 94.114C17.6028 94.114 17.3205 94.2387 17.1225 94.488C16.9245 94.73 16.8218 95.0637 16.8145 95.489H15.3185C15.3478 94.609 15.6081 93.9417 16.0995 93.487C16.5981 93.0323 17.2288 92.805 17.9915 92.805C18.8275 92.805 19.4691 93.0287 19.9165 93.476C20.3638 93.916 20.5875 94.499 20.5875 95.225C20.5875 95.797 20.4335 96.3433 20.1255 96.864C19.8175 97.3847 19.4655 97.8393 19.0695 98.228C18.6735 98.6093 18.1565 99.0713 17.5185 99.614H20.7635V100.89H15.3295V99.746L15.9015 99.262Z" fill="#6C6C74"/>
<path d="M10.8691 135.4V133.981H13.5201V142H11.9361V135.4H10.8691ZM16.3835 137.754C15.6502 137.373 15.2835 136.782 15.2835 135.983C15.2835 135.587 15.3825 135.228 15.5805 134.905C15.7858 134.575 16.0902 134.315 16.4935 134.124C16.9042 133.926 17.4028 133.827 17.9895 133.827C18.5762 133.827 19.0712 133.926 19.4745 134.124C19.8852 134.315 20.1895 134.575 20.3875 134.905C20.5928 135.228 20.6955 135.587 20.6955 135.983C20.6955 136.386 20.5965 136.742 20.3985 137.05C20.2005 137.351 19.9365 137.585 19.6065 137.754C20.0098 137.93 20.3252 138.187 20.5525 138.524C20.7798 138.861 20.8935 139.261 20.8935 139.723C20.8935 140.222 20.7652 140.658 20.5085 141.032C20.2592 141.399 19.9145 141.681 19.4745 141.879C19.0345 142.077 18.5395 142.176 17.9895 142.176C17.4395 142.176 16.9445 142.077 16.5045 141.879C16.0718 141.681 15.7272 141.399 15.4705 141.032C15.2212 140.658 15.0965 140.222 15.0965 139.723C15.0965 139.261 15.2102 138.861 15.4375 138.524C15.6648 138.179 15.9802 137.923 16.3835 137.754ZM19.1995 136.203C19.1995 135.844 19.0895 135.565 18.8695 135.367C18.6568 135.169 18.3635 135.07 17.9895 135.07C17.6228 135.07 17.3295 135.169 17.1095 135.367C16.8968 135.565 16.7905 135.847 16.7905 136.214C16.7905 136.544 16.9005 136.808 17.1205 137.006C17.3478 137.204 17.6375 137.303 17.9895 137.303C18.3415 137.303 18.6312 137.204 18.8585 137.006C19.0858 136.801 19.1995 136.533 19.1995 136.203ZM17.9895 138.425C17.5715 138.425 17.2305 138.531 16.9665 138.744C16.7098 138.957 16.5815 139.261 16.5815 139.657C16.5815 140.024 16.7062 140.324 16.9555 140.559C17.2122 140.786 17.5568 140.9 17.9895 140.9C18.4222 140.9 18.7632 140.783 19.0125 140.548C19.2618 140.313 19.3865 140.016 19.3865 139.657C19.3865 139.268 19.2582 138.968 19.0015 138.755C18.7448 138.535 18.4075 138.425 17.9895 138.425Z" fill="#6C6C74"/>
<path d="M51.0347 15.886C51.0347 14.6173 51.262 13.6237 51.7167 12.905C52.1787 12.1863 52.9413 11.827 54.0047 11.827C55.068 11.827 55.827 12.1863 56.2817 12.905C56.7437 13.6237 56.9747 14.6173 56.9747 15.886C56.9747 17.162 56.7437 18.163 56.2817 18.889C55.827 19.615 55.068 19.978 54.0047 19.978C52.9413 19.978 52.1787 19.615 51.7167 18.889C51.262 18.163 51.0347 17.162 51.0347 15.886ZM55.4567 15.886C55.4567 15.3433 55.42 14.8887 55.3467 14.522C55.2807 14.148 55.1413 13.8437 54.9287 13.609C54.7233 13.3743 54.4153 13.257 54.0047 13.257C53.594 13.257 53.2823 13.3743 53.0697 13.609C52.8643 13.8437 52.725 14.148 52.6517 14.522C52.5857 14.8887 52.5527 15.3433 52.5527 15.886C52.5527 16.4433 52.5857 16.9127 52.6517 17.294C52.7177 17.668 52.857 17.9723 53.0697 18.207C53.2823 18.4343 53.594 18.548 54.0047 18.548C54.4153 18.548 54.727 18.4343 54.9397 18.207C55.1523 17.9723 55.2917 17.668 55.3577 17.294C55.4237 16.9127 55.4567 16.4433 55.4567 15.886ZM57.959 13.4V11.981H60.61V20H59.026V13.4H57.959Z" fill="#6C6C74"/>
<path d="M50.0142 56.886C50.0142 55.6173 50.2415 54.6237 50.6962 53.905C51.1582 53.1863 51.9208 52.827 52.9842 52.827C54.0475 52.827 54.8065 53.1863 55.2612 53.905C55.7232 54.6237 55.9542 55.6173 55.9542 56.886C55.9542 58.162 55.7232 59.163 55.2612 59.889C54.8065 60.615 54.0475 60.978 52.9842 60.978C51.9208 60.978 51.1582 60.615 50.6962 59.889C50.2415 59.163 50.0142 58.162 50.0142 56.886ZM54.4362 56.886C54.4362 56.3433 54.3995 55.8887 54.3262 55.522C54.2602 55.148 54.1208 54.8437 53.9082 54.609C53.7028 54.3743 53.3948 54.257 52.9842 54.257C52.5735 54.257 52.2618 54.3743 52.0492 54.609C51.8438 54.8437 51.7045 55.148 51.6312 55.522C51.5652 55.8887 51.5322 56.3433 51.5322 56.886C51.5322 57.4433 51.5652 57.9127 51.6312 58.294C51.6972 58.668 51.8365 58.9723 52.0492 59.207C52.2618 59.4343 52.5735 59.548 52.9842 59.548C53.3948 59.548 53.7065 59.4343 53.9192 59.207C54.1318 58.9723 54.2712 58.668 54.3372 58.294C54.4032 57.9127 54.4362 57.4433 54.4362 56.886ZM62.2295 54.147L59.3035 61H57.7415L60.6895 54.323H56.9275V53.003H62.2295V54.147Z" fill="#6C6C74"/>
<path d="M51.1108 94.4V92.981H53.7618V101H52.1778V94.4H51.1108ZM55.3052 95.093C55.3419 94.3597 55.5985 93.795 56.0752 93.399C56.5592 92.9957 57.1935 92.794 57.9782 92.794C58.5135 92.794 58.9719 92.8893 59.3532 93.08C59.7345 93.2633 60.0205 93.5163 60.2112 93.839C60.4092 94.1543 60.5082 94.5137 60.5082 94.917C60.5082 95.379 60.3872 95.7713 60.1452 96.094C59.9105 96.4093 59.6282 96.622 59.2982 96.732V96.776C59.7235 96.908 60.0535 97.1427 60.2882 97.48C60.5302 97.8173 60.6512 98.25 60.6512 98.778C60.6512 99.218 60.5485 99.6103 60.3432 99.955C60.1452 100.3 59.8482 100.571 59.4522 100.769C59.0635 100.96 58.5942 101.055 58.0442 101.055C57.2155 101.055 56.5409 100.846 56.0202 100.428C55.4995 100.01 55.2245 99.394 55.1952 98.58H56.6912C56.7059 98.9393 56.8269 99.229 57.0542 99.449C57.2889 99.6617 57.6079 99.768 58.0112 99.768C58.3852 99.768 58.6712 99.6653 58.8692 99.46C59.0745 99.2473 59.1772 98.976 59.1772 98.646C59.1772 98.206 59.0379 97.8907 58.7592 97.7C58.4805 97.5093 58.0479 97.414 57.4612 97.414H57.1422V96.149H57.4612C58.5025 96.149 59.0232 95.8007 59.0232 95.104C59.0232 94.7887 58.9279 94.543 58.7372 94.367C58.5539 94.191 58.2862 94.103 57.9342 94.103C57.5895 94.103 57.3219 94.1983 57.1312 94.389C56.9479 94.5723 56.8415 94.807 56.8122 95.093H55.3052Z" fill="#6C6C74"/>
<path d="M50.9605 135.4V133.981H53.6115V142H52.0275V135.4H50.9605ZM56.9148 139.745C56.9735 140.068 57.1055 140.317 57.3108 140.493C57.5235 140.662 57.8058 140.746 58.1578 140.746C58.6125 140.746 58.9425 140.559 59.1478 140.185C59.3531 139.804 59.4558 139.166 59.4558 138.271C59.2871 138.506 59.0488 138.689 58.7408 138.821C58.4401 138.953 58.1138 139.019 57.7618 139.019C57.2925 139.019 56.8671 138.924 56.4858 138.733C56.1118 138.535 55.8148 138.245 55.5948 137.864C55.3748 137.475 55.2648 137.006 55.2648 136.456C55.2648 135.642 55.5068 134.997 55.9908 134.52C56.4748 134.036 57.1348 133.794 57.9708 133.794C59.0121 133.794 59.7455 134.128 60.1708 134.795C60.6035 135.462 60.8198 136.467 60.8198 137.809C60.8198 138.762 60.7355 139.543 60.5668 140.152C60.4055 140.761 60.1231 141.223 59.7198 141.538C59.3238 141.853 58.7811 142.011 58.0918 142.011C57.5491 142.011 57.0871 141.908 56.7058 141.703C56.3245 141.49 56.0311 141.215 55.8258 140.878C55.6278 140.533 55.5141 140.156 55.4848 139.745H56.9148ZM58.0808 137.765C58.4621 137.765 58.7628 137.648 58.9828 137.413C59.2028 137.178 59.3128 136.863 59.3128 136.467C59.3128 136.034 59.1955 135.701 58.9608 135.466C58.7335 135.224 58.4218 135.103 58.0258 135.103C57.6298 135.103 57.3145 135.228 57.0798 135.477C56.8525 135.719 56.7388 136.042 56.7388 136.445C56.7388 136.834 56.8488 137.153 57.0688 137.402C57.2961 137.644 57.6335 137.765 58.0808 137.765Z" fill="#6C6C74"/>
<path d="M89.8691 15.886C89.8691 14.6173 90.0965 13.6237 90.5511 12.905C91.0131 12.1863 91.7758 11.827 92.8391 11.827C93.9025 11.827 94.6615 12.1863 95.1161 12.905C95.5781 13.6237 95.8091 14.6173 95.8091 15.886C95.8091 17.162 95.5781 18.163 95.1161 18.889C94.6615 19.615 93.9025 19.978 92.8391 19.978C91.7758 19.978 91.0131 19.615 90.5511 18.889C90.0965 18.163 89.8691 17.162 89.8691 15.886ZM94.2911 15.886C94.2911 15.3433 94.2545 14.8887 94.1811 14.522C94.1151 14.148 93.9758 13.8437 93.7631 13.609C93.5578 13.3743 93.2498 13.257 92.8391 13.257C92.4285 13.257 92.1168 13.3743 91.9041 13.609C91.6988 13.8437 91.5595 14.148 91.4861 14.522C91.4201 14.8887 91.3871 15.3433 91.3871 15.886C91.3871 16.4433 91.4201 16.9127 91.4861 17.294C91.5521 17.668 91.6915 17.9723 91.9041 18.207C92.1168 18.4343 92.4285 18.548 92.8391 18.548C93.2498 18.548 93.5615 18.4343 93.7741 18.207C93.9868 17.9723 94.1261 17.668 94.1921 17.294C94.2581 16.9127 94.2911 16.4433 94.2911 15.886ZM97.4645 18.262C98.1685 17.6753 98.7295 17.1877 99.1475 16.799C99.5655 16.403 99.9138 15.9923 100.192 15.567C100.471 15.1417 100.61 14.7237 100.61 14.313C100.61 13.939 100.522 13.6457 100.346 13.433C100.17 13.2203 99.8991 13.114 99.5325 13.114C99.1658 13.114 98.8835 13.2387 98.6855 13.488C98.4875 13.73 98.3848 14.0637 98.3775 14.489H96.8815C96.9108 13.609 97.1711 12.9417 97.6625 12.487C98.1611 12.0323 98.7918 11.805 99.5545 11.805C100.39 11.805 101.032 12.0287 101.479 12.476C101.927 12.916 102.15 13.499 102.15 14.225C102.15 14.797 101.996 15.3433 101.688 15.864C101.38 16.3847 101.028 16.8393 100.632 17.228C100.236 17.6093 99.7195 18.0713 99.0815 18.614H102.326V19.89H96.8925V18.746L97.4645 18.262Z" fill="#6C6C74"/>
<path d="M89.4932 56.886C89.4932 55.6173 89.7205 54.6237 90.1752 53.905C90.6372 53.1863 91.3998 52.827 92.4632 52.827C93.5265 52.827 94.2855 53.1863 94.7402 53.905C95.2022 54.6237 95.4332 55.6173 95.4332 56.886C95.4332 58.162 95.2022 59.163 94.7402 59.889C94.2855 60.615 93.5265 60.978 92.4632 60.978C91.3998 60.978 90.6372 60.615 90.1752 59.889C89.7205 59.163 89.4932 58.162 89.4932 56.886ZM93.9152 56.886C93.9152 56.3433 93.8785 55.8887 93.8052 55.522C93.7392 55.148 93.5998 54.8437 93.3872 54.609C93.1818 54.3743 92.8738 54.257 92.4632 54.257C92.0525 54.257 91.7408 54.3743 91.5282 54.609C91.3228 54.8437 91.1835 55.148 91.1102 55.522C91.0442 55.8887 91.0112 56.3433 91.0112 56.886C91.0112 57.4433 91.0442 57.9127 91.1102 58.294C91.1762 58.668 91.3155 58.9723 91.5282 59.207C91.7408 59.4343 92.0525 59.548 92.4632 59.548C92.8738 59.548 93.1855 59.4343 93.3982 59.207C93.6108 58.9723 93.7502 58.668 93.8162 58.294C93.8822 57.9127 93.9152 57.4433 93.9152 56.886ZM97.9465 56.754C97.2132 56.3727 96.8465 55.7823 96.8465 54.983C96.8465 54.587 96.9455 54.2277 97.1435 53.905C97.3488 53.575 97.6532 53.3147 98.0565 53.124C98.4672 52.926 98.9658 52.827 99.5525 52.827C100.139 52.827 100.634 52.926 101.037 53.124C101.448 53.3147 101.752 53.575 101.95 53.905C102.156 54.2277 102.258 54.587 102.258 54.983C102.258 55.3863 102.159 55.742 101.961 56.05C101.763 56.3507 101.499 56.5853 101.169 56.754C101.573 56.93 101.888 57.1867 102.115 57.524C102.343 57.8613 102.456 58.261 102.456 58.723C102.456 59.2217 102.328 59.658 102.071 60.032C101.822 60.3987 101.477 60.681 101.037 60.879C100.597 61.077 100.102 61.176 99.5525 61.176C99.0025 61.176 98.5075 61.077 98.0675 60.879C97.6348 60.681 97.2902 60.3987 97.0335 60.032C96.7842 59.658 96.6595 59.2217 96.6595 58.723C96.6595 58.261 96.7732 57.8613 97.0005 57.524C97.2278 57.1793 97.5432 56.9227 97.9465 56.754ZM100.762 55.203C100.762 54.8437 100.652 54.565 100.432 54.367C100.22 54.169 99.9265 54.07 99.5525 54.07C99.1858 54.07 98.8925 54.169 98.6725 54.367C98.4598 54.565 98.3535 54.8473 98.3535 55.214C98.3535 55.544 98.4635 55.808 98.6835 56.006C98.9108 56.204 99.2005 56.303 99.5525 56.303C99.9045 56.303 100.194 56.204 100.421 56.006C100.649 55.8007 100.762 55.533 100.762 55.203ZM99.5525 57.425C99.1345 57.425 98.7935 57.5313 98.5295 57.744C98.2728 57.9567 98.1445 58.261 98.1445 58.657C98.1445 59.0237 98.2692 59.3243 98.5185 59.559C98.7752 59.7863 99.1198 59.9 99.5525 59.9C99.9852 59.9 100.326 59.7827 100.575 59.548C100.825 59.3133 100.949 59.0163 100.949 58.657C100.949 58.2683 100.821 57.9677 100.564 57.755C100.308 57.535 99.9705 57.425 99.5525 57.425Z" fill="#6C6C74"/>
<path d="M90.7671 94.4V92.981H93.4181V101H91.8341V94.4H90.7671ZM94.8734 99.438V98.228L98.4704 93.08H100.263V98.096H101.231V99.438H100.263V101H98.7234V99.438H94.8734ZM98.8224 94.73L96.5674 98.096H98.8224V94.73Z" fill="#6C6C74"/>
<path d="M90.3531 140.262C91.0571 139.675 91.6181 139.188 92.0361 138.799C92.4541 138.403 92.8025 137.992 93.0811 137.567C93.3598 137.142 93.4991 136.724 93.4991 136.313C93.4991 135.939 93.4111 135.646 93.2351 135.433C93.0591 135.22 92.7878 135.114 92.4211 135.114C92.0545 135.114 91.7721 135.239 91.5741 135.488C91.3761 135.73 91.2735 136.064 91.2661 136.489H89.7701C89.7995 135.609 90.0598 134.942 90.5511 134.487C91.0498 134.032 91.6805 133.805 92.4431 133.805C93.2791 133.805 93.9208 134.029 94.3681 134.476C94.8155 134.916 95.0391 135.499 95.0391 136.225C95.0391 136.797 94.8851 137.343 94.5771 137.864C94.2691 138.385 93.9171 138.839 93.5211 139.228C93.1251 139.609 92.6081 140.071 91.9701 140.614H95.2151V141.89H89.7811V140.746L90.3531 140.262ZM96.1855 137.886C96.1855 136.617 96.4129 135.624 96.8675 134.905C97.3295 134.186 98.0922 133.827 99.1555 133.827C100.219 133.827 100.978 134.186 101.433 134.905C101.895 135.624 102.126 136.617 102.126 137.886C102.126 139.162 101.895 140.163 101.433 140.889C100.978 141.615 100.219 141.978 99.1555 141.978C98.0922 141.978 97.3295 141.615 96.8675 140.889C96.4129 140.163 96.1855 139.162 96.1855 137.886ZM100.608 137.886C100.608 137.343 100.571 136.889 100.498 136.522C100.432 136.148 100.292 135.844 100.08 135.609C99.8742 135.374 99.5662 135.257 99.1555 135.257C98.7449 135.257 98.4332 135.374 98.2205 135.609C98.0152 135.844 97.8759 136.148 97.8025 136.522C97.7365 136.889 97.7035 137.343 97.7035 137.886C97.7035 138.443 97.7365 138.913 97.8025 139.294C97.8685 139.668 98.0079 139.972 98.2205 140.207C98.4332 140.434 98.7449 140.548 99.1555 140.548C99.5662 140.548 99.8779 140.434 100.091 140.207C100.303 139.972 100.443 139.668 100.509 139.294C100.575 138.913 100.608 138.443 100.608 137.886Z" fill="#6C6C74"/>
<path d="M129.735 15.886C129.735 14.6173 129.962 13.6237 130.417 12.905C130.879 12.1863 131.642 11.827 132.705 11.827C133.768 11.827 134.527 12.1863 134.982 12.905C135.444 13.6237 135.675 14.6173 135.675 15.886C135.675 17.162 135.444 18.163 134.982 18.889C134.527 19.615 133.768 19.978 132.705 19.978C131.642 19.978 130.879 19.615 130.417 18.889C129.962 18.163 129.735 17.162 129.735 15.886ZM134.157 15.886C134.157 15.3433 134.12 14.8887 134.047 14.522C133.981 14.148 133.842 13.8437 133.629 13.609C133.424 13.3743 133.116 13.257 132.705 13.257C132.294 13.257 131.983 13.3743 131.77 13.609C131.565 13.8437 131.425 14.148 131.352 14.522C131.286 14.8887 131.253 15.3433 131.253 15.886C131.253 16.4433 131.286 16.9127 131.352 17.294C131.418 17.668 131.557 17.9723 131.77 18.207C131.983 18.4343 132.294 18.548 132.705 18.548C133.116 18.548 133.427 18.4343 133.64 18.207C133.853 17.9723 133.992 17.668 134.058 17.294C134.124 16.9127 134.157 16.4433 134.157 15.886ZM136.868 14.093C136.905 13.3597 137.162 12.795 137.638 12.399C138.122 11.9957 138.757 11.794 139.541 11.794C140.077 11.794 140.535 11.8893 140.916 12.08C141.298 12.2633 141.584 12.5163 141.774 12.839C141.972 13.1543 142.071 13.5137 142.071 13.917C142.071 14.379 141.95 14.7713 141.708 15.094C141.474 15.4093 141.191 15.622 140.861 15.732V15.776C141.287 15.908 141.617 16.1427 141.851 16.48C142.093 16.8173 142.214 17.25 142.214 17.778C142.214 18.218 142.112 18.6103 141.906 18.955C141.708 19.2997 141.411 19.571 141.015 19.769C140.627 19.9597 140.157 20.055 139.607 20.055C138.779 20.055 138.104 19.846 137.583 19.428C137.063 19.01 136.788 18.394 136.758 17.58H138.254C138.269 17.9393 138.39 18.229 138.617 18.449C138.852 18.6617 139.171 18.768 139.574 18.768C139.948 18.768 140.234 18.6653 140.432 18.46C140.638 18.2473 140.74 17.976 140.74 17.646C140.74 17.206 140.601 16.8907 140.322 16.7C140.044 16.5093 139.611 16.414 139.024 16.414H138.705V15.149H139.024C140.066 15.149 140.586 14.8007 140.586 14.104C140.586 13.7887 140.491 13.543 140.3 13.367C140.117 13.191 139.849 13.103 139.497 13.103C139.153 13.103 138.885 13.1983 138.694 13.389C138.511 13.5723 138.405 13.807 138.375 14.093H136.868Z" fill="#6C6C74"/>
<path d="M129.584 56.886C129.584 55.6173 129.812 54.6237 130.266 53.905C130.728 53.1863 131.491 52.827 132.554 52.827C133.618 52.827 134.377 53.1863 134.831 53.905C135.293 54.6237 135.524 55.6173 135.524 56.886C135.524 58.162 135.293 59.163 134.831 59.889C134.377 60.615 133.618 60.978 132.554 60.978C131.491 60.978 130.728 60.615 130.266 59.889C129.812 59.163 129.584 58.162 129.584 56.886ZM134.006 56.886C134.006 56.3433 133.97 55.8887 133.896 55.522C133.83 55.148 133.691 54.8437 133.478 54.609C133.273 54.3743 132.965 54.257 132.554 54.257C132.144 54.257 131.832 54.3743 131.619 54.609C131.414 54.8437 131.275 55.148 131.201 55.522C131.135 55.8887 131.102 56.3433 131.102 56.886C131.102 57.4433 131.135 57.9127 131.201 58.294C131.267 58.668 131.407 58.9723 131.619 59.207C131.832 59.4343 132.144 59.548 132.554 59.548C132.965 59.548 133.277 59.4343 133.489 59.207C133.702 58.9723 133.841 58.668 133.907 58.294C133.973 57.9127 134.006 57.4433 134.006 56.886ZM138.478 58.745C138.536 59.0677 138.668 59.317 138.874 59.493C139.086 59.6617 139.369 59.746 139.721 59.746C140.175 59.746 140.505 59.559 140.711 59.185C140.916 58.8037 141.019 58.1657 141.019 57.271C140.85 57.5057 140.612 57.689 140.304 57.821C140.003 57.953 139.677 58.019 139.325 58.019C138.855 58.019 138.43 57.9237 138.049 57.733C137.675 57.535 137.378 57.2453 137.158 56.864C136.938 56.4753 136.828 56.006 136.828 55.456C136.828 54.642 137.07 53.9967 137.554 53.52C138.038 53.036 138.698 52.794 139.534 52.794C140.575 52.794 141.308 53.1277 141.734 53.795C142.166 54.4623 142.383 55.467 142.383 56.809C142.383 57.7623 142.298 58.5433 142.13 59.152C141.968 59.7607 141.686 60.2227 141.283 60.538C140.887 60.8533 140.344 61.011 139.655 61.011C139.112 61.011 138.65 60.9083 138.269 60.703C137.887 60.4903 137.594 60.2153 137.389 59.878C137.191 59.5333 137.077 59.1557 137.048 58.745H138.478ZM139.644 56.765C140.025 56.765 140.326 56.6477 140.546 56.413C140.766 56.1783 140.876 55.863 140.876 55.467C140.876 55.0343 140.758 54.7007 140.524 54.466C140.296 54.224 139.985 54.103 139.589 54.103C139.193 54.103 138.877 54.2277 138.643 54.477C138.415 54.719 138.302 55.0417 138.302 55.445C138.302 55.8337 138.412 56.1527 138.632 56.402C138.859 56.644 139.196 56.765 139.644 56.765Z" fill="#6C6C74"/>
<path d="M130.864 94.4V92.981H133.515V101H131.931V94.4H130.864ZM140.426 94.312H136.862V96.193C137.016 96.0023 137.236 95.8483 137.522 95.731C137.808 95.6063 138.112 95.544 138.435 95.544C139.022 95.544 139.502 95.6723 139.876 95.929C140.25 96.1857 140.521 96.5157 140.69 96.919C140.859 97.315 140.943 97.7403 140.943 98.195C140.943 99.0383 140.701 99.7167 140.217 100.23C139.74 100.743 139.058 101 138.171 101C137.335 101 136.668 100.791 136.169 100.373C135.67 99.955 135.388 99.4087 135.322 98.734H136.818C136.884 99.0273 137.031 99.262 137.258 99.438C137.493 99.614 137.79 99.702 138.149 99.702C138.582 99.702 138.908 99.5663 139.128 99.295C139.348 99.0237 139.458 98.6643 139.458 98.217C139.458 97.7623 139.344 97.4177 139.117 97.183C138.897 96.941 138.571 96.82 138.138 96.82C137.83 96.82 137.573 96.897 137.368 97.051C137.163 97.205 137.016 97.4103 136.928 97.667H135.454V92.959H140.426V94.312Z" fill="#6C6C74"/>
<path d="M131.916 140.262C132.62 139.675 133.181 139.188 133.599 138.799C134.017 138.403 134.365 137.992 134.644 137.567C134.923 137.142 135.062 136.724 135.062 136.313C135.062 135.939 134.974 135.646 134.798 135.433C134.622 135.22 134.351 135.114 133.984 135.114C133.617 135.114 133.335 135.239 133.137 135.488C132.939 135.73 132.836 136.064 132.829 136.489H131.333C131.362 135.609 131.623 134.942 132.114 134.487C132.613 134.032 133.243 133.805 134.006 133.805C134.842 133.805 135.484 134.029 135.931 134.476C136.378 134.916 136.602 135.499 136.602 136.225C136.602 136.797 136.448 137.343 136.14 137.864C135.832 138.385 135.48 138.839 135.084 139.228C134.688 139.609 134.171 140.071 133.533 140.614H136.778V141.89H131.344V140.746L131.916 140.262ZM137.562 135.4V133.981H140.213V142H138.629V135.4H137.562Z" fill="#6C6C74"/>
<path d="M169.391 15.886C169.391 14.6173 169.618 13.6237 170.073 12.905C170.535 12.1863 171.298 11.827 172.361 11.827C173.424 11.827 174.183 12.1863 174.638 12.905C175.1 13.6237 175.331 14.6173 175.331 15.886C175.331 17.162 175.1 18.163 174.638 18.889C174.183 19.615 173.424 19.978 172.361 19.978C171.298 19.978 170.535 19.615 170.073 18.889C169.618 18.163 169.391 17.162 169.391 15.886ZM173.813 15.886C173.813 15.3433 173.776 14.8887 173.703 14.522C173.637 14.148 173.498 13.8437 173.285 13.609C173.08 13.3743 172.772 13.257 172.361 13.257C171.95 13.257 171.639 13.3743 171.426 13.609C171.221 13.8437 171.081 14.148 171.008 14.522C170.942 14.8887 170.909 15.3433 170.909 15.886C170.909 16.4433 170.942 16.9127 171.008 17.294C171.074 17.668 171.213 17.9723 171.426 18.207C171.639 18.4343 171.95 18.548 172.361 18.548C172.772 18.548 173.083 18.4343 173.296 18.207C173.509 17.9723 173.648 17.668 173.714 17.294C173.78 16.9127 173.813 16.4433 173.813 15.886ZM176.436 18.438V17.228L180.033 12.08H181.826V17.096H182.794V18.438H181.826V20H180.286V18.438H176.436ZM180.385 13.73L178.13 17.096H180.385V13.73Z" fill="#6C6C74"/>
<path d="M170.848 54.4V52.981H173.499V61H171.915V54.4H170.848ZM175.02 56.886C175.02 55.6173 175.247 54.6237 175.702 53.905C176.164 53.1863 176.927 52.827 177.99 52.827C179.053 52.827 179.812 53.1863 180.267 53.905C180.729 54.6237 180.96 55.6173 180.96 56.886C180.96 58.162 180.729 59.163 180.267 59.889C179.812 60.615 179.053 60.978 177.99 60.978C176.927 60.978 176.164 60.615 175.702 59.889C175.247 59.163 175.02 58.162 175.02 56.886ZM179.442 56.886C179.442 56.3433 179.405 55.8887 179.332 55.522C179.266 55.148 179.127 54.8437 178.914 54.609C178.709 54.3743 178.401 54.257 177.99 54.257C177.579 54.257 177.268 54.3743 177.055 54.609C176.85 54.8437 176.71 55.148 176.637 55.522C176.571 55.8887 176.538 56.3433 176.538 56.886C176.538 57.4433 176.571 57.9127 176.637 58.294C176.703 58.668 176.842 58.9723 177.055 59.207C177.268 59.4343 177.579 59.548 177.99 59.548C178.401 59.548 178.712 59.4343 178.925 59.207C179.138 58.9723 179.277 58.668 179.343 58.294C179.409 57.9127 179.442 57.4433 179.442 56.886Z" fill="#6C6C74"/>
<path d="M170.885 94.4V92.981H173.536V101H171.952V94.4H170.885ZM179.216 94.983C179.142 94.675 179.014 94.444 178.831 94.29C178.655 94.136 178.398 94.059 178.061 94.059C177.555 94.059 177.181 94.2643 176.939 94.675C176.704 95.0783 176.583 95.7383 176.576 96.655C176.752 96.3617 177.008 96.1343 177.346 95.973C177.683 95.8043 178.05 95.72 178.446 95.72C178.922 95.72 179.344 95.8227 179.711 96.028C180.077 96.2333 180.363 96.534 180.569 96.93C180.774 97.3187 180.877 97.788 180.877 98.338C180.877 98.8587 180.77 99.3243 180.558 99.735C180.352 100.138 180.048 100.454 179.645 100.681C179.241 100.908 178.761 101.022 178.204 101.022C177.441 101.022 176.84 100.853 176.4 100.516C175.967 100.179 175.663 99.7093 175.487 99.108C175.318 98.4993 175.234 97.7513 175.234 96.864C175.234 95.522 175.465 94.51 175.927 93.828C176.389 93.1387 177.118 92.794 178.116 92.794C178.886 92.794 179.483 93.003 179.909 93.421C180.334 93.839 180.58 94.3597 180.646 94.983H179.216ZM178.094 96.985C177.705 96.985 177.379 97.0987 177.115 97.326C176.851 97.5533 176.719 97.8833 176.719 98.316C176.719 98.7487 176.84 99.0897 177.082 99.339C177.331 99.5883 177.679 99.713 178.127 99.713C178.523 99.713 178.834 99.592 179.062 99.35C179.296 99.108 179.414 98.7817 179.414 98.371C179.414 97.9457 179.3 97.6083 179.073 97.359C178.853 97.1097 178.526 96.985 178.094 96.985Z" fill="#6C6C74"/>
<path d="M170.751 140.262C171.455 139.675 172.016 139.188 172.434 138.799C172.852 138.403 173.2 137.992 173.479 137.567C173.757 137.142 173.897 136.724 173.897 136.313C173.897 135.939 173.809 135.646 173.633 135.433C173.457 135.22 173.185 135.114 172.819 135.114C172.452 135.114 172.17 135.239 171.972 135.488C171.774 135.73 171.671 136.064 171.664 136.489H170.168C170.197 135.609 170.457 134.942 170.949 134.487C171.447 134.032 172.078 133.805 172.841 133.805C173.677 133.805 174.318 134.029 174.766 134.476C175.213 134.916 175.437 135.499 175.437 136.225C175.437 136.797 175.283 137.343 174.975 137.864C174.667 138.385 174.315 138.839 173.919 139.228C173.523 139.609 173.006 140.071 172.368 140.614H175.613V141.89H170.179V140.746L170.751 140.262ZM177.067 140.262C177.771 139.675 178.332 139.188 178.75 138.799C179.168 138.403 179.516 137.992 179.795 137.567C180.074 137.142 180.213 136.724 180.213 136.313C180.213 135.939 180.125 135.646 179.949 135.433C179.773 135.22 179.502 135.114 179.135 135.114C178.768 135.114 178.486 135.239 178.288 135.488C178.09 135.73 177.987 136.064 177.98 136.489H176.484C176.513 135.609 176.774 134.942 177.265 134.487C177.764 134.032 178.394 133.805 179.157 133.805C179.993 133.805 180.635 134.029 181.082 134.476C181.529 134.916 181.753 135.499 181.753 136.225C181.753 136.797 181.599 137.343 181.291 137.864C180.983 138.385 180.631 138.839 180.235 139.228C179.839 139.609 179.322 140.071 178.684 140.614H181.929V141.89H176.495V140.746L177.067 140.262Z" fill="#6C6C74"/>
<path d="M209.488 15.886C209.488 14.6173 209.715 13.6237 210.17 12.905C210.632 12.1863 211.394 11.827 212.458 11.827C213.521 11.827 214.28 12.1863 214.735 12.905C215.197 13.6237 215.428 14.6173 215.428 15.886C215.428 17.162 215.197 18.163 214.735 18.889C214.28 19.615 213.521 19.978 212.458 19.978C211.394 19.978 210.632 19.615 210.17 18.889C209.715 18.163 209.488 17.162 209.488 15.886ZM213.91 15.886C213.91 15.3433 213.873 14.8887 213.8 14.522C213.734 14.148 213.594 13.8437 213.382 13.609C213.176 13.3743 212.868 13.257 212.458 13.257C212.047 13.257 211.735 13.3743 211.523 13.609C211.317 13.8437 211.178 14.148 211.105 14.522C211.039 14.8887 211.006 15.3433 211.006 15.886C211.006 16.4433 211.039 16.9127 211.105 17.294C211.171 17.668 211.31 17.9723 211.523 18.207C211.735 18.4343 212.047 18.548 212.458 18.548C212.868 18.548 213.18 18.4343 213.393 18.207C213.605 17.9723 213.745 17.668 213.811 17.294C213.877 16.9127 213.91 16.4433 213.91 15.886ZM221.989 13.312H218.425V15.193C218.579 15.0023 218.799 14.8483 219.085 14.731C219.371 14.6063 219.675 14.544 219.998 14.544C220.585 14.544 221.065 14.6723 221.439 14.929C221.813 15.1857 222.084 15.5157 222.253 15.919C222.422 16.315 222.506 16.7403 222.506 17.195C222.506 18.0383 222.264 18.7167 221.78 19.23C221.303 19.7433 220.621 20 219.734 20C218.898 20 218.231 19.791 217.732 19.373C217.233 18.955 216.951 18.4087 216.885 17.734H218.381C218.447 18.0273 218.594 18.262 218.821 18.438C219.056 18.614 219.353 18.702 219.712 18.702C220.145 18.702 220.471 18.5663 220.691 18.295C220.911 18.0237 221.021 17.6643 221.021 17.217C221.021 16.7623 220.907 16.4177 220.68 16.183C220.46 15.941 220.134 15.82 219.701 15.82C219.393 15.82 219.136 15.897 218.931 16.051C218.726 16.205 218.579 16.4103 218.491 16.667H217.017V11.959H221.989V13.312Z" fill="#6C6C74"/>
<path d="M212.411 54.4V52.981H215.062V61H213.478V54.4H212.411ZM216.396 54.4V52.981H219.047V61H217.463V54.4H216.396Z" fill="#6C6C74"/>
<path d="M211.39 94.4V92.981H214.041V101H212.457V94.4H211.39ZM220.666 94.147L217.74 101H216.178L219.126 94.323H215.364V93.003H220.666V94.147Z" fill="#6C6C74"/>
<path d="M210.616 140.262C211.32 139.675 211.881 139.188 212.299 138.799C212.717 138.403 213.066 137.992 213.344 137.567C213.623 137.142 213.762 136.724 213.762 136.313C213.762 135.939 213.674 135.646 213.498 135.433C213.322 135.22 213.051 135.114 212.684 135.114C212.318 135.114 212.035 135.239 211.837 135.488C211.639 135.73 211.537 136.064 211.529 136.489H210.033C210.063 135.609 210.323 134.942 210.814 134.487C211.313 134.032 211.944 133.805 212.706 133.805C213.542 133.805 214.184 134.029 214.631 134.476C215.079 134.916 215.302 135.499 215.302 136.225C215.302 136.797 215.148 137.343 214.84 137.864C214.532 138.385 214.18 138.839 213.784 139.228C213.388 139.609 212.871 140.071 212.233 140.614H215.478V141.89H210.044V140.746L210.616 140.262ZM216.471 136.093C216.507 135.36 216.764 134.795 217.241 134.399C217.725 133.996 218.359 133.794 219.144 133.794C219.679 133.794 220.137 133.889 220.519 134.08C220.9 134.263 221.186 134.516 221.377 134.839C221.575 135.154 221.674 135.514 221.674 135.917C221.674 136.379 221.553 136.771 221.311 137.094C221.076 137.409 220.794 137.622 220.464 137.732V137.776C220.889 137.908 221.219 138.143 221.454 138.48C221.696 138.817 221.817 139.25 221.817 139.778C221.817 140.218 221.714 140.61 221.509 140.955C221.311 141.3 221.014 141.571 220.618 141.769C220.229 141.96 219.76 142.055 219.21 142.055C218.381 142.055 217.706 141.846 217.186 141.428C216.665 141.01 216.39 140.394 216.361 139.58H217.857C217.871 139.939 217.992 140.229 218.22 140.449C218.454 140.662 218.773 140.768 219.177 140.768C219.551 140.768 219.837 140.665 220.035 140.46C220.24 140.247 220.343 139.976 220.343 139.646C220.343 139.206 220.203 138.891 219.925 138.7C219.646 138.509 219.213 138.414 218.627 138.414H218.308V137.149H218.627C219.668 137.149 220.189 136.801 220.189 136.104C220.189 135.789 220.093 135.543 219.903 135.367C219.719 135.191 219.452 135.103 219.1 135.103C218.755 135.103 218.487 135.198 218.297 135.389C218.113 135.572 218.007 135.807 217.978 136.093H216.471Z" fill="white"/>
</svg>
