<svg width="22" height="22" viewBox="0 0 22 22" fill="none" xmlns="http://www.w3.org/2000/svg">
<rect width="22" height="22" rx="6" fill="#E8E8E8"/>
<path d="M6.32812 11C6.32812 11.2775 6.5603 11.504 6.83212 11.504H10.496V15.1679C10.496 15.4397 10.7225 15.6719 11 15.6719C11.2775 15.6719 11.5097 15.4397 11.5097 15.1679V11.504H15.1679C15.4397 11.504 15.6719 11.2775 15.6719 11C15.6719 10.7225 15.4397 10.4903 15.1679 10.4903H11.5097V6.83212C11.5097 6.5603 11.2775 6.32812 11 6.32812C10.7225 6.32812 10.496 6.5603 10.496 6.83212V10.4903H6.83212C6.5603 10.4903 6.32812 10.7225 6.32812 11Z" fill="#616161"/>
</svg>
