<svg width="120" height="120" viewBox="0 0 120 120" fill="none" xmlns="http://www.w3.org/2000/svg">
<path d="M73.3795 46.4344C76.447 46.4344 78.982 43.9299 78.4603 40.907C77.6905 36.4473 75.9939 32.1765 73.4569 28.3796C69.886 23.0353 64.8105 18.87 58.8723 16.4103C52.9341 13.9506 46.3998 13.307 40.0959 14.561C33.7919 15.8149 28.0013 18.91 23.4564 23.4549C18.9115 27.9999 15.8164 33.7904 14.5624 40.0944C13.3085 46.3984 13.9521 52.9326 16.4118 58.8708C18.8714 64.809 23.0368 69.8845 28.381 73.4554C32.1779 75.9924 36.4487 77.689 40.9085 78.4588C43.9314 78.9806 46.4359 76.4456 46.4359 73.378L46.4359 51.9887C46.4359 48.9212 48.9226 46.4344 51.9902 46.4344H73.3795Z" fill="#323232"/>
<rect x="60.7327" y="60.7962" width="45.2673" height="45.2673" rx="5.55427" fill="#323232"/>
<path d="M84.8938 60.7962H96.0023V70.9328C96.0023 74.0003 93.5156 76.487 90.4481 76.487V76.487C87.3805 76.487 84.8938 74.0003 84.8938 70.9327V60.7962Z" fill="white"/>
<path d="M45.3196 35.2465L45.3196 40.2454C45.3196 43.0061 43.0815 45.2442 40.3207 45.2442L28.1013 45.2442C25.3406 45.2442 23.1025 43.0061 23.1025 40.2454V40.2454C23.1025 37.4846 25.3406 35.2465 28.1013 35.2465L45.3196 35.2465Z" fill="white"/>
<path d="M45.3196 40.2454C45.3196 43.0062 43.0815 45.2443 40.3207 45.2443L35.3219 45.2443L35.3219 28.026C35.3219 25.2652 37.56 23.0272 40.3207 23.0272V23.0272C43.0815 23.0272 45.3196 25.2652 45.3196 28.026L45.3196 40.2454Z" fill="white"/>
</svg>
