<svg width="120" height="120" viewBox="0 0 120 120" fill="none" xmlns="http://www.w3.org/2000/svg">
<path fill-rule="evenodd" clip-rule="evenodd" d="M82.0987 30.5724C86.1807 36.6814 88.3594 43.8637 88.3594 51.211H69.7945C69.7914 51.2109 69.7883 51.2109 69.7852 51.2109H58.6406V32.6367C58.6406 30.5851 56.9774 28.9219 54.9258 28.9219C52.8741 28.9219 51.211 30.5851 51.211 32.6367V51.211V54.9258V88.3594C43.8637 88.3594 36.6814 86.1807 30.5724 82.0987C24.4634 78.0168 19.702 72.215 16.8903 65.427C14.0786 58.6391 13.3429 51.1697 14.7763 43.9637C16.2097 36.7576 19.7477 30.1383 24.943 24.943C30.1383 19.7477 36.7576 16.2097 43.9637 14.7763C51.1697 13.3429 58.6391 14.0786 65.427 16.8903C72.215 19.702 78.0168 24.4634 82.0987 30.5724Z" fill="url(#paint0_linear_344_2350)"/>
<rect x="58" y="58" width="48" height="48" rx="10" fill="url(#paint1_linear_344_2350)"/>
<defs>
<linearGradient id="paint0_linear_344_2350" x1="14.092" y1="88.3299" x2="88.348" y2="14.0739" gradientUnits="userSpaceOnUse">
<stop/>
<stop offset="1" stop-color="#5F626B"/>
</linearGradient>
<linearGradient id="paint1_linear_344_2350" x1="58.019" y1="105.981" x2="105.993" y2="58.0073" gradientUnits="userSpaceOnUse">
<stop/>
<stop offset="1" stop-color="#5F626B"/>
</linearGradient>
</defs>
</svg>
