<svg width="120" height="120" viewBox="0 0 120 120" fill="none" xmlns="http://www.w3.org/2000/svg">
<rect x="0.5" y="0.5" width="119" height="119" rx="19.5" fill="#F4F5F7"/>
<rect x="0.5" y="0.5" width="119" height="119" rx="19.5" stroke="#F1F1F1"/>
<path d="M53.6204 42.1875C55.1374 42.1875 56.3672 43.4173 56.3672 44.9343L56.3672 48.1641L44.6484 48.1641L44.6484 44.9343C44.6484 43.4173 45.8782 42.1875 47.3952 42.1875L53.6204 42.1875Z" fill="#323232"/>
<path d="M72.6048 42.1875C74.1218 42.1875 75.3516 43.4173 75.3516 44.9343L75.3516 48.1641L63.6328 48.1641L63.6328 44.9343C63.6328 43.4173 64.8626 42.1875 66.3796 42.1875L72.6048 42.1875Z" fill="#323232"/>
<path d="M31.6406 57.2027C31.6406 52.1461 35.7398 48.0469 40.7965 48.0469H79.2035C84.2602 48.0469 88.3594 52.1461 88.3594 57.2027V80.8441C88.3594 85.9008 84.2602 90 79.2035 90H40.7965C35.7398 90 31.6406 85.9008 31.6406 80.8441V57.2027Z" fill="#323232"/>
<path d="M73.7109 0H94.9219V18.5742C94.9219 24.4315 90.1736 29.1797 84.3164 29.1797V29.1797C78.4592 29.1797 73.7109 24.4315 73.7109 18.5742V0Z" fill="#323232"/>
</svg>
