<svg width="20" height="20" viewBox="0 0 20 20" fill="none" xmlns="http://www.w3.org/2000/svg">
<path d="M12.7291 9.75001C12.7291 9.86112 12.7083 9.9689 12.6666 10.0733C12.6249 10.1778 12.5694 10.2645 12.4999 10.3333L8.66659 14.1667C8.51381 14.3195 8.31936 14.3958 8.08325 14.3958C7.84714 14.3958 7.6527 14.3195 7.49992 14.1667C7.34714 14.0139 7.27075 13.8195 7.27075 13.5833C7.27075 13.3472 7.34714 13.1528 7.49992 13L10.7499 9.75001L7.49992 6.50001C7.34714 6.34723 7.27075 6.15279 7.27075 5.91668C7.27075 5.68057 7.34714 5.48612 7.49992 5.33334C7.6527 5.18057 7.84714 5.10418 8.08325 5.10418C8.31936 5.10418 8.51381 5.18057 8.66659 5.33334L12.4999 9.16668C12.5833 9.25001 12.6424 9.34029 12.6774 9.43751C12.7124 9.53473 12.7296 9.6389 12.7291 9.75001Z" fill="#323232"/>
</svg>
