<svg width="24" height="24" viewBox="0 0 24 24" fill="none" xmlns="http://www.w3.org/2000/svg">
<path fill-rule="evenodd" clip-rule="evenodd" d="M6.70581 3C6.70581 2.44772 7.15353 2 7.70581 2H9.23522C9.78751 2 10.2352 2.44772 10.2352 3V4.5H13.7645V3C13.7645 2.44772 14.2122 2 14.7645 2H16.2939C16.8462 2 17.2939 2.44772 17.2939 3V4.5H20C21.1046 4.5 22 5.39543 22 6.5V20C22 21.1046 21.1046 22 20 22H4C2.89543 22 2 21.1046 2 20V6.5C2 5.39543 2.89543 4.5 4 4.5H6.70581V3ZM6 9C6 8.44772 6.44772 8 7 8H17C17.5523 8 18 8.44772 18 9C18 9.55228 17.5523 10 17 10H7C6.44771 10 6 9.55228 6 9Z" fill="#323232"/>
</svg>
