<svg width="375" height="256" viewBox="0 0 375 256" fill="none" xmlns="http://www.w3.org/2000/svg">
<rect x="48" y="32" width="37.0456" height="37.0456" rx="11.5767" fill="#E8E8E8"/>
<rect x="94.3071" y="32" width="37.0456" height="37.0456" rx="11.5767" fill="#0056D6"/>
<rect x="140.614" y="32" width="37.0456" height="37.0456" rx="11.5767" fill="#E8E8E8"/>
<rect x="186.921" y="32" width="37.0456" height="37.0456" rx="11.5767" fill="#E8E8E8"/>
<rect x="233.228" y="32" width="37.0456" height="37.0456" rx="11.5767" fill="#E8E8E8"/>
<rect x="279.535" y="32" width="37.0456" height="37.0456" rx="11.5767" fill="#E8E8E8"/>
<rect x="48" y="78.9961" width="37.0456" height="37.0456" rx="11.5767" fill="#E8E8E8"/>
<rect x="94.3071" y="78.9961" width="37.0456" height="37.0456" rx="11.5767" fill="#E8E8E8"/>
<rect x="140.614" y="78.9961" width="37.0456" height="37.0456" rx="11.5767" fill="#E8E8E8"/>
<rect x="112.83" y="79.0018" width="18.5228" height="37.0456" rx="9.26141" fill="#76BB40"/>
<rect x="66.5228" y="32" width="18.5228" height="37.0456" rx="9.26141" fill="#0056D6"/>
<rect x="186.921" y="78.9961" width="37.0456" height="37.0456" rx="11.5767" fill="#E8E8E8"/>
<rect x="233.228" y="78.9961" width="37.0456" height="37.0456" rx="11.5767" fill="#E8E8E8"/>
<rect x="279.535" y="78.9961" width="37.0456" height="37.0456" rx="11.5767" fill="#E8E8E8"/>
<rect x="279.535" y="125.772" width="37.0456" height="37.0456" rx="11.5767" fill="#E8E8E8"/>
<rect x="48" y="125.992" width="37.0456" height="37.0456" rx="11.5767" fill="#E8E8E8"/>
<rect x="94.3071" y="125.992" width="37.0456" height="37.0456" rx="11.5767" fill="#E8E8E8"/>
<rect x="140.614" y="125.992" width="37.0456" height="37.0456" rx="11.5767" fill="#FCC700"/>
<rect x="186.921" y="125.992" width="37.0456" height="37.0456" rx="11.5767" fill="#FCC700"/>
<rect x="233.228" y="125.992" width="37.0456" height="37.0456" rx="11.5767" fill="#E8E8E8"/>
<rect x="48" y="172.988" width="37.0456" height="37.0456" rx="11.5767" fill="#E8E8E8"/>
<rect x="94.3071" y="172.988" width="37.0456" height="37.0456" rx="11.5767" fill="#FF4015"/>
<rect x="140.614" y="172.988" width="37.0456" height="37.0456" rx="11.5767" fill="#E8E8E8"/>
<rect x="186.921" y="172.988" width="37.0456" height="37.0456" rx="11.5767" fill="#E8E8E8"/>
<rect x="233.228" y="172.988" width="37.0456" height="37.0456" rx="11.5767" fill="#E8E8E8"/>
<rect x="279.535" y="172.988" width="37.0456" height="37.0456" rx="11.5767" fill="#E8E8E8"/>
<rect x="233.228" y="125.772" width="18.5228" height="37.0456" rx="9.26141" fill="#FCC700"/>
<rect x="140.614" y="173.236" width="18.5228" height="37.0456" rx="9.26141" fill="#FF4015"/>
<path d="M279.535 90.5786C279.535 84.1849 284.718 79.0018 291.112 79.0018H298.058V116.047H291.112C284.718 116.047 279.535 110.864 279.535 104.471V90.5786Z" fill="#76BB40"/>
<path d="M316.581 90.5786C316.581 84.1849 311.398 79.0018 305.004 79.0018H298.058V116.047H305.004C311.398 116.047 316.581 110.864 316.581 104.471V90.5786Z" fill="#0056D6"/>
<rect x="61.8921" y="41.2614" width="74.0913" height="18.5228" rx="8.68256" fill="#323232" fill-opacity="0.4"/>
<path d="M92.3472 47.9952H93.3545V52.4605H92.3472V47.9952ZM90.6198 49.7225H95.0851V50.7299H90.6198V49.7225ZM99.0971 53.5228H97.9024V48.0694H97.8637L96.3171 49.0574V47.9693L97.9573 46.9103H99.0971V53.5228ZM101.076 53.5938C100.949 53.5938 100.831 53.5615 100.721 53.4969C100.611 53.4324 100.524 53.3473 100.459 53.2419C100.397 53.1342 100.367 53.0159 100.369 52.8867C100.367 52.7597 100.397 52.6424 100.459 52.5348C100.524 52.425 100.611 52.34 100.721 52.2797C100.831 52.2173 100.949 52.1861 101.076 52.1861C101.201 52.1861 101.318 52.2173 101.428 52.2797C101.538 52.34 101.624 52.425 101.686 52.5348C101.751 52.6445 101.783 52.7619 101.783 52.8867C101.783 53.0137 101.751 53.131 101.686 53.2386C101.624 53.3463 101.538 53.4324 101.428 53.4969C101.318 53.5615 101.201 53.5938 101.076 53.5938ZM105.159 53.6132C104.724 53.6132 104.333 53.5325 103.984 53.371C103.635 53.2096 103.359 52.9857 103.154 52.6994C102.95 52.4132 102.842 52.0892 102.831 51.7276H103.987C104.002 51.9062 104.062 52.0655 104.168 52.2054C104.275 52.3432 104.415 52.4519 104.588 52.5315C104.762 52.6112 104.952 52.651 105.159 52.651C105.402 52.651 105.621 52.5972 105.815 52.4896C106.008 52.3798 106.159 52.2291 106.267 52.0375C106.376 51.8438 106.431 51.6253 106.431 51.3821C106.431 51.1346 106.375 50.9129 106.263 50.717C106.154 50.519 105.999 50.3651 105.798 50.2553C105.598 50.1455 105.373 50.0895 105.124 50.0874C104.863 50.0852 104.64 50.1315 104.455 50.2262C104.27 50.3188 104.127 50.4608 104.026 50.6524H102.928L103.322 46.9103H107.229V47.9047H104.303L104.103 49.6612H104.161C104.248 49.5643 104.356 49.4782 104.488 49.4029C104.621 49.3254 104.769 49.2662 104.933 49.2253C105.097 49.1823 105.268 49.1607 105.446 49.1607C105.851 49.1607 106.216 49.2544 106.541 49.4416C106.866 49.6289 107.121 49.8894 107.306 50.223C107.491 50.5566 107.584 50.9322 107.584 51.3498C107.584 51.7846 107.481 52.1742 107.274 52.5186C107.069 52.8609 106.783 53.1289 106.415 53.3226C106.049 53.5163 105.63 53.6132 105.159 53.6132Z" fill="white"/>
<rect x="89.6764" y="182.498" width="74.0913" height="18.5228" rx="8.68256" fill="#323232" fill-opacity="0.4"/>
<path d="M120.131 189.232H121.139V193.697H120.131V189.232ZM118.404 190.959H122.869V191.966H118.404V190.959ZM126.881 194.759H125.687V189.306H125.648L124.101 190.294V189.206L125.742 188.147H126.881V194.759ZM128.86 194.83C128.733 194.83 128.615 194.798 128.505 194.734C128.395 194.669 128.308 194.584 128.244 194.478C128.181 194.371 128.151 194.252 128.153 194.123C128.151 193.996 128.181 193.879 128.244 193.771C128.308 193.662 128.395 193.577 128.505 193.516C128.615 193.454 128.733 193.423 128.86 193.423C128.985 193.423 129.102 193.454 129.212 193.516C129.322 193.577 129.408 193.662 129.471 193.771C129.535 193.881 129.567 193.998 129.567 194.123C129.567 194.25 129.535 194.368 129.471 194.475C129.408 194.583 129.322 194.669 129.212 194.734C129.102 194.798 128.985 194.83 128.86 194.83ZM132.943 194.85C132.509 194.85 132.117 194.769 131.768 194.608C131.419 194.446 131.143 194.222 130.938 193.936C130.734 193.65 130.626 193.326 130.615 192.964H131.771C131.786 193.143 131.847 193.302 131.952 193.442C132.06 193.58 132.2 193.688 132.372 193.768C132.546 193.848 132.737 193.888 132.943 193.888C133.187 193.888 133.405 193.834 133.599 193.726C133.792 193.616 133.943 193.466 134.051 193.274C134.161 193.08 134.215 192.862 134.215 192.619C134.215 192.371 134.159 192.149 134.048 191.954C133.938 191.756 133.783 191.602 133.583 191.492C133.382 191.382 133.158 191.326 132.908 191.324C132.647 191.322 132.425 191.368 132.239 191.463C132.054 191.555 131.911 191.697 131.81 191.889H130.712L131.106 188.147H135.013V189.141H132.088L131.888 190.898H131.946C132.032 190.801 132.14 190.715 132.272 190.639C132.405 190.562 132.554 190.503 132.717 190.462C132.881 190.419 133.052 190.397 133.231 190.397C133.635 190.397 134 190.491 134.325 190.678C134.65 190.865 134.905 191.126 135.09 191.46C135.276 191.793 135.368 192.169 135.368 192.586C135.368 193.021 135.265 193.411 135.058 193.755C134.854 194.097 134.567 194.365 134.199 194.559C133.833 194.753 133.415 194.85 132.943 194.85Z" fill="white"/>
<rect x="109.357" y="88.726" width="26.6266" height="18.5228" rx="8.68256" fill="#323232" fill-opacity="0.4"/>
<path d="M115.189 95.4598H116.197V99.9252H115.189V95.4598ZM113.462 97.1872H117.927V98.1946H113.462V97.1872ZM121.694 101.078C121.164 101.078 120.709 100.944 120.328 100.677C119.949 100.411 119.659 100.024 119.456 99.5183C119.254 99.0104 119.153 98.398 119.153 97.6812C119.153 96.9687 119.254 96.3574 119.456 95.8473C119.659 95.3371 119.95 94.9497 120.331 94.6849C120.712 94.418 121.166 94.2846 121.694 94.2846C122.219 94.2846 122.672 94.418 123.053 94.6849C123.434 94.9497 123.726 95.3371 123.928 95.8473C124.133 96.3574 124.235 96.9687 124.235 97.6812C124.235 98.398 124.134 99.0104 123.931 99.5183C123.731 100.026 123.441 100.414 123.06 100.681C122.679 100.945 122.223 101.078 121.694 101.078ZM121.694 100.08C121.971 100.08 122.21 99.9897 122.411 99.8089C122.611 99.6281 122.765 99.3591 122.872 99.0017C122.98 98.6423 123.034 98.2021 123.034 97.6812C123.034 97.1624 122.98 96.7233 122.872 96.3639C122.765 96.0022 122.61 95.731 122.407 95.5502C122.207 95.3673 121.969 95.2758 121.694 95.2758C121.416 95.2758 121.177 95.3673 120.977 95.5502C120.779 95.731 120.625 96.0022 120.515 96.3639C120.408 96.7233 120.353 97.1624 120.351 97.6812C120.351 98.2021 120.404 98.6423 120.512 99.0017C120.62 99.3591 120.774 99.6281 120.974 99.8089C121.174 99.9897 121.414 100.08 121.694 100.08ZM125.699 101.058C125.572 101.058 125.453 101.026 125.344 100.962C125.234 100.897 125.147 100.812 125.082 100.707C125.02 100.599 124.989 100.481 124.992 100.351C124.989 100.224 125.02 100.107 125.082 99.9994C125.147 99.8897 125.234 99.8046 125.344 99.7444C125.453 99.6819 125.572 99.6507 125.699 99.6507C125.824 99.6507 125.941 99.6819 126.051 99.7444C126.16 99.8046 126.247 99.8897 126.309 99.9994C126.374 100.109 126.406 100.227 126.406 100.351C126.406 100.478 126.374 100.596 126.309 100.703C126.247 100.811 126.16 100.897 126.051 100.962C125.941 101.026 125.824 101.058 125.699 101.058ZM129.782 101.078C129.347 101.078 128.955 100.997 128.607 100.836C128.258 100.674 127.981 100.45 127.777 100.164C127.572 99.8778 127.465 99.5539 127.454 99.1922H128.61C128.625 99.3709 128.685 99.5302 128.791 99.6701C128.898 99.8079 129.038 99.9166 129.21 99.9962C129.385 100.076 129.575 100.116 129.782 100.116C130.025 100.116 130.243 100.062 130.437 99.9542C130.631 99.8445 130.782 99.6938 130.889 99.5022C130.999 99.3085 131.054 99.09 131.054 98.8468C131.054 98.5992 130.998 98.3775 130.886 98.1816C130.776 97.9836 130.621 97.8297 130.421 97.7199C130.221 97.6102 129.996 97.5542 129.746 97.552C129.486 97.5499 129.263 97.5962 129.078 97.6909C128.893 97.7834 128.75 97.9255 128.648 98.1171H127.551L127.945 94.375H131.851V95.3694H128.926L128.726 97.1258H128.784C128.87 97.029 128.979 96.9429 129.11 96.8675C129.244 96.7901 129.392 96.7309 129.556 96.69C129.719 96.6469 129.89 96.6254 130.069 96.6254C130.474 96.6254 130.839 96.719 131.164 96.9063C131.489 97.0936 131.744 97.354 131.929 97.6876C132.114 98.0213 132.207 98.3969 132.207 98.8145C132.207 99.2493 132.103 99.6389 131.897 99.9833C131.692 100.326 131.406 100.594 131.038 100.787C130.672 100.981 130.253 101.078 129.782 101.078Z" fill="white"/>
<rect x="269.116" y="88.726" width="26.6266" height="18.5228" rx="8.68256" fill="#323232" fill-opacity="0.4"/>
<path d="M274.949 95.4598H275.956V99.9252H274.949V95.4598ZM273.221 97.1872H277.687V98.1946H273.221V97.1872ZM281.453 101.078C280.924 101.078 280.468 100.944 280.087 100.677C279.708 100.411 279.418 100.024 279.216 99.5183C279.013 99.0104 278.912 98.398 278.912 97.6812C278.912 96.9687 279.013 96.3574 279.216 95.8473C279.418 95.3371 279.71 94.9497 280.091 94.6849C280.472 94.418 280.926 94.2846 281.453 94.2846C281.978 94.2846 282.431 94.418 282.812 94.6849C283.193 94.9497 283.485 95.3371 283.687 95.8473C283.892 96.3574 283.994 96.9687 283.994 97.6812C283.994 98.398 283.893 99.0104 283.691 99.5183C283.49 100.026 283.2 100.414 282.819 100.681C282.438 100.945 281.983 101.078 281.453 101.078ZM281.453 100.08C281.731 100.08 281.97 99.9897 282.17 99.8089C282.37 99.6281 282.524 99.3591 282.632 99.0017C282.739 98.6423 282.793 98.2021 282.793 97.6812C282.793 97.1624 282.739 96.7233 282.632 96.3639C282.524 96.0022 282.369 95.731 282.167 95.5502C281.966 95.3673 281.729 95.2758 281.453 95.2758C281.175 95.2758 280.936 95.3673 280.736 95.5502C280.538 95.731 280.384 96.0022 280.275 96.3639C280.167 96.7233 280.112 97.1624 280.11 97.6812C280.11 98.2021 280.164 98.6423 280.271 99.0017C280.379 99.3591 280.533 99.6281 280.733 99.8089C280.933 99.9897 281.173 100.08 281.453 100.08ZM285.458 101.058C285.331 101.058 285.213 101.026 285.103 100.962C284.993 100.897 284.906 100.812 284.841 100.707C284.779 100.599 284.749 100.481 284.751 100.351C284.749 100.224 284.779 100.107 284.841 99.9994C284.906 99.8897 284.993 99.8046 285.103 99.7444C285.213 99.6819 285.331 99.6507 285.458 99.6507C285.583 99.6507 285.7 99.6819 285.81 99.7444C285.92 99.8046 286.006 99.8897 286.068 99.9994C286.133 100.109 286.165 100.227 286.165 100.351C286.165 100.478 286.133 100.596 286.068 100.703C286.006 100.811 285.92 100.897 285.81 100.962C285.7 101.026 285.583 101.058 285.458 101.058ZM289.541 101.078C289.106 101.078 288.714 100.997 288.366 100.836C288.017 100.674 287.74 100.45 287.536 100.164C287.332 99.8778 287.224 99.5539 287.213 99.1922H288.369C288.384 99.3709 288.444 99.5302 288.55 99.6701C288.657 99.8079 288.797 99.9166 288.97 99.9962C289.144 100.076 289.334 100.116 289.541 100.116C289.784 100.116 290.003 100.062 290.196 99.9542C290.39 99.8445 290.541 99.6938 290.649 99.5022C290.758 99.3085 290.813 99.09 290.813 98.8468C290.813 98.5992 290.757 98.3775 290.645 98.1816C290.536 97.9836 290.381 97.8297 290.18 97.7199C289.98 97.6102 289.755 97.5542 289.506 97.552C289.245 97.5499 289.022 97.5962 288.837 97.6909C288.652 97.7834 288.509 97.9255 288.408 98.1171H287.31L287.704 94.375H291.611V95.3694H288.685L288.485 97.1258H288.543C288.629 97.029 288.738 96.9429 288.869 96.8675C289.003 96.7901 289.151 96.7309 289.315 96.69C289.479 96.6469 289.65 96.6254 289.828 96.6254C290.233 96.6254 290.598 96.719 290.923 96.9063C291.248 97.0936 291.503 97.354 291.688 97.6876C291.873 98.0213 291.966 98.3969 291.966 98.8145C291.966 99.2493 291.863 99.6389 291.656 99.9833C291.451 100.326 291.165 100.594 290.797 100.787C290.431 100.981 290.012 101.078 289.541 101.078Z" fill="white"/>
<rect x="135.983" y="135.033" width="119.241" height="18.5228" rx="8.68256" fill="#323232" fill-opacity="0.4"/>
<path d="M188.278 141.767H189.285V146.232H188.278V141.767ZM186.551 143.494H191.016V144.502H186.551V143.494ZM192.117 146.433L194.451 144.182C194.705 143.928 194.901 143.719 195.039 143.556C195.178 143.392 195.285 143.232 195.358 143.075C195.431 142.915 195.469 142.746 195.471 142.568C195.469 142.365 195.418 142.188 195.319 142.035C195.223 141.882 195.088 141.765 194.916 141.683C194.744 141.601 194.549 141.56 194.331 141.56C194.108 141.56 193.912 141.606 193.744 141.696C193.576 141.784 193.446 141.911 193.353 142.077C193.263 142.243 193.218 142.437 193.218 142.658H192.087C192.085 142.247 192.18 141.885 192.372 141.573C192.565 141.259 192.833 141.017 193.176 140.847C193.518 140.677 193.908 140.592 194.348 140.592C194.789 140.592 195.181 140.674 195.523 140.837C195.867 141.001 196.134 141.229 196.324 141.522C196.513 141.812 196.608 142.141 196.608 142.506C196.608 142.765 196.558 143.012 196.459 143.249C196.362 143.484 196.194 143.745 195.956 144.034C195.719 144.322 195.382 144.673 194.945 145.086L193.773 146.252V146.3H196.708V147.295H192.12L192.117 146.433ZM198.477 147.366C198.35 147.366 198.232 147.333 198.122 147.269C198.012 147.204 197.925 147.119 197.86 147.014C197.798 146.906 197.768 146.788 197.77 146.659C197.768 146.532 197.798 146.414 197.86 146.307C197.925 146.197 198.012 146.112 198.122 146.052C198.232 145.989 198.35 145.958 198.477 145.958C198.602 145.958 198.719 145.989 198.829 146.052C198.939 146.112 199.025 146.197 199.087 146.307C199.152 146.416 199.184 146.534 199.184 146.659C199.184 146.786 199.152 146.903 199.087 147.011C199.025 147.118 198.939 147.204 198.829 147.269C198.719 147.333 198.602 147.366 198.477 147.366ZM202.56 147.385C202.125 147.385 201.733 147.304 201.385 147.143C201.036 146.982 200.759 146.758 200.555 146.471C200.351 146.185 200.243 145.861 200.232 145.5H201.388C201.403 145.678 201.463 145.837 201.569 145.977C201.676 146.115 201.816 146.224 201.989 146.303C202.163 146.383 202.353 146.423 202.56 146.423C202.803 146.423 203.022 146.369 203.215 146.262C203.409 146.152 203.56 146.001 203.668 145.809C203.777 145.616 203.832 145.397 203.832 145.154C203.832 144.907 203.776 144.685 203.664 144.489C203.555 144.291 203.4 144.137 203.199 144.027C202.999 143.917 202.774 143.861 202.525 143.859C202.264 143.857 202.041 143.903 201.856 143.998C201.671 144.091 201.528 144.233 201.427 144.424H200.329L200.723 140.682H204.63V141.677H201.704L201.504 143.433H201.562C201.648 143.336 201.757 143.25 201.888 143.175C202.022 143.097 202.17 143.038 202.334 142.997C202.498 142.954 202.669 142.933 202.847 142.933C203.252 142.933 203.617 143.026 203.942 143.214C204.267 143.401 204.522 143.661 204.707 143.995C204.892 144.329 204.985 144.704 204.985 145.122C204.985 145.557 204.882 145.946 204.675 146.291C204.47 146.633 204.184 146.901 203.816 147.095C203.45 147.288 203.031 147.385 202.56 147.385Z" fill="white"/>
<rect x="300.373" y="88.726" width="26.6266" height="18.5228" rx="8.68256" fill="#323232" fill-opacity="0.4"/>
<path d="M306.206 95.4598H307.213V99.9252H306.206V95.4598ZM304.478 97.1872H308.944V98.1946H304.478V97.1872ZM312.71 101.078C312.181 101.078 311.726 100.944 311.345 100.677C310.966 100.411 310.675 100.024 310.473 99.5183C310.27 99.0104 310.169 98.398 310.169 97.6812C310.169 96.9687 310.27 96.3574 310.473 95.8473C310.675 95.3371 310.967 94.9497 311.348 94.6849C311.729 94.418 312.183 94.2846 312.71 94.2846C313.236 94.2846 313.689 94.418 314.07 94.6849C314.451 94.9497 314.742 95.3371 314.945 95.8473C315.149 96.3574 315.251 96.9687 315.251 97.6812C315.251 98.398 315.15 99.0104 314.948 99.5183C314.748 100.026 314.457 100.414 314.076 100.681C313.695 100.945 313.24 101.078 312.71 101.078ZM312.71 100.08C312.988 100.08 313.227 99.9897 313.427 99.8089C313.627 99.6281 313.781 99.3591 313.889 99.0017C313.996 98.6423 314.05 98.2021 314.05 97.6812C314.05 97.1624 313.996 96.7233 313.889 96.3639C313.781 96.0022 313.626 95.731 313.424 95.5502C313.224 95.3673 312.986 95.2758 312.71 95.2758C312.433 95.2758 312.194 95.3673 311.994 95.5502C311.796 95.731 311.642 96.0022 311.532 96.3639C311.424 96.7233 311.369 97.1624 311.367 97.6812C311.367 98.2021 311.421 98.6423 311.529 99.0017C311.636 99.3591 311.79 99.6281 311.99 99.8089C312.19 99.9897 312.43 100.08 312.71 100.08ZM316.715 101.058C316.588 101.058 316.47 101.026 316.36 100.962C316.25 100.897 316.163 100.812 316.099 100.707C316.036 100.599 316.006 100.481 316.008 100.351C316.006 100.224 316.036 100.107 316.099 99.9994C316.163 99.8897 316.25 99.8046 316.36 99.7444C316.47 99.6819 316.588 99.6507 316.715 99.6507C316.84 99.6507 316.957 99.6819 317.067 99.7444C317.177 99.8046 317.263 99.8897 317.326 99.9994C317.39 100.109 317.422 100.227 317.422 100.351C317.422 100.478 317.39 100.596 317.326 100.703C317.263 100.811 317.177 100.897 317.067 100.962C316.957 101.026 316.84 101.058 316.715 101.058ZM320.798 101.078C320.364 101.078 319.972 100.997 319.623 100.836C319.274 100.674 318.998 100.45 318.793 100.164C318.589 99.8778 318.481 99.5539 318.47 99.1922H319.626C319.641 99.3709 319.702 99.5302 319.807 99.6701C319.915 99.8079 320.055 99.9166 320.227 99.9962C320.401 100.076 320.592 100.116 320.798 100.116C321.042 100.116 321.26 100.062 321.454 99.9542C321.647 99.8445 321.798 99.6938 321.906 99.5022C322.016 99.3085 322.07 99.09 322.07 98.8468C322.07 98.5992 322.014 98.3775 321.903 98.1816C321.793 97.9836 321.638 97.8297 321.438 97.7199C321.237 97.6102 321.012 97.5542 320.763 97.552C320.502 97.5499 320.28 97.5962 320.094 97.6909C319.909 97.7834 319.766 97.9255 319.665 98.1171H318.567L318.961 94.375H322.868V95.3694H319.943L319.743 97.1258H319.801C319.887 97.029 319.995 96.9429 320.127 96.8675C320.26 96.7901 320.409 96.7309 320.572 96.69C320.736 96.6469 320.907 96.6254 321.086 96.6254C321.49 96.6254 321.855 96.719 322.18 96.9063C322.505 97.0936 322.76 97.354 322.945 97.6876C323.131 98.0213 323.223 98.3969 323.223 98.8145C323.223 99.2493 323.12 99.6389 322.913 99.9833C322.709 100.326 322.422 100.594 322.054 100.787C321.688 100.981 321.27 101.078 320.798 101.078Z" fill="white"/>
</svg>
