<svg width="20" height="20" viewBox="0 0 20 20" fill="none" xmlns="http://www.w3.org/2000/svg">
<path d="M9.99992 7.02085C10.111 7.02085 10.2188 7.04169 10.3233 7.08335C10.4277 7.12502 10.5144 7.18058 10.5833 7.25002L14.4166 11.0834C14.5694 11.2361 14.6458 11.4306 14.6458 11.6667C14.6458 11.9028 14.5694 12.0972 14.4166 12.25C14.2638 12.4028 14.0694 12.4792 13.8333 12.4792C13.5971 12.4792 13.4027 12.4028 13.2499 12.25L9.99992 9.00002L6.74992 12.25C6.59714 12.4028 6.4027 12.4792 6.16658 12.4792C5.93047 12.4792 5.73603 12.4028 5.58325 12.25C5.43048 12.0972 5.35409 11.9028 5.35409 11.6667C5.35409 11.4306 5.43048 11.2361 5.58325 11.0834L9.41659 7.25002C9.49992 7.16669 9.5902 7.10752 9.68742 7.07252C9.78464 7.03752 9.88881 7.0203 9.99992 7.02085Z" fill="#323232"/>
</svg>
